<svg width="23" height="31" viewBox="0 0 23 31" fill="none" xmlns="http://www.w3.org/2000/svg">
<path fill-rule="evenodd" clip-rule="evenodd" d="M0 4.99995C0 4.02749 0.386308 3.09486 1.07394 2.40722C1.76157 1.71959 2.69421 1.33328 3.66667 1.33328H12.0743C13.0467 1.33349 13.9792 1.71993 14.6667 2.40762L20.9257 8.66661C21.6133 9.35409 21.9998 10.2866 22 11.2589V26.9999C22 27.9724 21.6137 28.905 20.9261 29.5927C20.2384 30.2803 19.3058 30.6666 18.3333 30.6666H3.66667C2.69421 30.6666 1.76157 30.2803 1.07394 29.5927C0.386308 28.905 0 27.9724 0 26.9999V4.99995Z" fill="black"/>
<path d="M14 1V9H22" stroke="white" stroke-width="2" stroke-linecap="round" stroke-linejoin="round"/>
<path d="M2.32227 21.3193C2.32227 20.4958 2.50618 19.8398 2.87402 19.3516C3.24512 18.8633 3.7513 18.6191 4.39258 18.6191C4.9069 18.6191 5.33171 18.8112 5.66699 19.1953V16.5H7.08301V24H5.80859L5.74023 23.4385C5.38867 23.8779 4.9362 24.0977 4.38281 24.0977C3.76107 24.0977 3.26139 23.8535 2.88379 23.3652C2.50944 22.8737 2.32227 22.1917 2.32227 21.3193ZM3.7334 21.4219C3.7334 21.9167 3.81966 22.2959 3.99219 22.5596C4.16471 22.8232 4.41536 22.9551 4.74414 22.9551C5.18034 22.9551 5.48796 22.7712 5.66699 22.4033V20.3184C5.49121 19.9505 5.18685 19.7666 4.75391 19.7666C4.07357 19.7666 3.7334 20.3184 3.7334 21.4219ZM8.45703 21.3096C8.45703 20.7855 8.55794 20.3184 8.75977 19.9082C8.96159 19.498 9.2513 19.1807 9.62891 18.9561C10.0098 18.7314 10.4508 18.6191 10.9521 18.6191C11.665 18.6191 12.2461 18.8372 12.6953 19.2734C13.1478 19.7096 13.4001 20.3021 13.4521 21.0508L13.4619 21.4121C13.4619 22.2227 13.2357 22.8737 12.7832 23.3652C12.3307 23.8535 11.7236 24.0977 10.9619 24.0977C10.2002 24.0977 9.59147 23.8535 9.13574 23.3652C8.68327 22.877 8.45703 22.2129 8.45703 21.373V21.3096ZM9.86816 21.4121C9.86816 21.9134 9.96257 22.2975 10.1514 22.5645C10.3402 22.8281 10.6104 22.96 10.9619 22.96C11.3037 22.96 11.5706 22.8298 11.7627 22.5693C11.9548 22.3057 12.0508 21.8857 12.0508 21.3096C12.0508 20.818 11.9548 20.4372 11.7627 20.167C11.5706 19.8968 11.3005 19.7617 10.9521 19.7617C10.6071 19.7617 10.3402 19.8968 10.1514 20.167C9.96257 20.4339 9.86816 20.849 9.86816 21.4121ZM17.0283 22.96C17.2887 22.96 17.5003 22.8883 17.6631 22.7451C17.8258 22.6019 17.9105 22.4115 17.917 22.1738H19.2402C19.237 22.5319 19.1393 22.8607 18.9473 23.1602C18.7552 23.4564 18.4915 23.6875 18.1562 23.8535C17.8242 24.0163 17.4564 24.0977 17.0527 24.0977C16.2975 24.0977 15.7018 23.8584 15.2656 23.3799C14.8294 22.8981 14.6113 22.234 14.6113 21.3877V21.2949C14.6113 20.4811 14.8278 19.8317 15.2607 19.3467C15.6937 18.8617 16.2878 18.6191 17.043 18.6191C17.7038 18.6191 18.2327 18.8079 18.6299 19.1855C19.0303 19.5599 19.2337 20.0596 19.2402 20.6846H17.917C17.9105 20.4111 17.8258 20.1898 17.6631 20.0205C17.5003 19.848 17.2855 19.7617 17.0186 19.7617C16.6898 19.7617 16.4408 19.8822 16.2715 20.123C16.1055 20.3607 16.0225 20.748 16.0225 21.2852V21.4316C16.0225 21.9753 16.1055 22.3659 16.2715 22.6035C16.4375 22.8411 16.6898 22.96 17.0283 22.96Z" fill="white"/>
</svg>
