<svg width="15" height="17" viewBox="0 0 15 17" fill="none" xmlns="http://www.w3.org/2000/svg">
<path d="M12.9817 2.08073C11.0499 0.125432 7.90401 0.125432 5.97422 2.08073L0.621684 7.49414C0.58682 7.52942 0.568363 7.57716 0.568363 7.62698C0.568363 7.6768 0.58682 7.72454 0.621684 7.75983L1.37842 8.52576C1.41301 8.56061 1.45984 8.58018 1.50865 8.58018C1.55746 8.58018 1.60428 8.56061 1.63887 8.52576L6.99141 3.11235C7.65586 2.43983 8.53975 2.07036 9.47901 2.07036C10.4183 2.07036 11.3022 2.43983 11.9646 3.11235C12.629 3.78488 12.994 4.6795 12.994 5.62809C12.994 6.57876 12.629 7.4713 11.9646 8.14383L6.50948 13.6631L5.62559 14.5577C4.79912 15.3942 3.45586 15.3942 2.6294 14.5577C2.2295 14.153 2.01006 13.6154 2.01006 13.0425C2.01006 12.4696 2.2295 11.932 2.6294 11.5272L8.04141 6.05153C8.17881 5.91454 8.35928 5.83773 8.55205 5.83773H8.5541C8.74688 5.83773 8.92529 5.91454 9.06065 6.05153C9.19805 6.1906 9.27188 6.37326 9.27188 6.56838C9.27188 6.76142 9.196 6.94408 9.06065 7.08107L4.63711 11.5542C4.60225 11.5895 4.58379 11.6372 4.58379 11.687C4.58379 11.7368 4.60225 11.7846 4.63711 11.8199L5.39385 12.5858C5.42844 12.6207 5.47526 12.6402 5.52408 12.6402C5.57289 12.6402 5.61971 12.6207 5.6543 12.5858L10.0758 8.11062C10.4839 7.69755 10.7074 7.14957 10.7074 6.5663C10.7074 5.98303 10.4818 5.43297 10.0758 5.02199C9.23291 4.16888 7.86299 4.17095 7.02012 5.02199L6.49512 5.55544L1.61016 10.4977C1.27861 10.8313 1.0158 11.2282 0.836965 11.6654C0.65813 12.1026 0.566831 12.5714 0.568363 13.0445C0.568363 14.0056 0.939554 14.9085 1.61016 15.5873C2.30537 16.2888 3.21592 16.6396 4.12647 16.6396C5.03701 16.6396 5.94756 16.2888 6.64073 15.5873L12.9817 9.17337C13.9148 8.22686 14.4316 6.96691 14.4316 5.62809C14.4337 4.28719 13.9169 3.02725 12.9817 2.08073Z" fill="#006BCA"/>
</svg>
