<svg width="31" height="32" viewBox="0 0 31 32" fill="none" xmlns="http://www.w3.org/2000/svg">
<circle cx="15.5" cy="16.0986" r="15.5" fill="#C4C4C4"/>
<circle cx="15.5" cy="16.0986" r="15.5" fill="url(#paint0_radial)"/>
<path d="M19.2606 6.30615H11.7394C8.40665 6.30615 5.70239 9.01041 5.70239 12.3432V19.8591C5.70239 23.1919 8.40137 25.8909 11.7394 25.8909H19.2554C22.5881 25.8909 25.2871 23.1919 25.2871 19.8591V12.3432C25.2924 9.00513 22.5934 6.30615 19.2606 6.30615ZM23.4121 19.1355C23.4121 21.8292 21.2307 24.0106 18.537 24.0106H12.463C9.76934 24.0106 7.58798 21.8292 7.58798 19.1355V13.0615C7.58798 10.3678 9.76934 8.18645 12.463 8.18645H18.537C21.2307 8.18645 23.4121 10.3731 23.4121 13.0615V19.1355Z" fill="white"/>
<path d="M15.7642 10.9756C12.912 10.9756 10.6039 13.2837 10.6039 16.1359C10.6039 18.9827 12.912 21.2961 15.7642 21.2961C18.611 21.2961 20.9244 18.988 20.9244 16.1359C20.9191 13.2837 18.611 10.9756 15.7642 10.9756ZM15.7642 19.2362C14.0476 19.2362 12.6585 17.8471 12.6585 16.1306C12.6585 14.414 14.0476 13.0249 15.7642 13.0249C17.4754 13.0249 18.8698 14.414 18.8698 16.1306C18.8645 17.8471 17.4754 19.2362 15.7642 19.2362Z" fill="white"/>
<path d="M21.8751 10.8962C21.8751 11.6198 21.2888 12.2061 20.5652 12.2061C19.8416 12.2061 19.2554 11.6198 19.2554 10.8962C19.2554 10.1726 19.8416 9.58105 20.5652 9.58105C21.2888 9.58105 21.8751 10.1673 21.8751 10.8962Z" fill="white"/>
<defs>
<radialGradient id="paint0_radial" cx="0" cy="0" r="1" gradientUnits="userSpaceOnUse" gradientTransform="translate(9.08012 33.9987) scale(41.0796 41.0785)">
<stop offset="0.0969388" stop-color="#FFD87A"/>
<stop offset="0.1426" stop-color="#FCCE78"/>
<stop offset="0.2263" stop-color="#F5B471"/>
<stop offset="0.3378" stop-color="#EB8D65"/>
<stop offset="0.449" stop-color="#E36058"/>
<stop offset="0.6786" stop-color="#CD3694"/>
<stop offset="1" stop-color="#6668B0"/>
</radialGradient>
</defs>
</svg>
