<svg width="23" height="31" viewBox="0 0 23 31" fill="none" xmlns="http://www.w3.org/2000/svg">
<path fill-rule="evenodd" clip-rule="evenodd" d="M0 4.99995C0 4.02749 0.386308 3.09486 1.07394 2.40722C1.76157 1.71959 2.69421 1.33328 3.66667 1.33328H12.0743C13.0467 1.33349 13.9792 1.71993 14.6667 2.40762L20.9257 8.66661C21.6133 9.35409 21.9998 10.2866 22 11.2589V26.9999C22 27.9724 21.6137 28.905 20.9261 29.5927C20.2384 30.2803 19.3058 30.6666 18.3333 30.6666H3.66667C2.69421 30.6666 1.76157 30.2803 1.07394 29.5927C0.386308 28.905 0 27.9724 0 26.9999V4.99995Z" fill="black"/>
<path d="M14 1V9H22" stroke="white" stroke-width="2" stroke-linecap="round" stroke-linejoin="round"/>
<path d="M5.23975 18.1885V24.3169C5.23975 24.9578 5.06966 25.4556 4.72949 25.8101C4.38932 26.1681 3.89876 26.3472 3.25781 26.3472C2.98926 26.3472 2.73324 26.3167 2.48975 26.2559V25.0259C2.67594 25.0581 2.83887 25.0742 2.97852 25.0742C3.44759 25.0742 3.68213 24.8254 3.68213 24.3276V18.1885H5.23975ZM3.55859 16.6846C3.55859 16.4518 3.63558 16.2603 3.78955 16.1099C3.9471 15.9595 4.16016 15.8843 4.42871 15.8843C4.69727 15.8843 4.90853 15.9595 5.0625 16.1099C5.22005 16.2603 5.29883 16.4518 5.29883 16.6846C5.29883 16.9209 5.21826 17.1143 5.05713 17.2646C4.89958 17.415 4.6901 17.4902 4.42871 17.4902C4.16732 17.4902 3.95605 17.415 3.79492 17.2646C3.63737 17.1143 3.55859 16.9209 3.55859 16.6846ZM12.2351 21.1479C12.2351 22.0431 12.031 22.7611 11.6228 23.3018C11.2181 23.8389 10.6703 24.1074 9.9792 24.1074C9.39196 24.1074 8.91751 23.9033 8.55586 23.4951V26.2344H7.00361V18.1885H8.44307L8.49678 18.7578C8.87275 18.3066 9.36331 18.0811 9.96846 18.0811C10.6846 18.0811 11.2414 18.346 11.6389 18.876C12.0363 19.4059 12.2351 20.1364 12.2351 21.0674V21.1479ZM10.6828 21.0352C10.6828 20.4945 10.5861 20.0773 10.3928 19.7837C10.203 19.4901 9.92549 19.3433 9.56025 19.3433C9.07327 19.3433 8.73848 19.5295 8.55586 19.9019V22.2812C8.74564 22.6644 9.08402 22.856 9.571 22.856C10.3122 22.856 10.6828 22.249 10.6828 21.0352ZM13.5263 21.0513C13.5263 20.1597 13.7375 19.4417 14.1601 18.8975C14.5862 18.3532 15.1591 18.0811 15.8788 18.0811C16.5162 18.0811 17.0121 18.2995 17.3666 18.7363L17.4311 18.1885H18.8383V23.8066C18.8383 24.3151 18.7219 24.7573 18.4892 25.1333C18.26 25.5093 17.9359 25.7957 17.517 25.9927C17.098 26.1896 16.6075 26.2881 16.0453 26.2881C15.6192 26.2881 15.2038 26.2021 14.7992 26.0303C14.3946 25.862 14.0884 25.6436 13.8808 25.375L14.5683 24.4297C14.955 24.863 15.4241 25.0796 15.9755 25.0796C16.3873 25.0796 16.7077 24.9686 16.9369 24.7466C17.1661 24.5282 17.2807 24.2166 17.2807 23.812V23.5005C16.9226 23.9051 16.4517 24.1074 15.8681 24.1074C15.1698 24.1074 14.6041 23.8353 14.1708 23.291C13.7411 22.7432 13.5263 22.0181 13.5263 21.1157V21.0513ZM15.0785 21.1641C15.0785 21.6904 15.1841 22.104 15.3954 22.4048C15.6067 22.702 15.8967 22.8506 16.2655 22.8506C16.7382 22.8506 17.0766 22.6733 17.2807 22.3188V19.875C17.073 19.5205 16.7382 19.3433 16.2763 19.3433C15.9039 19.3433 15.6103 19.4954 15.3954 19.7998C15.1841 20.1042 15.0785 20.5589 15.0785 21.1641Z" fill="white"/>
</svg>
