<svg width="89" height="89" viewBox="0 0 89 89" fill="none" xmlns="http://www.w3.org/2000/svg">
<g clip-path="url(#clip0)">
<path fill-rule="evenodd" clip-rule="evenodd" d="M64.4526 64.1466C64.4032 63.9598 64.4128 63.7774 64.3452 63.5949C64.1306 62.981 64.136 62.7921 64.0705 62.6097C64.0458 62.541 63.9943 62.4465 63.9814 62.4143L63.9642 62.3735L63.9352 62.2834C63.9352 62.2641 63.9181 62.205 63.9138 62.1857C63.8719 62.0076 63.8129 61.838 63.7828 61.6867L63.2623 59.7859C63.2065 59.5004 63.1432 59.5219 63.0874 59.3298C62.9951 59.0078 62.9618 58.6504 62.8598 58.3424C62.745 57.9925 62.7525 57.6791 62.6452 57.3453L62.3833 56.3987C62.3007 56.0209 62.1837 55.7988 62.1139 55.4038C62.1007 55.3098 62.0747 55.2181 62.0366 55.1312C61.939 54.9037 61.9937 55.0861 61.9422 54.938C61.8907 54.7899 61.8757 54.616 61.8349 54.4765L61.632 53.7563C61.5365 53.5299 61.544 53.2605 61.4571 53.0051C61.3934 52.8746 61.3382 52.7402 61.2918 52.6026C61.2467 52.3965 61.2553 52.271 61.1748 52.0821C61.0138 51.7043 60.9226 51.0753 60.7638 50.7072C60.6382 50.4174 60.665 50.0836 60.5126 49.7542L60.4246 49.4976C60.3527 49.1059 60.328 49.136 60.2185 48.8344L59.844 47.3114C59.8251 46.9728 59.7508 46.6396 59.624 46.3251C59.4726 45.9849 59.508 45.6135 59.3417 45.2797L59.3031 45.2035C59.1786 44.8816 59.1657 44.5005 59.0594 44.1754C59.0594 44.1657 58.9918 44.0219 58.9746 43.9779C58.8834 43.7439 58.9038 43.6698 58.8576 43.4573C58.7997 43.1955 58.76 43.2835 58.6859 43.0581C58.6269 42.8767 58.6344 42.7039 58.5915 42.5215L58.4756 42.2327C58.4702 42.2209 58.4616 42.207 58.4562 42.1952C58.321 41.8732 58.3006 41.4353 58.1933 41.1219L57.3776 38.2574C57.368 38.2027 57.3648 38.1501 57.3529 38.105C57.3529 38.0889 57.3454 38.0739 57.3411 38.0578L56.9709 36.8343C56.9408 36.6765 56.9258 36.4972 56.9011 36.3255C56.8131 35.7052 56.4825 35.0215 56.3827 34.4237C56.2926 33.8871 56.0747 33.4825 55.991 32.9727C55.9856 32.8764 55.9607 32.7822 55.918 32.6958L55.7152 31.9767C55.6711 31.8296 55.5799 31.718 55.5456 31.5774C55.4447 31.1578 55.3803 30.7188 55.2236 30.3464C55.1949 30.2728 55.1733 30.1966 55.1592 30.1189C55.0766 29.7228 54.9027 28.9887 54.761 28.6753C54.6193 28.3619 54.5743 27.924 54.4712 27.5763C54.4197 27.4024 54.4712 27.5591 54.4219 27.454C54.3221 27.2243 54.3317 26.9946 54.2587 26.7542C54.1643 26.4408 54.029 26.1607 53.9872 25.8269C53.867 24.8685 53.8133 25.2366 53.7479 24.7933C53.6985 24.4574 53.5955 24.3973 53.5246 24.0989C53.3561 23.3874 53.1919 22.6425 52.9354 21.9814C52.8452 21.7485 52.8667 21.4813 52.7572 21.2366C52.6617 21.0219 52.725 21.2366 52.6714 21.0369C52.6177 20.8373 52.6005 20.715 52.5426 20.5314L52.182 19.104C52.0929 18.8614 52.1659 19.1276 52.0746 18.8732C51.9394 18.5148 51.9072 18.0447 51.7602 17.6927C51.6657 17.463 51.7076 17.3846 51.6604 17.156C51.597 16.8544 51.5391 17.0111 51.4682 16.7267C51.4285 16.5647 51.4221 16.3994 51.3759 16.2362C51.3148 16.0216 51.2579 15.9754 51.2128 15.7651L49.8852 10.7562C49.7274 10.4342 49.6899 9.87288 49.5632 9.52085L49.1586 8.08161C49.0116 7.41834 48.9278 7.40868 48.7776 6.67886C48.7218 6.40625 48.6703 6.49641 48.6005 6.2238C48.5522 6.03276 48.564 5.91041 48.5114 5.73117C48.4363 5.47466 48.3901 5.53477 48.3322 5.28255C48.2946 5.11405 48.2678 4.96916 48.2249 4.81461C48.1981 4.72031 48.1784 4.62418 48.1658 4.52698L48.0091 3.82828C47.9361 3.31741 47.7054 3.13174 47.8149 2.90099C47.9222 3.05124 47.9437 3.16501 47.9769 3.38395L48.095 3.90663C48.2914 4.44326 48.3751 5.2804 48.6627 5.81596C48.8151 6.0993 48.7529 5.95226 48.8098 6.30644C48.8357 6.45346 48.888 6.59456 48.9643 6.72287C49.0985 7.02445 49.1167 7.40975 49.238 7.71992L49.4355 8.44115L49.4924 8.55814C49.721 9.00784 49.8616 10.0607 50.1041 10.5362C50.1827 10.6899 50.2302 10.8577 50.2437 11.0299C50.293 11.3111 50.3939 11.3679 50.4583 11.6159C50.4658 11.647 50.4808 11.7371 50.4851 11.7618L50.6612 12.4605C50.6976 12.5807 50.805 12.7288 50.8436 12.9048C50.8691 13.0733 50.9171 13.2375 50.9864 13.3932L51.2858 14.6553C51.3931 14.8936 51.4028 15.1265 51.5005 15.3572L51.8911 16.5217C51.9126 16.599 51.9212 16.6881 51.9394 16.7643C52.0467 17.2258 52.2024 17.5317 52.2367 17.7249L52.7422 19.4174C52.8603 19.6535 52.8324 19.8467 52.9214 20.0978C53.0105 20.349 52.9547 20.1268 53.0374 20.3189L53.5429 22.0705C53.6395 22.3367 53.6953 22.6779 53.8198 22.9409C54.0344 23.3884 53.9765 23.9304 54.2169 24.3898C54.3188 24.583 54.614 25.99 54.7803 26.3034C54.9016 26.531 54.8512 26.5599 54.9102 26.8046C54.98 27.0944 55.0175 26.956 55.0959 27.2522C55.1388 27.425 55.1388 27.5345 55.2032 27.7244L55.5102 28.6904C55.6046 29.0381 55.6765 29.2109 55.7742 29.6391C55.845 29.9504 55.8912 29.7464 55.9695 30.0684C56.0318 30.3206 55.9695 30.312 56.1058 30.575L56.167 30.6823C56.1886 30.7224 56.2028 30.766 56.2088 30.8111C56.2796 31.2087 56.3955 31.5969 56.5544 31.9681C56.6392 32.1699 56.5984 32.2901 56.6703 32.4854L56.9236 33.4385C56.9322 33.4964 56.9623 33.6767 56.9784 33.7282C57.0449 33.9429 56.9784 33.7465 57.0288 33.8506L57.3637 34.8949C57.4088 35.0516 57.4291 35.1986 57.4774 35.3585C57.5141 35.5244 57.5644 35.687 57.6277 35.8447C57.7106 35.9948 57.7604 36.161 57.7737 36.332C57.808 36.5466 57.7619 36.4286 57.8542 36.6035C57.9808 36.8428 57.9754 37.0328 58.0452 37.2732C58.1042 37.4782 58.1815 37.4879 58.2362 37.709C58.3532 38.1941 58.6215 39.1997 58.8169 39.6043C58.8952 39.7653 58.8748 39.9263 58.9403 40.1238C59.0058 40.3213 59.0637 40.347 59.1088 40.5864L59.2966 41.3183C59.4039 41.6178 59.4512 41.6339 59.5177 42.0181C59.5553 42.2327 59.625 42.3132 59.6894 42.4742C59.7968 42.7694 59.7882 43.2255 59.889 43.4938L60.0404 43.9714C60.0758 44.1517 60.1359 44.2838 60.1778 44.4684C60.1863 44.5165 60.1974 44.5641 60.211 44.6111L60.3291 44.888C60.3935 45.0651 60.4031 45.2304 60.4611 45.3946C60.5298 45.5899 60.5867 45.5749 60.6403 45.8453C60.6833 46.06 60.6693 46.1598 60.7552 46.3627C60.7809 46.4217 60.8443 46.5387 60.8496 46.5548C60.8765 46.6328 60.8956 46.7134 60.9065 46.7952L61.2199 47.7418C61.2897 47.9318 61.265 48.0895 61.3272 48.2698C61.4045 48.4909 61.4431 48.3772 61.5022 48.6659C61.5612 48.9546 61.5204 48.9009 61.6471 49.1563C61.8048 49.4783 61.8231 49.9506 61.9572 50.2929C62.3382 51.3388 62.6525 52.4078 62.8985 53.4934C62.9414 53.6995 63.082 54.3026 63.1582 54.4422C63.3138 54.7266 63.2537 54.5913 63.3117 54.9251C63.3578 55.1924 63.4255 55.1602 63.4931 55.377C63.5457 55.5433 63.5381 55.6989 63.6004 55.8986L64.0565 57.2831C64.1521 57.5256 64.1306 57.5589 64.1767 57.7972C64.2444 58.1503 64.2551 57.956 64.3495 58.2007C64.4193 58.3832 64.4 58.5227 64.4762 58.7073L64.9173 60.1025C64.9828 60.2743 64.987 60.4578 65.0525 60.6113C65.1277 60.7579 65.1822 60.9143 65.2146 61.076C65.2521 61.2659 65.3069 61.3711 65.3487 61.5793C65.3599 61.6587 65.3764 61.7372 65.3981 61.8144C65.4528 61.9743 65.3981 61.8026 65.4915 62.0065L65.7759 62.9885C65.8167 63.4275 65.9401 63.5842 65.954 64.0221L70.7226 63.3309C70.9523 63.2972 71.1838 63.2775 71.4159 63.2719C71.6391 63.2525 71.872 63.1849 72.0974 63.1495C72.9023 63.0207 73.689 63.0336 74.5133 62.864L74.787 62.776C75.051 62.6805 75.2088 62.7063 75.4986 62.6751C75.8817 62.6343 76.4248 62.5861 76.8219 62.5174C77.741 62.3543 78.6682 62.2411 79.5995 62.1782L82.2891 61.8122C82.8021 61.7253 83.9655 61.663 84.3691 61.5343C85.013 61.3293 85.6913 61.3529 86.3686 61.2295C86.6583 61.1769 87.4171 61.0953 87.7241 61.0781C87.4955 60.8066 87.3731 60.4943 87.1434 60.2088C87.0028 60.0338 86.4866 59.362 86.4126 59.1602C86.2462 58.7073 86.2848 58.9144 86.1228 58.645C86.0337 58.4959 86.1163 58.5377 85.9875 58.3767L85.0109 56.9911C84.953 56.9104 84.9013 56.8253 84.8563 56.7368C84.7232 56.4996 84.5258 56.3848 84.397 56.1637L84.1952 55.7945C84.1319 55.7214 84.0724 55.6451 84.017 55.5659L83.8936 55.4027C83.8861 55.392 83.8764 55.378 83.87 55.3673L82.9438 53.8744C82.9137 53.8304 82.8837 53.7789 82.8515 53.7349L80.9883 50.9916C80.705 50.6535 80.7543 50.7963 80.5525 50.3359C80.4055 49.9999 79.8496 49.1435 79.6124 48.9138L79.1219 48.1926C79.0146 48.0101 78.948 47.9242 78.8246 47.7418C78.7173 47.584 78.6099 47.3898 78.5144 47.2438C78.3846 47.041 78.2998 47.0291 78.1549 46.7952L78.1334 46.7598C77.9875 46.5258 77.7943 46.3154 77.6794 46.0664C77.5646 45.8174 77.4648 45.5298 77.2748 45.3152L76.589 44.3889C76.5171 44.2816 76.5085 44.229 76.4377 44.1346C76.2541 43.8899 76.0663 43.5239 75.8388 43.2931L74.6582 41.5373C74.5777 41.43 74.6807 41.621 74.5638 41.3978C74.3212 40.932 74.0218 40.5488 73.7277 40.1034L72.4591 38.2059C72.2316 37.7422 71.784 37.4932 71.6338 37.0199C71.5608 36.7902 71.6337 36.8976 71.5082 36.7366L70.0056 34.56C69.9981 34.5504 69.9884 34.5375 69.9809 34.5267L68.9291 32.9855C68.7295 32.7591 68.781 32.6636 68.5073 32.2579C68.4505 32.172 68.4311 32.1001 68.3592 32.0078L67.7486 31.1728C67.6026 31.0129 67.5736 30.8176 67.4019 30.605C67.3128 30.4977 67.286 30.4441 67.228 30.3679L65.9701 28.5744C65.9562 28.554 65.9133 28.4864 65.9047 28.4671L65.1684 27.3005C64.9269 26.9957 64.7735 26.5857 64.5062 26.2938L63.8333 25.3514C63.7968 25.2817 63.7914 25.2548 63.7539 25.1958C63.6938 25.1024 63.741 25.1744 63.6798 25.0992C63.6211 25.0418 63.5719 24.9755 63.5339 24.9028C63.2999 24.5186 63.1045 24.3479 62.8845 23.9369C62.6409 23.4947 62.2771 22.8196 61.9562 22.5019L61.3691 21.6433L61.3068 21.536C61.0886 21.1678 60.8371 20.8204 60.5556 20.4982C60.5261 20.4678 60.5005 20.4339 60.4793 20.3973L59.8687 19.4163C59.4952 18.5835 59.7613 19.2124 59.3471 18.5577L59.0691 18.1434L59.0154 18.0801L56.8206 14.753C56.8005 14.7148 56.7764 14.6788 56.7487 14.6457C56.4707 14.2754 56.0897 13.6057 55.8622 13.3449C55.8343 13.3152 55.8085 13.2836 55.7849 13.2504L54.9553 12.0698C54.8968 11.9898 54.8444 11.9055 54.7986 11.8176L54.6644 11.603C54.6164 11.5203 54.5622 11.4414 54.5024 11.3669C54.0795 10.8603 54.0902 10.6564 53.7822 10.2399C53.757 10.2063 53.7351 10.1704 53.7167 10.1326L51.9695 7.55679C51.8911 7.41619 51.9695 7.52674 51.8793 7.41512L50.0548 4.6987C50.0086 4.63537 49.9635 4.53556 49.9099 4.44648L49.2047 3.48055C49.194 3.46767 49.165 3.42796 49.1554 3.414L47.6872 1.13011C47.494 0.852132 47.3727 0.54196 47.1054 0.335894C47.0207 0.271499 47.1119 0.29511 47.0239 0.287598C46.8854 0.626748 46.9638 15.4828 46.9756 17.2301C46.3713 17.3524 45.6158 17.2086 45.0222 17.332C44.7003 17.3997 44.3547 17.3449 44.0252 17.3846C43.6957 17.4243 43.437 17.4555 43.0936 17.492C41.8969 17.6068 41.4032 17.8783 40.5811 18.0908C40.1518 18.1982 39.6152 18.3151 39.2417 18.5309L39.2052 18.5534C38.9454 18.7144 38.6546 18.7788 38.3305 18.8861C37.8142 19.0568 37.4278 19.3251 36.9352 19.5687L35.6935 20.4016C35.6666 20.4328 35.6347 20.4593 35.599 20.4799L35.0194 20.7675L33.6811 21.9052L33.6478 21.9288L33.2614 22.3485C33.1359 22.5341 33.0468 22.5105 32.859 22.693L32.6336 22.9838C32.4694 23.1835 32.5992 23.0246 32.4844 23.1234L31.7771 23.9723C31.6108 24.2481 31.3639 24.4016 31.2276 24.686L30.7565 25.4824C30.75 25.4931 30.7404 25.506 30.7339 25.5167L30.4999 25.9761L30.4796 26.0147L29.8742 27.4282C29.7669 27.6289 29.7669 27.8178 29.6746 28.0389C29.5673 28.2997 29.7068 27.9831 29.5845 28.1773L29.0832 30.7306C29.0682 30.9989 29.0349 30.9592 28.9985 31.1438C28.8375 31.9724 29.0575 34.0588 29.2775 34.9174C29.3344 35.1396 29.4235 35.4369 29.4922 35.732C29.5759 36.0647 29.563 35.8254 29.6628 36.0733C29.7304 36.2407 29.6939 36.3266 29.7572 36.5026L31.2598 39.497L31.2866 39.5281C31.2942 39.5378 31.307 39.5485 31.3156 39.5571C31.6451 39.9027 31.9091 40.3524 32.1818 40.698L32.2086 40.7291L33.1133 41.6124C33.3505 41.8356 33.2915 41.9419 33.709 42.2778L33.8689 42.4088L33.899 42.4356L34.7275 43.1579C35.0323 43.3962 35.379 43.5024 35.686 43.7568L35.716 43.7825L36.36 44.2312C36.7173 44.5081 37.1681 44.6851 37.5405 44.8955C38.0053 45.1563 38.544 45.2862 39.0184 45.4869C39.2127 45.5695 39.0936 45.5255 39.159 45.5749C39.335 45.709 39.6066 45.7767 39.8599 45.8561C40.3965 46.0235 40.8902 46.2339 41.4236 46.3573C42.2511 46.5494 44.2559 46.9089 44.9654 46.9089C45.5331 46.9089 46.411 46.8778 46.953 46.9444V64.1498" fill="#181617"/>
<path fill-rule="evenodd" clip-rule="evenodd" d="M45.2723 64.1401V48.3117C43.7333 48.2334 42.1105 48.0498 40.6573 47.6162C40.5221 47.5765 40.3943 47.5583 40.228 47.5164C40.0251 47.4649 39.9876 47.3962 39.8362 47.3404C39.2578 47.1258 38.5355 47.0345 38.0664 46.748C37.6565 46.4968 37.1585 46.4399 36.7313 46.1791L34.9068 45.1306L34.8692 45.1102L34.6717 44.9631L34.6105 44.9095L34.5783 44.8837L33.7594 44.3213L33.7305 44.2923L33.6682 44.2387C33.2722 43.9167 32.9234 43.5615 32.5037 43.2728C32.229 43.0839 31.8179 42.5826 31.5517 42.324L30.5579 41.1917L30.5322 41.1584L30.0245 40.3975L29.9773 40.3288L29.9043 40.2279C29.797 40.0841 29.8034 40.0412 29.7165 39.9059C29.6553 39.8072 29.695 39.8737 29.6167 39.7771L29.402 39.4723C29.1369 39.0699 28.9888 38.6867 28.7334 38.2499L28.3878 37.4932C28.3405 37.3615 28.3007 37.2271 28.2686 37.0908C28.2053 36.8761 28.1613 36.8944 28.1066 36.7441C28.054 36.6132 28.0508 36.4694 28.0046 36.3223C27.849 35.82 27.7363 35.702 27.6633 35.0505C27.6268 34.721 27.5034 34.4924 27.4573 34.1651C27.3499 33.4138 27.3499 30.6984 27.4573 29.9579L27.9939 27.8479C28.2085 27.1084 28.172 27.3767 28.2654 27.0783C28.3051 26.9517 28.3513 26.751 28.3878 26.6243C28.5144 26.1875 28.3878 26.5642 28.5659 26.2916L28.9008 25.5844C29.0489 25.2624 29.3838 24.6184 29.5737 24.4166C29.7057 24.2718 29.5995 24.4413 29.71 24.2675L30.3443 23.2854C30.6663 22.6812 30.8048 22.7048 31.0892 22.3667L31.1149 22.3345L32.5542 20.832L32.5853 20.8062C32.8139 20.6195 33.0393 20.5186 33.2293 20.2996C33.3098 20.2078 33.3969 20.1221 33.49 20.0431L33.7144 19.8628C33.9902 19.616 35.0194 18.8904 35.4187 18.7509L36.8247 17.9664L36.8569 17.9406L37.1155 17.7936C37.4611 17.639 37.9462 17.5199 38.2725 17.3417C39.0335 16.9264 39.5304 16.9489 39.8502 16.7879C40.3246 16.5486 41.9291 16.2159 42.397 16.1708C42.7501 16.1364 42.9444 16.0334 43.3007 15.9755C43.788 15.8971 44.74 15.8445 45.2755 15.8241V0.0236006C44.6541 -0.0246961 43.9565 0.0160877 43.2557 0.0236006L40.433 0.373483C39.803 0.480809 39.2062 0.480809 38.5741 0.636432L37.6822 0.851084C37.3742 0.950897 37.1198 0.929432 36.8097 1.01529C36.4995 1.10115 35.775 1.20419 35.5217 1.33727C35.1633 1.51758 34.6631 1.58734 34.2607 1.6893C33.5834 1.85995 33.7058 1.79663 33.0693 2.05099C32.9416 2.10143 32.7914 2.1229 32.6239 2.18515C32.2633 2.31823 31.8115 2.39014 31.4755 2.59191C31.1697 2.77544 30.6481 2.89242 30.3164 3.04805C30.1975 3.09518 30.0827 3.15189 29.973 3.21762L29.9397 3.24231C29.5383 3.49774 28.7301 3.61258 28.4371 3.81543C28.1441 4.01827 27.658 4.17604 27.3768 4.36494L26.677 4.76097C26.5911 4.80605 26.428 4.88117 26.3378 4.93806L24.9533 5.68934C24.852 5.76478 24.7443 5.83122 24.6314 5.88789L23.351 6.7465C22.9302 7.01374 22.6576 7.27562 22.399 7.40548C22.3446 7.42512 22.2936 7.45299 22.2476 7.48812L21.7894 7.82727C21.5328 8.00436 21.4395 8.17393 21.2012 8.33707L20.5959 8.82433C20.4947 8.9182 20.3871 9.00498 20.2739 9.08406L19.4067 9.75699C19.3531 9.7999 19.3022 9.84615 19.2543 9.89544L18.7177 10.3924L18.6844 10.417C18.6748 10.4246 18.6608 10.4342 18.6511 10.4428C18.561 10.5233 18.6308 10.4428 18.5653 10.5319C18.5503 10.5512 18.5342 10.5834 18.5213 10.6038C18.2358 11.0717 17.1776 11.8724 16.7525 12.4605L15.7201 13.5542C15.5698 13.7538 15.6009 13.859 15.3981 14.0908C15.1952 14.3226 14.9065 14.8045 14.6157 15.1008L13.9427 16.0302C13.8268 16.2202 13.9106 16.1729 13.7506 16.3651C13.6672 16.4565 13.5967 16.5591 13.5413 16.6699L12.7171 18.0329C12.6813 18.1759 12.6218 18.312 12.5411 18.4354L10.9945 21.6702C10.9408 21.8848 10.9204 21.8559 10.8346 22.0265L10.5577 22.8486C10.4906 22.9597 10.4366 23.0782 10.3967 23.2017C10.343 23.4228 10.3967 23.4239 10.2947 23.6214C10.2014 23.8017 10.1874 23.704 10.1445 23.9873C10.0651 24.524 9.89548 24.4971 9.74844 25.7239L9.64112 26.1875C9.58746 26.414 9.51769 26.8143 9.47691 27.0612C9.44578 27.2447 9.46725 27.3831 9.44042 27.5484L9.31592 27.9981C9.20859 28.582 9.26226 29.4202 9.11737 29.93C8.77607 31.1342 9.07551 34.6319 9.28265 35.9628C9.33095 36.2762 9.43505 36.4758 9.45545 36.8268C9.49708 37.2853 9.5837 37.7386 9.71409 38.1801C9.82786 38.6094 9.80103 39.1461 9.95665 39.5528C10.1466 40.0508 10.1069 40.1313 10.1885 40.3599C10.2819 40.6239 10.2572 40.3599 10.3495 40.7152L11.8939 44.5306C12.0012 44.771 11.9841 44.5821 12.1 44.8987C12.1998 45.1713 12.3769 45.3463 12.4906 45.6028C12.5883 45.825 12.3973 45.4321 12.5271 45.6833C12.7278 46.0697 12.6784 46.1394 12.789 46.3433C12.8888 46.528 12.8963 46.4507 12.9951 46.6546L14.738 49.1768C14.7694 49.2394 14.8053 49.2996 14.8454 49.3571L15.2081 49.796C15.3487 50.0311 15.5237 50.191 15.6245 50.4164C15.7533 50.7029 15.6353 50.5355 15.8714 50.7469L16.6152 51.5562C16.9307 51.8781 17.2817 52.3955 17.653 52.6541L18.5578 53.5911C18.5927 53.6516 18.6381 53.7054 18.6919 53.7499C18.8229 53.8744 18.8969 53.9034 19.0042 54.0086L19.7845 54.6676C19.982 54.806 19.9584 54.8768 20.1741 55.0271L21.0327 55.7311C21.4974 56.0735 21.5243 56.2324 22.0909 56.5146C22.1736 56.5554 22.0974 56.5093 22.1671 56.5554L22.8927 57.092C22.9345 57.1242 22.9764 57.1564 23.0204 57.1994C23.2855 57.4312 23.6397 57.5804 23.952 57.8294L23.982 57.8551C24.0302 57.9021 24.0835 57.9435 24.1409 57.9786C24.407 58.1492 24.5015 58.2458 24.8074 58.351L25.8356 58.9359C26.0695 59.0776 25.9279 59.0357 26.1296 59.1506C26.4881 59.3652 26.8723 59.4371 27.2104 59.6872C27.4233 59.852 27.659 59.985 27.9102 60.0821L29.4127 60.7175C29.9419 60.9322 30.3787 61.2026 30.9432 61.3765C31.1718 61.4463 31.1579 61.4903 31.3639 61.5836C32.1388 61.9367 34.8907 62.5861 35.3446 62.7932C35.672 62.9424 36.2623 63.0476 36.6326 63.1152C36.8043 63.1474 36.8891 63.1839 37.0393 63.2225C37.2261 63.2676 37.3892 63.2601 37.5491 63.2966C37.884 63.3728 37.6565 63.3771 37.9258 63.4329C38.074 63.4629 38.2285 63.4618 38.3938 63.4973C39.3136 63.6937 40.6133 63.7956 41.1907 63.9212C41.4375 63.9749 41.298 63.9995 41.5996 64.021L43.1558 64.0961C43.8406 64.1552 44.5929 64.1444 45.2938 64.1444" fill="#296BA5"/>
<path fill-rule="evenodd" clip-rule="evenodd" d="M0.0418457 73.4818C19.1803 73.3659 38.4357 73.4818 57.5987 73.4818C59.0841 73.4818 64.8433 73.5591 66.0775 73.3681L67.3311 73.1738C67.9611 72.9849 70.758 72.7939 71.4385 72.5642L74.8997 72.1102C75.7723 71.9878 75.2507 71.9696 76.1329 71.8955C76.9679 71.8204 77.8373 71.6541 78.6819 71.5736C79.1316 71.5317 79.5673 71.5253 80.0042 71.4544C80.2079 71.4203 80.4087 71.3711 80.6052 71.3074C80.7909 71.2537 81.0442 71.2634 81.2277 71.2323L84.5956 70.7922C85.3801 70.6269 85.7966 70.6216 86.2752 70.5228C87.0265 70.3683 87.986 70.3007 88.7684 70.2084V63.434C87.9721 63.4576 86.9611 63.6186 86.1851 63.7506C85.4649 63.8729 85.5884 63.7785 84.5967 63.9963C84.3573 64.0489 84.0257 63.9835 83.6232 64.0575C82.8118 64.2056 81.906 64.2507 81.0549 64.3795C80.6331 64.446 80.2081 64.4235 79.8035 64.562C79.3098 64.7315 75.3301 65.0696 74.7495 65.2639C74.4801 65.354 73.834 65.3798 73.483 65.4388C72.8155 65.5526 71.4342 65.6095 70.9501 65.7844C70.6786 65.8831 66.2213 66.2684 65.8596 66.394C65.7614 66.4428 65.6553 66.4737 65.5463 66.4852C65.4389 66.497 65.3316 66.4906 65.2168 66.5013C65.0021 66.5207 64.8121 66.5732 64.62 66.6001C64.2208 66.6559 63.6079 66.6205 63.1862 66.6205C42.1363 66.6205 21.066 66.672 0.0225343 66.6205C0.012875 66.7031 0.00536631 66.9178 0 67.2236V72.4075C0.00965936 73.0021 0.0236002 73.4153 0.0418457 73.4807" fill="#181617"/>
<path fill-rule="evenodd" clip-rule="evenodd" d="M0.0268192 64.1498L34.5655 64.1348C34.368 64.0199 33.9752 64.0178 33.7938 63.9201C33.2572 63.6368 31.0323 63.1066 30.574 62.8093C30.1157 62.512 29.4514 62.3703 28.9255 62.1546C28.4404 61.955 27.7835 61.7403 27.4004 61.4398C27.1417 61.237 26.8144 61.1876 26.5257 61.0406L25.7561 60.6048C25.6005 60.52 25.4567 60.446 25.3461 60.3816L25.198 60.2957L25.1605 60.2764L25.1218 60.2571C25.036 60.2174 25.0145 60.2163 24.9158 60.1777L24.7247 60.0843L24.6882 60.0639L23.9638 59.5734C23.3005 59.2514 23.1138 58.9874 22.6566 58.7524L22.1768 58.4207C22.1629 58.4111 22.1199 58.3864 22.1049 58.3778L20.8438 57.5074C20.7146 57.4314 20.5953 57.3399 20.4886 57.2348C20.4341 57.1737 20.3753 57.1167 20.3125 57.0641L19.8231 56.6874C19.5913 56.4524 19.2146 56.2828 18.9152 55.9844L18.2261 55.3491L18.1993 55.3179L16.8566 54.0687L16.8255 54.0418L16.7944 54.015L16.7643 53.9882L16.2513 53.4612C16.1923 53.4032 16.232 53.4494 16.1622 53.3775L14.8056 51.8577L14.7799 51.8266L14.7552 51.7933L13.9524 50.8124C13.6422 50.5258 13.4072 50.0954 13.155 49.7617L12.2663 48.404L12.2395 48.3729L12.2126 48.3428C12.0194 48.0938 11.9808 47.8394 11.749 47.6162C11.6052 47.6634 11.529 47.8674 11.4174 48.0155L11.0803 48.4255C11.0728 48.4351 11.06 48.4469 11.0524 48.4566C11.024 48.4885 11.0008 48.5247 10.9837 48.5639C10.8517 48.7925 10.6618 48.9621 10.4911 49.1606L9.43932 50.7555C9.0347 51.1794 9.05617 51.2428 8.86621 51.451L8.42187 52.0434C8.25444 52.2345 8.20722 52.389 8.06877 52.5521C7.93032 52.7153 7.96788 52.6122 7.8305 52.7754C7.79305 52.8185 7.76164 52.8665 7.73713 52.9181L7.7146 52.9546L7.46989 53.282C7.35612 53.4215 7.38081 53.3378 7.28422 53.4966C7.20158 53.6318 7.2123 53.6876 7.12644 53.7971L6.29788 54.9251C6.22919 55.0153 6.24744 54.9777 6.21417 55.0142C6.10684 55.1301 6.23456 54.9509 6.10684 55.1419C6.10684 55.1494 6.05962 55.2278 6.04352 55.2546L5.46181 56.0531L5.44035 56.0896C5.26433 56.3547 5.06471 56.4642 4.91767 56.7175L2.14329 60.4492C1.95225 60.7197 1.84385 60.945 1.61846 61.1897L1.3759 61.5332L1.35337 61.5675L1.32975 61.6008L0.752332 62.4025C0.677443 62.4828 0.609591 62.5693 0.549497 62.6612C0.518373 62.7073 0.480809 62.761 0.456124 62.7975L0.0954965 63.2407C0.0289542 63.3191 0.0751118 63.2794 0.022522 63.3266V64.6714" fill="#181617"/>
<path fill-rule="evenodd" clip-rule="evenodd" d="M63.8526 82.524C63.96 82.875 63.96 82.9726 64.0898 83.2667C64.1617 83.4277 64.1424 83.5415 64.1832 83.7261C64.2008 83.7965 64.2219 83.866 64.2465 83.9343L64.7585 85.658C64.8325 86.2193 64.9023 85.7224 64.9731 86.4747C65.0028 86.7552 65.0752 87.0296 65.1878 87.2883L65.6235 88.8724C67.6423 88.8724 67.5554 89.1085 67.7239 88.0953C67.7486 87.9429 67.7743 87.7573 67.8044 87.6263C67.8591 87.3805 67.8484 87.5426 67.9471 87.2829C68.0233 87.0822 67.989 87.0146 68.0341 86.8225C68.1049 86.5252 68.1038 86.7366 68.1875 86.4908C68.2713 86.245 68.1961 86.2182 68.34 85.9284C68.5707 85.4637 68.4881 85.0838 68.6973 84.6588C68.8873 84.2735 68.7789 84.3561 68.8658 84.0599C68.9431 83.7958 68.9367 83.9965 69.0075 83.6595C69.1749 82.8675 69.0912 83.1057 69.3735 82.5272V88.8735H71.1701V80.6844H68.6115C68.1961 80.6844 68.2895 80.6963 68.2219 80.8004C67.9729 81.1782 68.0072 81.5431 67.8731 81.8661C67.7293 82.2053 67.7765 82.2117 67.7003 82.626C67.6284 83.0188 67.5157 83.0692 67.4695 83.3193C67.4008 83.695 67.4695 83.5082 67.3139 83.8678L66.9189 85.1117C66.8846 85.2383 66.8846 85.3489 66.8503 85.4798C66.7794 85.7513 66.7816 85.5775 66.7022 85.8179L66.6131 86.1238C66.6131 86.1162 66.6034 86.1517 66.5959 86.1645C66.5068 86.0304 66.4682 86.0207 66.4317 85.8243C66.2675 84.9442 66.2246 85.1181 66.1365 84.8144C66.0904 84.6555 66.1119 84.5901 66.0636 84.4473C66.0206 84.3217 65.9434 84.2327 65.9187 84.1586L65.2962 82.1119C65.1888 81.4679 64.9645 81.4314 64.9624 80.6855H62.0217V88.8681H63.8172" fill="#181617"/>
<path fill-rule="evenodd" clip-rule="evenodd" d="M11.7146 88.8712C11.7565 88.8683 11.7973 88.8566 11.8342 88.8368C11.8712 88.817 11.9036 88.7896 11.9293 88.7564C12.0366 88.6212 11.9486 88.4967 12.38 88.0116L13.6905 86.2192C14.0028 85.8822 13.9051 85.9445 14.1595 85.5978L14.182 85.5656L14.2046 85.5334C14.2647 85.454 14.3119 85.4143 14.3538 85.3595C14.3624 85.3488 14.4471 85.2029 14.4547 85.1868C14.6156 84.8777 14.5555 85.0644 14.6811 84.8648C14.8807 84.5525 14.5888 84.8648 15.0922 84.2359C15.3068 83.9665 15.3766 83.7894 15.6288 83.5404L15.6363 88.868L17.4791 88.8605V80.6995C17.1807 80.6845 15.7168 80.6469 15.5472 80.7231L15.4227 80.824L15.3948 80.8519C15.2893 80.9481 15.1992 81.0599 15.1276 81.1835L14.8056 81.6214C14.6114 81.9938 14.8958 81.572 14.5319 82.113L14.3935 82.4038C14.3735 82.4377 14.3481 82.4682 14.3184 82.494L13.0541 84.2283C12.9929 84.3099 12.9897 84.2981 12.9253 84.3743L12.6902 84.6845L12.6666 84.7145L12.0935 85.4948L12.0334 85.6021C11.9679 85.7524 12.0119 85.7695 11.9078 85.9241C11.9078 85.9316 11.837 86.0067 11.8338 86.0099C11.7944 86.049 11.7585 86.0914 11.7264 86.1366V80.692L9.86969 80.7059V88.8745" fill="#181617"/>
<path fill-rule="evenodd" clip-rule="evenodd" d="M21.3204 85.3509C22.1703 85.3032 23.0223 85.3089 23.8715 85.3681C24.992 85.454 25.0392 85.6278 25.2399 85.9155C25.5737 86.3931 25.315 86.9319 24.9791 87.1594C24.9472 87.1831 24.9134 87.2043 24.8782 87.2227C24.5625 87.3814 24.2129 87.4606 23.8597 87.4535C23.1567 87.4674 21.974 87.5146 21.3139 87.4374L21.3204 85.3509ZM21.3204 82.0185H26.5289V80.6833H19.4379V88.8669C20.9898 88.8669 22.6491 88.9238 24.187 88.8594C25.2753 88.8143 25.3955 88.8111 26.1189 88.4065C26.6121 88.1279 27.0049 87.7009 27.2415 87.1862C27.3628 86.9361 27.3489 85.8307 27.2415 85.6053C27.0576 85.2593 26.8315 84.9374 26.5686 84.6469C26.5611 84.6383 26.5514 84.6254 26.5428 84.6179C26.5342 84.6104 26.5235 84.5975 26.516 84.59L26.4859 84.5642L25.7132 84.1897C25.5577 84.1278 25.3931 84.0916 25.2259 84.0824C24.9297 84.0437 25.0113 84.0072 24.7473 83.9579C24.1441 83.8505 22.2036 84.0072 21.3236 83.9053" fill="#181617"/>
<path fill-rule="evenodd" clip-rule="evenodd" d="M75.0317 82.0175H80.0546V80.6845C77.9714 80.6383 75.2882 80.6845 73.1385 80.6845V88.8724H80.2725V87.4557H75.0221L75.0489 85.2394H79.6833V83.8495H75.021L75.0264 82.0175" fill="#181617"/>
<path fill-rule="evenodd" clip-rule="evenodd" d="M55.1689 82.0196L60.2658 81.9895L60.2454 80.6833L53.2821 80.6866V88.8702L60.4171 88.8712V87.4545H55.1582L55.1796 85.2383L59.8515 85.2404L59.8472 83.8505L55.1614 83.8527" fill="#181617"/>
<path fill-rule="evenodd" clip-rule="evenodd" d="M43.1977 88.8627C43.8932 88.8981 45.0491 89.0259 45.5524 88.7264L45.8251 88.5118C46.0944 88.3164 46.0848 88.2971 46.2747 87.9859C46.6547 87.3655 46.4669 83.0661 46.5162 82.0153L49.384 82.0239V88.8692H51.2643V80.6813L44.6101 80.6942C44.6101 81.8683 44.7368 86.7269 44.4974 87.4063C43.7365 87.6564 44.1315 87.6038 43.1859 87.5995" fill="#181617"/>
<path fill-rule="evenodd" clip-rule="evenodd" d="M6.38377 85.9917C6.36768 86.0325 6.35694 86.07 6.33977 86.1108C6.31294 86.1795 6.28503 86.2353 6.25927 86.2987L6.06394 86.6485C5.98391 86.7972 5.88187 86.9329 5.76128 87.051C5.66468 87.1336 5.82461 87.0059 5.70011 87.1004L5.5359 87.2077C5.08835 87.4986 4.19109 87.769 3.5729 87.4814C3.50957 87.4524 3.43981 87.4224 3.384 87.3966C3.08134 87.256 2.85918 87.1476 2.63272 86.8986C2.37084 86.6142 2.24635 86.3083 2.08751 85.9756C1.85246 85.484 1.94905 83.7293 2.25708 83.0488C2.35315 82.8486 2.49779 82.6755 2.6778 82.5455L3.04056 82.2503C3.39688 81.9584 3.92708 81.8918 4.42185 81.9058C5.24826 81.9294 5.33198 82.0818 5.86325 82.4703C6.21957 82.7311 6.15839 82.8331 6.38485 83.1937C6.70568 83.1749 7.02464 83.1318 7.33898 83.0649C7.62554 83.007 7.87561 82.9576 8.2051 82.8975C8.21269 82.7776 8.18267 82.6583 8.11923 82.5562L7.58905 81.6697L6.78625 81.0032C6.4793 80.8379 6.03497 80.7327 5.71299 80.6597C5.44467 80.6007 5.22036 80.4923 4.97458 80.4762C4.49376 80.4451 3.75535 80.4687 3.59865 80.5256L2.50286 80.8476C2.26245 80.9195 2.02955 80.9549 1.83314 81.1019L0.788861 82.1827C0.779569 82.2085 0.767695 82.2333 0.753435 82.2568C0.617131 82.4972 0.413214 82.6463 0.341306 82.9318C0.323641 83.0488 0.289311 83.1627 0.239351 83.2699C-0.0751144 83.9418 0.0397157 85.0472 0.109478 85.7728C0.140602 86.1012 0.441117 86.8331 0.620351 87.1186C0.737337 87.3043 0.705142 87.1455 0.824274 87.403C0.985263 87.7486 1.22783 87.8839 1.52834 88.1178C1.70915 88.2524 1.9021 88.3699 2.10468 88.4688L2.73146 88.7607C3.56753 88.9958 4.42615 88.9925 5.29763 88.9206C5.85466 88.8755 6.17449 88.6716 6.64136 88.414L7.22199 88.0116C7.31245 87.9419 7.39521 87.8627 7.46884 87.7755C7.73034 87.4758 7.94295 87.1368 8.09885 86.7709L8.25661 86.2546C7.93483 86.2382 7.61624 86.1827 7.30785 86.0894L6.43959 85.8747" fill="#181617"/>
<path fill-rule="evenodd" clip-rule="evenodd" d="M29.739 80.6844H27.6601C27.7245 81.0376 27.6494 80.7252 27.8329 80.9785L28.2719 81.6804C28.4919 82.0024 28.626 82.4392 28.8407 82.7387L29.9043 84.5096C30.1189 84.7553 30.2048 85.073 30.3754 85.3499L30.7296 85.923C30.8627 86.0969 31.0119 86.245 31.0677 86.4039C31.1579 86.67 30.925 87.0553 30.7361 87.2528L30.6502 87.329C30.6287 87.3483 30.5965 87.3773 30.5622 87.4063C30.1468 87.7519 29.4342 87.6767 28.8664 87.6403C28.8664 87.9569 28.7784 88.6062 28.9212 88.8981C29.4041 89.0119 30.6309 89.0054 31.1171 88.7811C31.4036 88.647 31.5807 88.3679 31.775 88.1318L32.5885 86.9265C32.669 86.7795 32.845 86.4887 32.9255 86.3438L33.7487 84.7714C33.8045 84.6641 33.856 84.5514 33.8925 84.4784L34.0825 84.1779C34.236 83.8978 34.324 83.4073 34.4871 83.1669C34.5945 83.0145 34.4871 83.2345 34.602 83.0102L35.1697 81.9434C35.2545 81.7856 35.218 81.7481 35.3146 81.5978L35.6366 81.0064C35.7064 80.9073 35.7621 80.799 35.8019 80.6844L33.87 80.707L33.3548 81.7116C33.3287 81.8105 33.2971 81.908 33.2604 82.0035C33.1391 82.2471 33.1981 82.041 33.1219 82.246C33.0669 82.4305 32.9878 82.607 32.8869 82.7709C32.6916 83.1057 32.3792 83.959 32.1828 84.3529C32.1442 84.4291 32.0927 84.5181 32.0487 84.5986C32.0086 84.672 31.9727 84.7476 31.9413 84.8251L30.8627 82.7301C30.8498 82.7054 30.7962 82.611 30.7822 82.5906L30.5676 82.2031C30.5096 82.0453 30.4967 82.0765 30.4227 81.9648L29.7251 80.6866" fill="#181617"/>
<path fill-rule="evenodd" clip-rule="evenodd" d="M81.2878 82.0185L84.0493 82.0163L84.0503 88.867L85.935 88.8712L85.9414 82.0174L88.7126 82.0163V80.6833H81.2867" fill="#181617"/>
<path fill-rule="evenodd" clip-rule="evenodd" d="M38.7898 82.0185L43.2481 82.0153L43.2503 80.6833L36.9052 80.6855V88.8702L38.7834 88.8712" fill="#181617"/>
</g>
<defs>
<clipPath id="clip0">
<rect width="88.7706" height="88.97" fill="white"/>
</clipPath>
</defs>
</svg>
