<svg width="174" height="36" viewBox="0 0 174 36" fill="none" xmlns="http://www.w3.org/2000/svg">
<path fill-rule="evenodd" clip-rule="evenodd" d="M31.2205 31.0027C31.1966 30.9124 31.2013 30.8242 31.1685 30.736C31.0645 30.4393 31.0671 30.348 31.0354 30.2598C31.0235 30.2267 30.9985 30.181 30.9923 30.1654L30.9839 30.1457L30.9699 30.1022C30.9699 30.0928 30.9616 30.0643 30.9595 30.055C30.9392 29.9688 30.9106 29.8869 30.8961 29.8138L30.6439 28.8951C30.6169 28.7571 30.5862 28.7675 30.5592 28.6747C30.5145 28.519 30.4984 28.3463 30.449 28.1974C30.3934 28.0283 30.397 27.8769 30.345 27.7155L30.2182 27.258C30.1781 27.0755 30.1215 26.9681 30.0877 26.7772C30.0812 26.7318 30.0686 26.6875 30.0502 26.6454C30.0029 26.5355 30.0294 26.6236 30.0045 26.5521C29.9795 26.4805 29.9722 26.3965 29.9525 26.329L29.8542 25.981C29.808 25.8715 29.8116 25.7413 29.7695 25.6179C29.7386 25.5548 29.7119 25.4898 29.6894 25.4233C29.6676 25.3237 29.6718 25.2631 29.6328 25.1718C29.5548 24.9892 29.5106 24.6852 29.4337 24.5073C29.3728 24.3672 29.3858 24.2059 29.312 24.0467L29.2694 23.9227C29.2345 23.7334 29.2226 23.7479 29.1696 23.6021L28.9881 22.8661C28.979 22.7024 28.943 22.5414 28.8815 22.3894C28.8082 22.2249 28.8254 22.0455 28.7448 21.8841L28.7261 21.8473C28.6658 21.6917 28.6595 21.5076 28.6081 21.3504C28.6081 21.3457 28.5753 21.2762 28.567 21.2549C28.5228 21.1419 28.5327 21.1061 28.5103 21.0034C28.4823 20.8768 28.463 20.9193 28.4272 20.8104C28.3986 20.7227 28.4022 20.6392 28.3814 20.551L28.3253 20.4115C28.3227 20.4058 28.3185 20.3991 28.3159 20.3934C28.2504 20.2377 28.2405 20.0261 28.1885 19.8746L27.7934 18.4902C27.7887 18.4637 27.7872 18.4383 27.7815 18.4165C27.7815 18.4087 27.7778 18.4015 27.7757 18.3937L27.5964 17.8024C27.5818 17.7261 27.5746 17.6395 27.5626 17.5565C27.52 17.2567 27.3598 16.9263 27.3115 16.6373C27.2678 16.378 27.1623 16.1824 27.1217 15.936C27.1191 15.8895 27.1071 15.844 27.0864 15.8022L26.9881 15.4547C26.9668 15.3836 26.9226 15.3296 26.906 15.2617C26.8571 15.0589 26.8259 14.8467 26.75 14.6667C26.7361 14.6311 26.7257 14.5943 26.7188 14.5568C26.6788 14.3653 26.5946 14.0105 26.526 13.8591C26.4573 13.7076 26.4355 13.496 26.3856 13.3279C26.3606 13.2439 26.3856 13.3196 26.3617 13.2688C26.3133 13.1578 26.318 13.0468 26.2826 12.9306C26.2369 12.7791 26.1714 12.6437 26.1511 12.4824C26.0929 12.0192 26.0669 12.1971 26.0352 11.9829C26.0113 11.8205 25.9614 11.7915 25.9271 11.6473C25.8454 11.3034 25.7659 10.9434 25.6416 10.6238C25.598 10.5113 25.6084 10.3821 25.5553 10.2639C25.5091 10.1601 25.5397 10.2639 25.5137 10.1674C25.4877 10.0709 25.4794 10.0118 25.4514 9.92306L25.2767 9.23317C25.2335 9.11594 25.2689 9.24458 25.2247 9.12165C25.1592 8.94839 25.1436 8.7212 25.0724 8.55106C25.0266 8.44005 25.0469 8.40219 25.024 8.2917C24.9933 8.14594 24.9653 8.22167 24.931 8.08421C24.9117 8.00589 24.9086 7.92601 24.8862 7.84716C24.8566 7.74342 24.8291 7.72111 24.8072 7.61944L24.1641 5.1986C24.0877 5.04298 24.0695 4.77169 24.0082 4.60155L23.8122 3.90595C23.7409 3.58539 23.7004 3.58072 23.6276 3.22799C23.6006 3.09624 23.5756 3.13981 23.5418 3.00806C23.5184 2.91573 23.5242 2.85659 23.4987 2.76997C23.4623 2.64599 23.4399 2.67504 23.4119 2.55314C23.3937 2.4717 23.3807 2.40168 23.3599 2.32698C23.3469 2.28141 23.3374 2.23494 23.3313 2.18797L23.2554 1.85028C23.22 1.60337 23.1082 1.51364 23.1613 1.40211C23.2133 1.47473 23.2237 1.52972 23.2398 1.63553L23.297 1.88815C23.3921 2.14751 23.4327 2.55211 23.572 2.81095C23.6458 2.94789 23.6157 2.87682 23.6432 3.048C23.6557 3.11905 23.6811 3.18725 23.7181 3.24926C23.7831 3.39502 23.7919 3.58124 23.8506 3.73115L23.9463 4.07973L23.9739 4.13627C24.0846 4.35361 24.1527 4.86247 24.2702 5.09226C24.3083 5.16657 24.3312 5.24766 24.3378 5.33087C24.3617 5.46677 24.4106 5.49426 24.4417 5.61409C24.4454 5.62913 24.4527 5.6727 24.4547 5.68463L24.54 6.02232C24.5577 6.08041 24.6097 6.152 24.6284 6.23707C24.6407 6.31848 24.664 6.39786 24.6975 6.47308L24.8426 7.08309C24.8946 7.19825 24.8992 7.31081 24.9466 7.42233L25.1358 7.98514C25.1462 8.02249 25.1503 8.06554 25.1592 8.10237C25.2112 8.32542 25.2866 8.47325 25.3032 8.56662L25.5481 9.38463C25.6052 9.49875 25.5917 9.59212 25.6349 9.7135C25.678 9.83488 25.651 9.72751 25.691 9.82036L25.9359 10.6669C25.9827 10.7955 26.0097 10.9605 26.07 11.0876C26.174 11.3039 26.1459 11.5658 26.2624 11.7878C26.3118 11.8812 26.4547 12.5613 26.5353 12.7127C26.5941 12.8227 26.5696 12.8367 26.5982 12.955C26.632 13.095 26.6502 13.0281 26.6882 13.1713C26.709 13.2548 26.709 13.3077 26.7401 13.3995L26.8888 13.8663C26.9346 14.0344 26.9694 14.1179 27.0167 14.3249C27.051 14.4753 27.0734 14.3768 27.1113 14.5324C27.1415 14.6543 27.1113 14.6501 27.1774 14.7772L27.207 14.8291C27.2175 14.8484 27.2244 14.8695 27.2273 14.8913C27.2615 15.0835 27.3177 15.2711 27.3947 15.4505C27.4357 15.548 27.416 15.6061 27.4508 15.7005L27.5735 16.1611C27.5777 16.1892 27.5922 16.2763 27.6 16.3012C27.6323 16.4049 27.6 16.31 27.6245 16.3603L27.7867 16.865C27.8085 16.9408 27.8184 17.0118 27.8418 17.0891C27.8595 17.1693 27.8839 17.2479 27.9146 17.3241C27.9547 17.3967 27.9788 17.477 27.9853 17.5596C28.0019 17.6633 27.9795 17.6063 28.0243 17.6908C28.0856 17.8065 28.083 17.8983 28.1168 18.0145C28.1454 18.1136 28.1828 18.1183 28.2093 18.2251C28.266 18.4596 28.396 18.9456 28.4906 19.1412C28.5285 19.219 28.5187 19.2968 28.5504 19.3922C28.5821 19.4877 28.6102 19.5001 28.632 19.6158L28.723 19.9696C28.775 20.1143 28.7978 20.1221 28.8301 20.3078C28.8483 20.4115 28.8821 20.4504 28.9133 20.5282C28.9652 20.6709 28.9611 20.8913 29.0099 21.021L29.0833 21.2518C29.1004 21.339 29.1295 21.4028 29.1498 21.492C29.1539 21.5153 29.1593 21.5383 29.1659 21.561L29.2231 21.6948C29.2543 21.7804 29.259 21.8603 29.287 21.9396C29.3203 22.034 29.3479 22.0268 29.3739 22.1575C29.3947 22.2612 29.3879 22.3095 29.4295 22.4075C29.442 22.4361 29.4726 22.4926 29.4752 22.5004C29.4883 22.5381 29.4975 22.577 29.5028 22.6166L29.6546 23.0741C29.6884 23.1659 29.6764 23.2421 29.7066 23.3293C29.744 23.4361 29.7627 23.3812 29.7913 23.5207C29.8199 23.6602 29.8002 23.6343 29.8615 23.7577C29.9379 23.9134 29.9468 24.1416 30.0118 24.3071C30.1963 24.8126 30.3486 25.3292 30.4677 25.8539C30.4885 25.9535 30.5566 26.245 30.5935 26.3124C30.6689 26.4499 30.6398 26.3845 30.6679 26.5458C30.6902 26.675 30.723 26.6594 30.7557 26.7642C30.7812 26.8446 30.7776 26.9198 30.8077 27.0163L31.0287 27.6855C31.0749 27.8027 31.0645 27.8188 31.0869 27.9339C31.1196 28.1046 31.1248 28.0107 31.1706 28.129C31.2044 28.2171 31.195 28.2846 31.2319 28.3738L31.4456 29.0481C31.4773 29.1311 31.4794 29.2198 31.5111 29.294C31.5475 29.3649 31.5739 29.4405 31.5896 29.5186C31.6078 29.6104 31.6343 29.6612 31.6546 29.7619C31.66 29.8002 31.668 29.8382 31.6785 29.8755C31.705 29.9528 31.6785 29.8698 31.7237 29.9683L31.8615 30.443C31.8813 30.6551 31.941 30.7308 31.9478 30.9425L34.2576 30.6084C34.3689 30.5922 34.4811 30.5826 34.5935 30.5799C34.7016 30.5706 34.8144 30.5379 34.9236 30.5208C35.3135 30.4585 35.6946 30.4647 36.0939 30.3828L36.2264 30.3403C36.3543 30.2941 36.4307 30.3065 36.5711 30.2915C36.7567 30.2718 37.0198 30.2484 37.2121 30.2152C37.6573 30.1364 38.1065 30.0817 38.5576 30.0513L39.8604 29.8744C40.1089 29.8324 40.6725 29.8023 40.8679 29.7401C41.1799 29.641 41.5084 29.6524 41.8365 29.5928C41.9769 29.5674 42.3444 29.5279 42.4931 29.5196C42.3824 29.3884 42.3231 29.2375 42.2118 29.0995C42.1437 29.0149 41.8937 28.6902 41.8578 28.5927C41.7772 28.3738 41.7959 28.4739 41.7174 28.3437C41.6743 28.2716 41.7143 28.2918 41.6519 28.214L41.1788 27.5444C41.1508 27.5053 41.1258 27.4642 41.104 27.4214C41.0395 27.3068 40.9438 27.2513 40.8815 27.1444L40.7837 26.966C40.7531 26.9307 40.7242 26.8938 40.6974 26.8555L40.6376 26.7767C40.634 26.7715 40.6293 26.7647 40.6262 26.7596L40.1775 26.038C40.163 26.0168 40.1484 25.9919 40.1328 25.9706L39.2303 24.6447C39.0931 24.4814 39.117 24.5503 39.0192 24.3278C38.948 24.1655 38.6787 23.7515 38.5638 23.6405L38.3262 23.2919C38.2743 23.2038 38.242 23.1623 38.1822 23.0741C38.1302 22.9978 38.0783 22.9039 38.032 22.8334C37.9691 22.7354 37.928 22.7296 37.8578 22.6166L37.8474 22.5994C37.7767 22.4864 37.6831 22.3847 37.6275 22.2644C37.5719 22.144 37.5235 22.005 37.4315 21.9013L37.0993 21.4536C37.0645 21.4017 37.0603 21.3763 37.026 21.3307C36.9371 21.2124 36.8461 21.0355 36.7359 20.924L36.1641 20.0754C36.1251 20.0235 36.175 20.1158 36.1183 20.0079C36.0008 19.7828 35.8558 19.5976 35.7133 19.3824L35.0988 18.4653C34.9886 18.2412 34.7718 18.1209 34.699 17.8921C34.6637 17.7811 34.699 17.833 34.6382 17.7552L33.9104 16.7032C33.9067 16.6985 33.902 16.6923 33.8984 16.6871L33.3889 15.9422C33.2922 15.8328 33.3172 15.7866 33.1846 15.5906C33.157 15.5491 33.1477 15.5143 33.1129 15.4697L32.817 15.0661C32.7463 14.9888 32.7323 14.8944 32.6491 14.7917C32.606 14.7399 32.593 14.7139 32.5649 14.6771L31.9556 13.8103C31.9488 13.8005 31.928 13.7678 31.9239 13.7585L31.5673 13.1946C31.4503 13.0473 31.3759 12.8491 31.2465 12.708L30.9205 12.2526C30.9028 12.2189 30.9002 12.2059 30.882 12.1774C30.8529 12.1323 30.8758 12.167 30.8462 12.1307C30.8178 12.103 30.7939 12.0709 30.7755 12.0358C30.6621 11.8501 30.5675 11.7676 30.4609 11.5689C30.3429 11.3552 30.1667 11.029 30.0112 10.8754L29.7269 10.4605L29.6967 10.4086C29.591 10.2306 29.4692 10.0627 29.3328 9.90698C29.3185 9.89229 29.3061 9.87592 29.2959 9.85822L29.0001 9.38412C28.8192 8.98159 28.9481 9.28556 28.7474 8.96914L28.6128 8.76892L28.5868 8.73832L27.5236 7.13029C27.5139 7.11182 27.5022 7.09443 27.4888 7.07842C27.3541 6.89947 27.1696 6.57579 27.0594 6.44974C27.0458 6.4354 27.0333 6.42014 27.0219 6.40409L26.6201 5.8335C26.5917 5.79482 26.5664 5.75407 26.5442 5.71161L26.4792 5.60786C26.4559 5.56793 26.4296 5.52978 26.4007 5.49375C26.1958 5.24891 26.201 5.15035 26.0518 4.94909C26.0396 4.93284 26.029 4.91547 26.0201 4.89722L25.1737 3.6523C25.1358 3.58435 25.1737 3.63778 25.1301 3.58383L24.2463 2.27096C24.2239 2.24036 24.2021 2.19212 24.1761 2.14906L23.8345 1.68222C23.8293 1.67599 23.8153 1.6568 23.8106 1.65006L23.0994 0.54623C23.0058 0.411883 22.9471 0.261974 22.8176 0.16238C22.7766 0.131257 22.8208 0.142669 22.7781 0.139038C22.7111 0.302952 22.749 7.48302 22.7547 8.32749C22.462 8.38663 22.096 8.31712 21.8085 8.37677C21.6526 8.40945 21.4852 8.38299 21.3256 8.40219C21.166 8.42138 21.0407 8.43642 20.8743 8.45406C20.2946 8.50956 20.0555 8.6408 19.6573 8.7435C19.4493 8.79537 19.1894 8.85191 19.0085 8.95618L18.9908 8.96707C18.865 9.04488 18.7241 9.076 18.5671 9.12787C18.317 9.21035 18.1299 9.34003 17.8912 9.45777L17.2897 9.8603C17.2767 9.87541 17.2613 9.88822 17.244 9.89816L16.9632 10.0372L16.315 10.587L16.2988 10.5984L16.1117 10.8012C16.0508 10.891 16.0077 10.8796 15.9167 10.9678L15.8075 11.1083C15.728 11.2048 15.7909 11.128 15.7353 11.1758L15.3927 11.5861C15.3121 11.7194 15.1925 11.7936 15.1265 11.931L14.8983 12.3159C14.8952 12.3211 14.8905 12.3273 14.8874 12.3325L14.774 12.5545L14.7641 12.5732L14.4709 13.2563C14.4189 13.3533 14.4189 13.4446 14.3742 13.5515C14.3222 13.6775 14.3898 13.5245 14.3306 13.6184L14.0878 14.8524C14.0805 14.9821 14.0644 14.9629 14.0467 15.0521C13.9687 15.4526 14.0753 16.461 14.1819 16.8759C14.2094 16.9833 14.2526 17.127 14.2858 17.2696C14.3264 17.4304 14.3202 17.3148 14.3685 17.4346C14.4013 17.5155 14.3836 17.557 14.4143 17.6421L15.1421 19.0893L15.1551 19.1043C15.1587 19.109 15.165 19.1142 15.1691 19.1183C15.3287 19.2854 15.4566 19.5027 15.5887 19.6697L15.6017 19.6848L16.0399 20.1117C16.1548 20.2196 16.1262 20.2709 16.3285 20.4333L16.4059 20.4966L16.4205 20.5095L16.8218 20.8586C16.9695 20.9738 17.1374 21.0251 17.2861 21.1481L17.3006 21.1605L17.6126 21.3774C17.7857 21.5112 18.004 21.5968 18.1844 21.6984C18.4096 21.8245 18.6705 21.8873 18.9003 21.9843C18.9944 22.0242 18.9367 22.0029 18.9684 22.0268C19.0537 22.0916 19.1852 22.1243 19.3079 22.1627C19.5679 22.2436 19.807 22.3453 20.0654 22.4049C20.4662 22.4978 21.4373 22.6716 21.781 22.6716C22.056 22.6716 22.4813 22.6565 22.7438 22.6887V31.0042" fill="#181617"/>
<path fill-rule="evenodd" clip-rule="evenodd" d="M21.9297 30.9996V23.3495C21.1842 23.3117 20.3982 23.223 19.6942 23.0134C19.6287 22.9942 19.5669 22.9854 19.4863 22.9652C19.388 22.9403 19.3698 22.9071 19.2965 22.8801C19.0163 22.7764 18.6664 22.7323 18.4392 22.5938C18.2407 22.4724 17.9994 22.4449 17.7925 22.3189L16.9087 21.8121L16.8905 21.8022L16.7949 21.7312L16.7652 21.7052L16.7496 21.6928L16.353 21.421L16.3389 21.407L16.3088 21.381C16.1169 21.2254 15.948 21.0537 15.7447 20.9142C15.6116 20.8229 15.4125 20.5806 15.2836 20.4556L14.8022 19.9084L14.7897 19.8923L14.5438 19.5245L14.5209 19.4913L14.4855 19.4426C14.4336 19.3731 14.4367 19.3523 14.3946 19.287C14.3649 19.2392 14.3842 19.2714 14.3462 19.2247L14.2422 19.0774C14.1138 18.8829 14.0421 18.6977 13.9184 18.4866L13.751 18.1209C13.728 18.0572 13.7088 17.9923 13.6932 17.9264C13.6626 17.8226 13.6413 17.8314 13.6147 17.7588C13.5893 17.6955 13.5877 17.626 13.5654 17.555C13.49 17.3122 13.4354 17.2552 13.4 16.9403C13.3824 16.781 13.3226 16.6706 13.3002 16.5124C13.2482 16.1493 13.2482 14.8369 13.3002 14.479L13.5602 13.4592C13.6641 13.1018 13.6465 13.2315 13.6917 13.0873C13.7109 13.0261 13.7333 12.9291 13.751 12.8679C13.8123 12.6567 13.7509 12.8388 13.8372 12.707L13.9995 12.3652C14.0712 12.2096 14.2334 11.8984 14.3254 11.8009C14.3894 11.7308 14.3379 11.8128 14.3914 11.7288L14.6987 11.2541C14.8547 10.9621 14.9217 10.9735 15.0595 10.8101L15.072 10.7945L15.7691 10.0683L15.7842 10.0559C15.8949 9.96563 16.0041 9.91687 16.0961 9.81106C16.1351 9.7667 16.1774 9.72526 16.2225 9.68708L16.3311 9.59994C16.4647 9.48063 16.9633 9.12998 17.1567 9.06255L17.8377 8.68337L17.8533 8.67092L17.9786 8.59986C18.146 8.52516 18.381 8.46758 18.5391 8.38148C18.9077 8.18073 19.1484 8.19162 19.3033 8.11382C19.5331 7.99814 20.3103 7.83734 20.537 7.81556C20.708 7.79896 20.8021 7.74916 20.9747 7.72115C21.2107 7.68328 21.6719 7.65787 21.9313 7.64801V0.0114735C21.6303 -0.0118687 21.2924 0.00784249 20.9529 0.0114735L19.5856 0.180575C19.2804 0.232447 18.9914 0.232447 18.6851 0.30766L18.2531 0.411404C18.1039 0.459644 17.9807 0.44927 17.8305 0.490767C17.6802 0.532264 17.3293 0.582061 17.2066 0.646382C17.033 0.733526 16.7907 0.767243 16.5957 0.816521C16.2677 0.898997 16.327 0.868392 16.0187 0.991328C15.9568 1.01571 15.884 1.02608 15.8029 1.05617C15.6282 1.12049 15.4094 1.15524 15.2466 1.25276C15.0985 1.34146 14.8458 1.398 14.6852 1.47322C14.6276 1.49599 14.5719 1.5234 14.5188 1.55517L14.5027 1.5671C14.3083 1.69056 13.9168 1.74606 13.7749 1.8441C13.6329 1.94213 13.3974 2.01839 13.2612 2.10968L12.9223 2.30109C12.8807 2.32287 12.8016 2.35918 12.758 2.38667L12.0873 2.74978C12.0382 2.78624 11.9861 2.81835 11.9314 2.84574L11.3111 3.26071C11.1073 3.38987 10.9753 3.51644 10.85 3.5792C10.8237 3.58869 10.7989 3.60216 10.7767 3.61914L10.5547 3.78306C10.4305 3.86865 10.3852 3.9506 10.2698 4.02945L9.9766 4.26495C9.92757 4.31031 9.87545 4.35226 9.82064 4.39047L9.40058 4.71571C9.37459 4.73645 9.34993 4.7588 9.32675 4.78262L9.06681 5.02279L9.0507 5.03472C9.04602 5.03835 9.03925 5.04302 9.03458 5.04717C8.99091 5.08607 9.0247 5.04717 8.99299 5.09022C8.98571 5.09956 8.97791 5.11512 8.97167 5.12498C8.83338 5.35114 8.32078 5.7381 8.11491 6.02236L7.61478 6.55093C7.542 6.64741 7.55707 6.69824 7.45882 6.81028C7.36056 6.92233 7.22071 7.15523 7.07982 7.2984L6.75385 7.7476C6.69771 7.83942 6.73826 7.81659 6.6608 7.90944C6.62036 7.95365 6.58624 8.00322 6.55942 8.05676L6.16015 8.71553C6.14281 8.78466 6.11399 8.85041 6.07489 8.91005L5.32574 10.4735C5.29974 10.5772 5.28987 10.5632 5.24828 10.6457L5.11415 11.043C5.08166 11.0967 5.05549 11.154 5.03617 11.2137C5.01017 11.3205 5.03616 11.321 4.98677 11.4165C4.94154 11.5036 4.93478 11.4564 4.91399 11.5934C4.87552 11.8527 4.79338 11.8398 4.72216 12.4326L4.67017 12.6567C4.64417 12.7662 4.61038 12.9597 4.59062 13.079C4.57555 13.1677 4.58595 13.2346 4.57295 13.3145L4.51264 13.5318C4.46065 13.814 4.48665 14.2191 4.41647 14.4655C4.25114 15.0475 4.39619 16.738 4.49653 17.3812C4.51992 17.5327 4.57035 17.6291 4.58023 17.7988C4.60039 18.0204 4.64236 18.2395 4.70552 18.4529C4.76062 18.6604 4.74763 18.9197 4.82301 19.1163C4.91503 19.357 4.8958 19.3959 4.93531 19.5064C4.98054 19.634 4.96858 19.5064 5.01329 19.6781L5.7614 21.5221C5.81339 21.6383 5.80507 21.547 5.86122 21.7C5.90957 21.8318 5.99535 21.9163 6.05046 22.0403C6.09777 22.1477 6.00523 21.9578 6.06813 22.0792C6.16535 22.2659 6.14143 22.2997 6.19498 22.3982C6.24333 22.4874 6.24697 22.4501 6.2948 22.5486L7.13909 23.7676C7.15429 23.7979 7.17167 23.827 7.19108 23.8548L7.3668 24.0669C7.4349 24.1805 7.51964 24.2578 7.56851 24.3667C7.6309 24.5052 7.57371 24.4243 7.68809 24.5265L8.04836 24.9176C8.20121 25.0732 8.37121 25.3233 8.55109 25.4483L8.98935 25.9011C9.00626 25.9304 9.02826 25.9564 9.05433 25.9779C9.11776 26.0381 9.15363 26.0521 9.20562 26.1029L9.58357 26.4214C9.67923 26.4883 9.6678 26.5225 9.77229 26.5952L10.1882 26.9354C10.4133 27.1009 10.4263 27.1777 10.7008 27.3141C10.7408 27.3338 10.7039 27.3115 10.7377 27.3338L11.0892 27.5932C11.1094 27.6087 11.1297 27.6243 11.151 27.645C11.2794 27.7571 11.451 27.8292 11.6023 27.9495L11.6168 27.962C11.6401 27.9847 11.666 28.0047 11.6938 28.0216C11.8227 28.1041 11.8685 28.1508 12.0166 28.2016L12.5147 28.4843C12.628 28.5528 12.5594 28.5326 12.6571 28.5881C12.8308 28.6918 13.0169 28.7266 13.1806 28.8474C13.2838 28.9271 13.398 28.9914 13.5196 29.0383L14.2474 29.3454C14.5037 29.4491 14.7153 29.5798 14.9888 29.6639C15.0995 29.6976 15.0928 29.7189 15.1926 29.764C15.5679 29.9346 16.9009 30.2485 17.1208 30.3486C17.2794 30.4207 17.5653 30.4715 17.7447 30.5042C17.8279 30.5198 17.8689 30.5374 17.9417 30.5561C18.0322 30.5779 18.1112 30.5742 18.1887 30.5919C18.3509 30.6287 18.2407 30.6308 18.3711 30.6577C18.4429 30.6723 18.5177 30.6717 18.5978 30.6889C19.0434 30.7838 19.6729 30.8331 19.9526 30.8938C20.0722 30.9197 20.0046 30.9316 20.1507 30.942L20.9045 30.9783C21.2362 31.0068 21.6006 31.0016 21.9401 31.0016" fill="#296BA5"/>
<path fill-rule="evenodd" clip-rule="evenodd" d="M0.0202698 35.5144C9.29082 35.4584 18.618 35.5144 27.9005 35.5144C28.6201 35.5144 31.4097 35.5518 32.0076 35.4594L32.6148 35.3656C32.92 35.2743 34.2748 35.1819 34.6044 35.0709L36.2811 34.8515C36.7037 34.7924 36.4511 34.7836 36.8784 34.7478C37.2829 34.7114 37.704 34.631 38.1131 34.5921C38.3309 34.5719 38.542 34.5688 38.7536 34.5346C38.8523 34.5181 38.9496 34.4943 39.0447 34.4635C39.1347 34.4376 39.2574 34.4422 39.3463 34.4272L40.9777 34.2145C41.3577 34.1346 41.5594 34.132 41.7913 34.0843C42.1552 34.0096 42.62 33.9769 42.999 33.9323V30.6582C42.6132 30.6696 42.1235 30.7474 41.7476 30.8112C41.3988 30.8704 41.4586 30.8247 40.9782 30.93C40.8623 30.9554 40.7016 30.9238 40.5067 30.9596C40.1136 31.0312 39.6748 31.0529 39.2626 31.1152C39.0583 31.1474 38.8524 31.1365 38.6564 31.2034C38.4172 31.2853 36.4895 31.4487 36.2083 31.5426C36.0778 31.5862 35.7648 31.5986 35.5948 31.6272C35.2714 31.6821 34.6023 31.7096 34.3679 31.7942C34.2364 31.8419 32.0773 32.0281 31.9021 32.0888C31.8545 32.1124 31.8031 32.1273 31.7503 32.1329C31.6983 32.1386 31.6463 32.1355 31.5907 32.1407C31.4867 32.15 31.3947 32.1754 31.3016 32.1884C31.1082 32.2154 30.8114 32.1983 30.6071 32.1983C20.4106 32.1983 10.2043 32.2232 0.0109155 32.1983C0.00623656 32.2382 0.00259941 32.342 0 32.4898V34.9952C0.00467894 35.2826 0.0114318 35.4823 0.0202698 35.5139" fill="#181617"/>
<path fill-rule="evenodd" clip-rule="evenodd" d="M0.0130679 31.0041L16.7434 30.9969C16.6478 30.9414 16.4575 30.9403 16.3696 30.8931C16.1097 30.7562 15.032 30.4999 14.81 30.3563C14.588 30.2126 14.2662 30.1441 14.0114 30.0398C13.7764 29.9434 13.4583 29.8396 13.2727 29.6944C13.1474 29.5963 12.9888 29.5725 12.849 29.5014L12.4762 29.2908C12.4008 29.2498 12.3312 29.214 12.2776 29.1829L12.2059 29.1414L12.1877 29.1321L12.169 29.1228C12.1274 29.1036 12.117 29.103 12.0691 29.0844L11.9766 29.0392L11.9589 29.0294L11.608 28.7923C11.2867 28.6367 11.1963 28.5091 10.9748 28.3955L10.7424 28.2352C10.7356 28.2306 10.7149 28.2186 10.7076 28.2145L10.0967 27.7938C10.0341 27.7571 9.97635 27.7128 9.92463 27.662C9.89824 27.6325 9.86975 27.605 9.83936 27.5796L9.6023 27.3975C9.49001 27.2839 9.30753 27.2019 9.16248 27.0577L8.82872 26.7507L8.81572 26.7356L8.16534 26.1318L8.15027 26.1189L8.13519 26.1059L8.12064 26.0929L7.87213 25.8382C7.84354 25.8102 7.86277 25.8325 7.82898 25.7978L7.17185 25.0633L7.15937 25.0482L7.14742 25.0322L6.75855 24.558C6.6083 24.4195 6.49444 24.2115 6.37227 24.0502L5.94181 23.394L5.92881 23.379L5.91581 23.3645C5.82223 23.2441 5.80352 23.1212 5.69123 23.0133C5.62156 23.0361 5.58465 23.1347 5.53058 23.2063L5.36734 23.4044C5.3637 23.4091 5.35746 23.4148 5.35382 23.4195C5.34005 23.4349 5.32882 23.4524 5.32055 23.4713C5.2566 23.5818 5.16459 23.6638 5.08192 23.7597L4.57244 24.5306C4.37644 24.7354 4.38684 24.766 4.29482 24.8667L4.07959 25.153C3.99849 25.2453 3.97561 25.32 3.90855 25.3989C3.84148 25.4777 3.85968 25.4279 3.79313 25.5068C3.77499 25.5276 3.75978 25.5508 3.7479 25.5758L3.73699 25.5934L3.61845 25.7516C3.56335 25.819 3.5753 25.7786 3.52851 25.8554C3.48848 25.9207 3.49368 25.9477 3.45209 26.0006L3.05074 26.5458C3.01747 26.5893 3.0263 26.5712 3.01019 26.5888C2.9582 26.6448 3.02006 26.5582 2.9582 26.6505C2.9582 26.6542 2.93533 26.692 2.92753 26.705L2.64575 27.0909L2.63535 27.1086C2.55009 27.2367 2.45339 27.2896 2.38217 27.412L1.03828 29.2156C0.945736 29.3463 0.893227 29.4552 0.784052 29.5735L0.666558 29.7395L0.655642 29.7561L0.6442 29.7722L0.364503 30.1597C0.328227 30.1985 0.295359 30.2403 0.26625 30.2847C0.251174 30.307 0.232978 30.3329 0.221021 30.3506L0.0463348 30.5648C0.0141021 30.6026 0.0364606 30.5835 0.0109863 30.6063V31.2562" fill="#181617"/>
<path fill-rule="evenodd" clip-rule="evenodd" d="M137.802 14.6882C137.966 15.2011 137.966 15.3438 138.165 15.7735C138.275 16.0088 138.245 16.175 138.308 16.4448C138.335 16.5477 138.367 16.6492 138.405 16.749L139.188 19.2678C139.302 20.0881 139.408 19.3619 139.517 20.4614C139.562 20.8713 139.673 21.2722 139.845 21.6502L140.512 23.9651C143.601 23.9651 143.468 24.3102 143.726 22.8296C143.764 22.6069 143.803 22.3356 143.849 22.1442C143.933 21.7851 143.917 22.0219 144.068 21.6424C144.184 21.3491 144.132 21.2503 144.201 20.9695C144.309 20.5351 144.308 20.8441 144.436 20.4849C144.564 20.1257 144.449 20.0865 144.669 19.6631C145.022 18.984 144.896 18.4288 145.216 17.8077C145.507 17.2446 145.341 17.3654 145.474 16.9325C145.592 16.5467 145.582 16.84 145.691 16.3475C145.947 15.1901 145.819 15.5383 146.251 14.6929V23.9667H149V12H145.084C144.449 12 144.592 12.0173 144.488 12.1694C144.107 12.7215 144.16 13.2547 143.954 13.7268C143.734 14.2224 143.807 14.2318 143.69 14.8372C143.58 15.4112 143.408 15.4849 143.337 15.8504C143.232 16.3993 143.337 16.1264 143.099 16.6518L142.494 18.4695C142.442 18.6546 142.442 18.8162 142.389 19.0075C142.281 19.4043 142.284 19.1502 142.163 19.5015L142.026 19.9485C142.026 19.9375 142.011 19.9893 142 20.0081C141.864 19.8121 141.805 19.798 141.749 19.5109C141.497 18.2249 141.432 18.479 141.297 18.0351C141.226 17.803 141.259 17.7073 141.185 17.4987C141.12 17.3152 141.001 17.185 140.964 17.0768L140.011 14.0859C139.847 13.1449 139.504 13.0916 139.5 12.0016H135V23.9588H137.748" fill="#181617"/>
<path fill-rule="evenodd" clip-rule="evenodd" d="M63.667 23.9953C63.7275 23.991 63.7864 23.9738 63.8399 23.9449C63.8934 23.9159 63.9402 23.8758 63.9773 23.8272C64.1324 23.6292 64.0052 23.447 64.6289 22.7369L66.5233 20.1131C66.9747 19.6198 66.8336 19.711 67.2013 19.2035L67.2338 19.1564L67.2664 19.1092C67.3533 18.993 67.4216 18.9348 67.4821 18.8547C67.4945 18.839 67.6171 18.6253 67.6279 18.6018C67.8606 18.1493 67.7738 18.4227 67.9553 18.1304C68.2439 17.6733 67.8219 18.1304 68.5495 17.2098C68.8598 16.8155 68.9607 16.5562 69.3252 16.1917L69.3361 23.9906L72 23.9796V12.0331C71.5687 12.0111 69.4525 11.9561 69.2073 12.0676L69.0274 12.2153L68.987 12.2562C68.8345 12.397 68.7042 12.5608 68.6007 12.7416L68.1353 13.3826C67.8544 13.9278 68.2656 13.3104 67.7396 14.1022L67.5395 14.528C67.5106 14.5776 67.4739 14.6222 67.4309 14.6599L65.6032 17.1988C65.5148 17.3182 65.5101 17.3009 65.4171 17.4125L65.0773 17.8665L65.0431 17.9105L64.2147 19.0527L64.1278 19.2098C64.0331 19.4297 64.0968 19.4549 63.9463 19.6811C63.9463 19.6921 63.8439 19.8021 63.8392 19.8068C63.7823 19.864 63.7304 19.926 63.684 19.9922V12.0221L61 12.0425V24" fill="#181617"/>
<path fill-rule="evenodd" clip-rule="evenodd" d="M77.6247 18.825C78.8097 18.7551 79.9977 18.7635 81.1816 18.8501C82.7439 18.9756 82.8097 19.2299 83.0896 19.6504C83.5549 20.3488 83.1943 21.1366 82.7259 21.4693C82.6814 21.504 82.6344 21.5349 82.5853 21.5619C82.1452 21.7939 81.6577 21.9097 81.1652 21.8993C80.185 21.9197 78.536 21.9887 77.6157 21.8758L77.6247 18.825ZM77.6247 13.9522H84.8867V12H75V23.9661C77.1638 23.9661 79.4772 24.0493 81.6216 23.9551C83.139 23.8892 83.3066 23.8845 84.3151 23.2928C85.0028 22.8854 85.5505 22.2611 85.8804 21.5085C86.0495 21.1429 86.03 19.5265 85.8804 19.1969C85.6239 18.691 85.3087 18.2203 84.9421 17.7955C84.9316 17.783 84.9182 17.7641 84.9062 17.7531C84.8942 17.7422 84.8793 17.7233 84.8688 17.7123L84.8269 17.6747L83.7495 17.127C83.5326 17.0365 83.3032 16.9835 83.0701 16.97C82.6571 16.9136 82.7708 16.8602 82.4027 16.788C81.5617 16.6311 78.8562 16.8602 77.6292 16.7111" fill="#181617"/>
<path fill-rule="evenodd" clip-rule="evenodd" d="M153.654 13.9787H160.695V12.03C157.774 11.9625 154.013 12.03 151 12.03V24H161V21.9289H153.64L153.678 18.6889H160.174V16.657H153.639L153.646 13.9787" fill="#181617"/>
<path fill-rule="evenodd" clip-rule="evenodd" d="M125.644 13.9583L132.788 13.9143L132.759 12L123 12.0047V23.9984L133 24V21.9237H125.629L125.659 18.6756L132.207 18.6787L132.201 16.6418L125.634 16.6449" fill="#181617"/>
<path fill-rule="evenodd" clip-rule="evenodd" d="M109.016 23.9163C109.963 23.9679 111.537 24.1539 112.222 23.7178L112.594 23.4052C112.96 23.1207 112.947 23.0925 113.206 22.6392C113.723 21.7357 113.468 15.4734 113.535 13.9431L117.44 13.9556V23.9257H120V12L110.939 12.0188C110.939 13.7289 111.112 20.8056 110.786 21.7951C109.75 22.1593 110.288 22.0827 109 22.0764" fill="#181617"/>
<path fill-rule="evenodd" clip-rule="evenodd" d="M56.268 19.8049C56.2446 19.8625 56.2289 19.9155 56.2038 19.9731C56.1647 20.07 56.124 20.1488 56.0864 20.2382L55.8015 20.7321C55.6847 20.9419 55.5359 21.1334 55.36 21.3002C55.2191 21.4168 55.4524 21.2365 55.2708 21.3699L55.0312 21.5214C54.3784 21.9319 53.0695 22.3137 52.1677 21.9077C52.0754 21.8668 51.9736 21.8244 51.8922 21.788C51.4507 21.5895 51.1266 21.4365 50.7963 21.0851C50.4143 20.6836 50.2327 20.2518 50.0009 19.7822C49.6581 19.0883 49.799 16.6114 50.2483 15.6509C50.3885 15.3682 50.5994 15.124 50.862 14.9404L51.3912 14.5237C51.911 14.1117 52.6844 14.0177 53.4061 14.0374C54.6116 14.0708 54.7338 14.2859 55.5087 14.8343C56.0285 15.2024 55.9393 15.3464 56.2696 15.8554C56.7376 15.8288 57.2029 15.768 57.6614 15.6736C58.0794 15.5918 58.4442 15.5221 58.9249 15.4373C58.9359 15.268 58.8921 15.0996 58.7996 14.9555L58.0262 13.7041L56.8551 12.7634C56.4074 12.53 55.7592 12.3816 55.2895 12.2786C54.8981 12.1952 54.5709 12.0422 54.2124 12.0195C53.511 11.9756 52.4339 12.0089 52.2053 12.0892L50.6068 12.5437C50.2561 12.6452 49.9164 12.6952 49.6299 12.9027L48.1066 14.4283C48.093 14.4647 48.0757 14.4997 48.0549 14.5328C47.8561 14.8722 47.5586 15.0828 47.4537 15.4857C47.4279 15.6509 47.3779 15.8116 47.305 15.963C46.8463 16.9113 47.0138 18.4717 47.1155 19.4959C47.1609 19.9594 47.5993 20.9926 47.8608 21.3956C48.0314 21.6577 47.9845 21.4335 48.1582 21.7971C48.3931 22.2849 48.7469 22.4758 49.1853 22.806C49.449 22.9961 49.7305 23.1619 50.026 23.3014L50.9403 23.7135C52.1599 24.0453 53.4124 24.0407 54.6837 23.9392C55.4962 23.8756 55.9628 23.5878 56.6438 23.2242L57.4908 22.6561C57.6227 22.5577 57.7435 22.446 57.8509 22.3228C58.2323 21.8998 58.5425 21.4212 58.7699 20.9048L59 20.1761C58.5306 20.1528 58.0659 20.0745 57.616 19.9428L56.3495 19.6398" fill="#181617"/>
<path fill-rule="evenodd" clip-rule="evenodd" d="M89.0641 12H86C86.0949 12.5114 85.9842 12.0591 86.2547 12.4259L86.9017 13.4424C87.2259 13.9087 87.4237 14.5412 87.74 14.9749L89.3077 17.5394C89.6241 17.8954 89.7506 18.3554 90.0021 18.7564L90.5241 19.5864C90.7203 19.8382 90.9402 20.0527 91.0224 20.2827C91.1553 20.6682 90.812 21.2262 90.5336 21.5122L90.4071 21.6225C90.3754 21.6505 90.328 21.6925 90.2773 21.7344C89.6652 22.2349 88.6148 22.1261 87.778 22.0733C87.778 22.5318 87.6483 23.4721 87.8587 23.8949C88.5705 24.0596 90.3786 24.0503 91.0952 23.7255C91.5175 23.5312 91.7785 23.1271 92.0649 22.7851L93.2639 21.0397C93.3825 20.8267 93.642 20.4055 93.7606 20.1957L94.9739 17.9187C95.0562 17.7633 95.1321 17.6001 95.1859 17.4944L95.4659 17.0592C95.6921 16.6535 95.8218 15.9432 96.0622 15.595C96.2204 15.3743 96.0622 15.693 96.2315 15.3681L97.0683 13.8232C97.1932 13.5947 97.1395 13.5403 97.2818 13.3227L97.7564 12.4663C97.8593 12.3228 97.9413 12.1658 98 12L95.1526 12.0326L94.3933 13.4874C94.3548 13.6307 94.3083 13.7719 94.2541 13.9102C94.0754 14.263 94.1624 13.9646 94.0501 14.2615C93.9689 14.5286 93.8525 14.7841 93.7037 15.0215C93.4158 15.5064 92.9554 16.7421 92.666 17.3125C92.609 17.4229 92.5331 17.5519 92.4682 17.6685C92.4091 17.7747 92.3563 17.8842 92.31 17.9964L90.7203 14.9625C90.7013 14.9267 90.6222 14.7899 90.6016 14.7604L90.2853 14.1993C90.1998 13.9708 90.1809 14.0159 90.0717 13.8543L89.0435 12.0031" fill="#181617"/>
<path fill-rule="evenodd" clip-rule="evenodd" d="M163.002 13.9567L167.092 13.9536L167.094 23.9937L169.886 24L169.895 13.9552L174 13.9536V12H163" fill="#181617"/>
<path fill-rule="evenodd" clip-rule="evenodd" d="M102.673 13.9567L108.997 13.952L109 12L100 12.0031V23.9984L102.664 24" fill="#181617"/>
</svg>
