<svg width="93" height="89" viewBox="0 0 93 89" fill="none" xmlns="http://www.w3.org/2000/svg">
<path d="M3.73291 88.6373V78.1373H31.2329V68.1373H61.2329V78.1373H87.2329V88.6373" stroke="black" stroke-width="2"/>
<circle cx="16.7329" cy="21.6373" r="5.5" stroke="black" stroke-width="2"/>
<path fill-rule="evenodd" clip-rule="evenodd" d="M10.2328 30.1373C7.7379 30.1373 5.66977 31.9646 5.29383 34.3539L1.06305 53.7923C0.741124 55.2714 1.68367 56.7098 3.16829 57.0051C4.6529 57.3004 6.11739 56.3408 6.43932 54.8617L9.64412 40.1373H10.3329C10.2673 40.4604 10.2329 40.7948 10.2329 41.1373V78.1373H22.2329V41.1373C22.2329 40.7948 22.1985 40.4604 22.1329 40.1373H22.2294L26.4974 54.4627C26.9289 55.9107 28.4612 56.7657 29.92 56.3724C31.3789 55.9791 32.2118 54.4864 31.7803 53.0384L26.08 33.9054C25.5312 31.7397 23.5692 30.1373 21.2328 30.1373H10.2328Z" fill="white"/>
<path d="M5.29383 34.3539L6.27096 34.5666C6.27509 34.5476 6.27866 34.5285 6.28168 34.5094L5.29383 34.3539ZM1.06305 53.7923L0.0859235 53.5796L1.06305 53.7923ZM3.16829 57.0051L3.36339 56.0243H3.36339L3.16829 57.0051ZM6.43932 54.8617L7.41644 55.0744L6.43932 54.8617ZM9.64412 40.1373V39.1373C9.17379 39.1373 8.76703 39.465 8.667 39.9246L9.64412 40.1373ZM10.3329 40.1373L11.3129 40.3362C11.3726 40.0421 11.2971 39.7367 11.1072 39.5044C10.9173 39.272 10.633 39.1373 10.3329 39.1373V40.1373ZM10.2329 78.1373H9.23291C9.23291 78.6896 9.68063 79.1373 10.2329 79.1373V78.1373ZM22.2329 78.1373V79.1373C22.7852 79.1373 23.2329 78.6896 23.2329 78.1373H22.2329ZM22.1329 40.1373V39.1373C21.8328 39.1373 21.5486 39.272 21.3586 39.5044C21.1687 39.7367 21.0932 40.0421 21.1529 40.3362L22.1329 40.1373ZM22.2294 40.1373L23.1878 39.8517C23.0615 39.4278 22.6717 39.1373 22.2294 39.1373V40.1373ZM26.4974 54.4627L25.5391 54.7482L26.4974 54.4627ZM29.92 56.3724L29.6597 55.4069H29.6597L29.92 56.3724ZM31.7803 53.0384L30.822 53.3239L31.7803 53.0384ZM26.08 33.9054L25.1106 34.151C25.114 34.1644 25.1176 34.1777 25.1216 34.191L26.08 33.9054ZM6.28168 34.5094C6.5823 32.5988 8.23782 31.1373 10.2328 31.1373V29.1373C7.23798 29.1373 4.75724 31.3305 4.30599 34.1985L6.28168 34.5094ZM2.04017 54.0049L6.27096 34.5666L4.31671 34.1413L0.0859235 53.5796L2.04017 54.0049ZM3.36339 56.0243C2.42733 55.8381 1.8372 54.9375 2.04017 54.0049L0.0859235 53.5796C-0.354949 55.6052 0.940012 57.5814 2.97319 57.9859L3.36339 56.0243ZM5.46219 54.6491C5.25624 55.5953 4.31319 56.2133 3.36339 56.0243L2.97319 57.9859C4.99261 58.3876 6.97855 57.0863 7.41644 55.0744L5.46219 54.6491ZM8.667 39.9246L5.46219 54.6491L7.41644 55.0744L10.6212 40.3499L8.667 39.9246ZM10.3329 39.1373H9.64412V41.1373H10.3329V39.1373ZM11.2329 41.1373C11.2329 40.862 11.2606 40.5942 11.3129 40.3362L9.35292 39.9383C9.27411 40.3266 9.23291 40.7276 9.23291 41.1373H11.2329ZM11.2329 78.1373V41.1373H9.23291V78.1373H11.2329ZM22.2329 77.1373H10.2329V79.1373H22.2329V77.1373ZM21.2329 41.1373V78.1373H23.2329V41.1373H21.2329ZM21.1529 40.3362C21.2053 40.5942 21.2329 40.862 21.2329 41.1373H23.2329C23.2329 40.7276 23.1917 40.3266 23.1129 39.9383L21.1529 40.3362ZM22.2294 39.1373H22.1329V41.1373H22.2294V39.1373ZM27.4558 54.1771L23.1878 39.8517L21.271 40.4228L25.5391 54.7482L27.4558 54.1771ZM29.6597 55.4069C28.7243 55.6591 27.7324 55.1056 27.4558 54.1771L25.5391 54.7482C26.1253 56.7157 28.1981 57.8723 30.1804 57.3379L29.6597 55.4069ZM30.822 53.3239C31.0928 54.2328 30.5754 55.16 29.6597 55.4069L30.1804 57.3379C32.1823 56.7982 33.3308 54.74 32.7387 52.7528L30.822 53.3239ZM25.1216 34.191L30.822 53.3239L32.7387 52.7528L27.0383 33.6199L25.1216 34.191ZM21.2328 31.1373C23.1005 31.1373 24.6716 32.4183 25.1106 34.151L27.0493 33.6598C26.3909 31.0611 24.0378 29.1373 21.2328 29.1373V31.1373ZM10.2328 31.1373H21.2328V29.1373H10.2328V31.1373Z" fill="black"/>
<path d="M16.2329 58.6373V77.6373" stroke="black" stroke-width="2" stroke-linecap="round"/>
<circle cx="75.9648" cy="21.637" r="5.5" stroke="black" stroke-width="2"/>
<path fill-rule="evenodd" clip-rule="evenodd" d="M69.4648 30.137C66.9698 30.137 64.9017 31.9643 64.5258 34.3536L60.295 53.792C59.9731 55.271 60.9156 56.7095 62.4002 57.0048C63.8848 57.3001 65.3493 56.3405 65.6712 54.8614L68.8761 40.137H69.5649C69.4993 40.4601 69.4648 40.7945 69.4648 41.137V78.137H81.4648V41.137C81.4648 40.7945 81.4304 40.4601 81.3648 40.137H81.4613L85.7294 54.4624C86.1608 55.9104 87.6931 56.7654 89.152 56.3721C90.6108 55.9788 91.4437 54.4861 91.0123 53.0381L85.3119 33.9051C84.7632 31.7394 82.8011 30.137 80.4648 30.137H69.4648Z" fill="white"/>
<path d="M64.5258 34.3536L65.5029 34.5663C65.507 34.5473 65.5106 34.5282 65.5136 34.5091L64.5258 34.3536ZM60.295 53.792L59.3179 53.5793L60.295 53.792ZM62.4002 57.0048L62.5953 56.024H62.5953L62.4002 57.0048ZM65.6712 54.8614L66.6484 55.0741L65.6712 54.8614ZM68.8761 40.137V39.137C68.4057 39.137 67.999 39.4647 67.8989 39.9243L68.8761 40.137ZM69.5649 40.137L70.5449 40.3359C70.6046 40.0418 70.529 39.7364 70.3391 39.5041C70.1492 39.2717 69.865 39.137 69.5649 39.137V40.137ZM69.4648 78.137H68.4648C68.4648 78.6892 68.9126 79.137 69.4648 79.137V78.137ZM81.4648 78.137V79.137C82.0171 79.137 82.4648 78.6892 82.4648 78.137H81.4648ZM81.3648 40.137V39.137C81.0647 39.137 80.7805 39.2717 80.5906 39.5041C80.4007 39.7364 80.3251 40.0418 80.3848 40.3359L81.3648 40.137ZM81.4613 40.137L82.4197 39.8514C82.2934 39.4275 81.9036 39.137 81.4613 39.137V40.137ZM85.7294 54.4624L84.771 54.7479L85.7294 54.4624ZM89.152 56.3721L88.8917 55.4066H88.8917L89.152 56.3721ZM91.0123 53.0381L90.0539 53.3236L91.0123 53.0381ZM85.3119 33.9051L84.3425 34.1507C84.3459 34.1641 84.3496 34.1774 84.3535 34.1907L85.3119 33.9051ZM65.5136 34.5091C65.8142 32.5984 67.4698 31.137 69.4648 31.137V29.137C66.4699 29.137 63.9892 31.3302 63.5379 34.1982L65.5136 34.5091ZM61.2721 54.0046L65.5029 34.5663L63.5486 34.141L59.3179 53.5793L61.2721 54.0046ZM62.5953 56.024C61.6593 55.8378 61.0691 54.9372 61.2721 54.0046L59.3179 53.5793C58.877 55.6049 60.1719 57.5811 62.2051 57.9856L62.5953 56.024ZM64.6941 54.6488C64.4882 55.595 63.5451 56.213 62.5953 56.024L62.2051 57.9856C64.2245 58.3873 66.2105 57.086 66.6484 55.0741L64.6941 54.6488ZM67.8989 39.9243L64.6941 54.6488L66.6484 55.0741L69.8532 40.3496L67.8989 39.9243ZM69.5649 39.137H68.8761V41.137H69.5649V39.137ZM70.4648 41.137C70.4648 40.8617 70.4925 40.5939 70.5449 40.3359L68.5848 39.938C68.506 40.3262 68.4648 40.7273 68.4648 41.137H70.4648ZM70.4648 78.137V41.137H68.4648V78.137H70.4648ZM81.4648 77.137H69.4648V79.137H81.4648V77.137ZM80.4648 41.137V78.137H82.4648V41.137H80.4648ZM80.3848 40.3359C80.4372 40.5939 80.4648 40.8617 80.4648 41.137H82.4648C82.4648 40.7273 82.4236 40.3262 82.3448 39.938L80.3848 40.3359ZM81.4613 39.137H81.3648V41.137H81.4613V39.137ZM86.6877 54.1768L82.4197 39.8514L80.503 40.4225L84.771 54.7479L86.6877 54.1768ZM88.8917 55.4066C87.9562 55.6588 86.9644 55.1053 86.6877 54.1768L84.771 54.7479C85.3572 56.7154 87.4301 57.872 89.4123 57.3376L88.8917 55.4066ZM90.0539 53.3236C90.3247 54.2325 89.8073 55.1597 88.8917 55.4066L89.4123 57.3376C91.4143 56.7979 92.5627 54.7397 91.9706 52.7525L90.0539 53.3236ZM84.3535 34.1907L90.0539 53.3236L91.9706 52.7525L86.2703 33.6196L84.3535 34.1907ZM80.4648 31.137C82.3325 31.137 83.9035 32.418 84.3425 34.1507L86.2813 33.6595C85.6229 31.0608 83.2697 29.137 80.4648 29.137V31.137ZM69.4648 31.137H80.4648V29.137H69.4648V31.137Z" fill="black"/>
<path fill-rule="evenodd" clip-rule="evenodd" d="M22.969 5.70333L39.2326 22.5615V68.137H51.2326V23.3122L67.9007 5.74625C68.9407 4.65022 68.9177 2.89562 67.8493 1.82724C66.7809 0.758857 65.0718 0.781266 64.0317 1.87729L49.4155 17.2808C48.5509 16.5663 47.4419 16.137 46.2326 16.137H44.2326C43.2067 16.137 42.253 16.446 41.4594 16.9759L26.8451 1.82725C25.7941 0.737858 24.0744 0.722423 23.0041 1.79277C21.9337 2.86312 21.918 4.61394 22.969 5.70333Z" fill="white"/>
<path d="M39.2326 22.5615H40.2326C40.2326 22.3025 40.1321 22.0536 39.9523 21.8672L39.2326 22.5615ZM22.969 5.70333L23.6887 5.00903L22.969 5.70333ZM39.2326 68.137H38.2326C38.2326 68.6893 38.6803 69.137 39.2326 69.137V68.137ZM51.2326 68.137V69.137C51.7849 69.137 52.2326 68.6893 52.2326 68.137H51.2326ZM51.2326 23.3122L50.5072 22.6239C50.3309 22.8097 50.2326 23.0561 50.2326 23.3122H51.2326ZM67.9007 5.74625L67.1753 5.05792L67.9007 5.74625ZM64.0317 1.87729L63.3063 1.18897L64.0317 1.87729ZM49.4155 17.2808L48.7785 18.0517C49.1838 18.3865 49.7791 18.3505 50.1409 17.9691L49.4155 17.2808ZM41.4594 16.9759L40.7397 17.6702C41.0756 18.0183 41.6125 18.0762 42.0147 17.8075L41.4594 16.9759ZM26.8451 1.82725L26.1254 2.52155L26.8451 1.82725ZM23.0041 1.79277L22.297 1.08567L22.297 1.08567L23.0041 1.79277ZM39.9523 21.8672L23.6887 5.00903L22.2493 6.39763L38.5129 23.2558L39.9523 21.8672ZM40.2326 68.137V22.5615H38.2326V68.137H40.2326ZM51.2326 67.137H39.2326V69.137H51.2326V67.137ZM50.2326 23.3122V68.137H52.2326V23.3122H50.2326ZM67.1753 5.05792L50.5072 22.6239L51.958 24.0005L68.6261 6.43457L67.1753 5.05792ZM67.1422 2.53435C67.8273 3.21943 67.8422 4.35512 67.1753 5.05792L68.6261 6.43457C70.0392 4.94532 70.0081 2.57182 68.5564 1.12013L67.1422 2.53435ZM64.7571 2.56562C65.4099 1.87767 66.4716 1.86375 67.1422 2.53435L68.5564 1.12013C67.0903 -0.346034 64.7336 -0.315136 63.3063 1.18897L64.7571 2.56562ZM50.1409 17.9691L64.7571 2.56562L63.3063 1.18897L48.6901 16.5925L50.1409 17.9691ZM46.2326 17.137C47.2009 17.137 48.0865 17.4798 48.7785 18.0517L50.0525 16.5099C49.0153 15.6528 47.6828 15.137 46.2326 15.137V17.137ZM44.2326 17.137H46.2326V15.137H44.2326V17.137ZM42.0147 17.8075C42.649 17.3839 43.4105 17.137 44.2326 17.137V15.137C43.003 15.137 41.8569 15.508 40.9041 16.1443L42.0147 17.8075ZM26.1254 2.52155L40.7397 17.6702L42.1791 16.2816L27.5647 1.13295L26.1254 2.52155ZM23.7112 2.49988C24.386 1.82502 25.4627 1.83468 26.1254 2.52155L27.5647 1.13295C26.1254 -0.358968 23.7628 -0.380174 22.297 1.08567L23.7112 2.49988ZM23.6887 5.00903C23.0163 4.31207 23.0264 3.18465 23.7112 2.49988L22.297 1.08567C20.841 2.54159 20.8197 4.9158 22.2493 6.39763L23.6887 5.00903Z" fill="black"/>
<circle cx="45.7329" cy="7.63727" r="5.5" stroke="black" stroke-width="2"/>
<path d="M75.4648 58.637V77.637" stroke="black" stroke-width="2" stroke-linecap="round"/>
<path d="M45.2329 42.1373V67.1373" stroke="black" stroke-width="2" stroke-linecap="round"/>
</svg>
