<svg width="84" height="96" viewBox="0 0 84 96" fill="none" xmlns="http://www.w3.org/2000/svg">
<path d="M55.364 57.4823C52.1311 56.6006 44.8716 54.0436 41.6974 50.8694C37.7296 46.9017 36.848 42.1625 31.1167 34.9984C29.3533 32.7941 32.8802 32.3533 35.0845 32.7941C36.8479 33.1468 41.1096 37.6436 42.5791 39.4071L29.794 16.0415C28.9123 14.7188 28.9123 12.691 30.6759 11.6328C32.88 10.3101 34.6436 12.6615 35.0845 13.3963L44.3426 28.3856C46.8408 27.063 52.4556 25.2995 55.364 25.2995C58.8911 25.2995 61.977 27.063 64.6222 31.0307C66.7383 34.2049 68.1491 44.1096 68.5899 48.6651" stroke="black" stroke-width="2" stroke-linecap="round"/>
<path d="M71.2847 47.3593C72.6073 46.9185 74.8116 55.2948 74.8116 55.2948C74.8116 56.6174 71.2846 59.8798 67.7577 62.3486C63.3491 65.4346 58.7091 68.0798 57.1773 68.0798C56.2954 68.0798 53.6503 59.7034 54.0912 58.8216C54.4438 58.1163 69.9621 47.8 71.2847 47.3593Z" stroke="black" stroke-width="2"/>
<rect x="1" y="80.8925" width="15.871" height="14.1075" rx="1" stroke="black" stroke-width="2"/>
<path d="M54.785 58.8494H46.9678C46.4155 58.8494 45.9678 59.2971 45.9678 59.8494L45.9678 94C45.9678 94.5523 46.4155 95 46.9678 95H59.957C60.5093 95 60.957 94.5523 60.957 94V67.2258" stroke="black" stroke-width="2"/>
<rect x="67.1289" y="69.4301" width="15.871" height="25.5699" rx="1" stroke="black" stroke-width="2"/>
<path d="M41.3969 23.2453H45.7135C46.5408 23.2453 47.0103 22.298 46.5092 21.6397L31.3335 1.70134C30.9333 1.17554 30.1423 1.17554 29.7421 1.70134L14.5664 21.6397C14.0653 22.298 14.5348 23.2453 15.3621 23.2453H22.0432C22.5954 23.2453 23.0432 23.693 23.0432 24.2453V94C23.0432 94.5523 23.4909 95 24.0432 95H37.0324C37.5847 95 38.0324 94.5523 38.0324 94V45.6236M38.0324 30.6344V34.6021" stroke="black" stroke-width="2"/>
</svg>
