<svg width="112" height="113"  viewBox="0 0 112 113" fill="none" xmlns="http://www.w3.org/2000/svg">
<path d="M74.5364 91.9776C71.9805 89.3988 66.554 83.0668 65.2952 78.3688C63.7216 72.4963 65.4617 67.5719 63.965 57.7448C63.5045 54.7212 67.0527 56.2182 68.8822 57.826C70.3458 59.1122 71.9085 65.6404 72.3321 68.0911L72.9936 39.2406C72.8828 37.5218 73.9814 35.6191 76.2095 35.5816C78.9942 35.5346 79.3751 38.6963 79.3908 39.6246L79.9576 58.7048C83.0182 58.8172 89.242 60.2043 91.971 61.7799C95.2806 63.6906 97.2208 67.0171 97.5533 72.1731C97.8194 76.2978 93.7774 86.3558 91.7231 90.8692" stroke="black" stroke-width="2" stroke-linecap="round"/>
<path d="M94.069 91.1036C95.5488 91.4066 93.0794 100.46 93.0794 100.46C92.3628 101.701 87.2861 102.852 82.6393 103.258C76.8308 103.765 71.0439 103.733 69.6066 102.904C68.7791 102.426 70.835 93.1331 71.7264 92.5446C72.4394 92.0738 92.5892 90.8007 94.069 91.1036Z" stroke="black" stroke-width="2"/>
<path d="M64.1803 72H47C44.7909 72 43 70.2091 43 68V5C43 2.79086 44.7909 1 47 1H99C101.209 1 103 2.79086 103 5V68C103 70.2091 101.209 72 99 72H98.3279" stroke="black" stroke-width="2"/>
<mask id="path-4-inside-1" fill="white">
<rect x="49" y="7" width="48" height="11" rx="1"/>
</mask>
<rect x="49" y="7" width="48" height="11" rx="1" stroke="black" stroke-width="4" mask="url(#path-4-inside-1)"/>
<circle cx="54" cy="28" r="4" stroke="black" stroke-width="2"/>
<circle cx="54" cy="43" r="4" stroke="black" stroke-width="2"/>
<circle cx="54" cy="57" r="4" stroke="black" stroke-width="2"/>
<circle cx="73" cy="28" r="4" stroke="black" stroke-width="2"/>
<path d="M73 46C70.7909 46 69 44.2091 69 42C69 39.7909 70.7909 38 73 38" stroke="black" stroke-width="2"/>
<circle cx="92" cy="28" r="4" stroke="black" stroke-width="2"/>
<circle cx="92" cy="43" r="4" stroke="black" stroke-width="2"/>
<circle cx="92" cy="57" r="4" stroke="black" stroke-width="2"/>
<rect x="90" y="10" width="4" height="5" rx="1" fill="black"/>
<rect x="84" y="10" width="4" height="5" rx="1" fill="black"/>
<path d="M30.2651 38.5L30.2653 98.5304" stroke="black" stroke-width="2" stroke-linecap="round"/>
<path d="M54.0153 79.5L54.0151 99.0304" stroke="black" stroke-width="2" stroke-linecap="round"/>
<path d="M22.4868 92.1665L30.265 99.9447L38.0432 92.1665" stroke="black" stroke-width="2"/>
<path d="M46.2368 92.6664L54.015 100.445L61.7932 92.6664" stroke="black" stroke-width="2"/>
</svg>
