<svg width="109" height="84" viewBox="0 0 109 84" fill="none" xmlns="http://www.w3.org/2000/svg">
<path fill-rule="evenodd" clip-rule="evenodd" d="M36 2V9H106V2H36ZM35 0C34.4477 0 34 0.447715 34 1V10C34 10.5523 34.4477 11 35 11H107C107.552 11 108 10.5523 108 10V1C108 0.447715 107.552 0 107 0H35Z" fill="#006BCA"/>
<path fill-rule="evenodd" clip-rule="evenodd" d="M19.5 40C24.7467 40 29 35.7467 29 30.5C29 25.2533 24.7467 21 19.5 21C14.2533 21 10 25.2533 10 30.5C10 35.7467 14.2533 40 19.5 40ZM19.5 42C25.8513 42 31 36.8513 31 30.5C31 24.1487 25.8513 19 19.5 19C13.1487 19 8 24.1487 8 30.5C8 36.8513 13.1487 42 19.5 42Z" fill="#006BCA"/>
<path fill-rule="evenodd" clip-rule="evenodd" d="M65 65C68.866 65 72 61.866 72 58C72 54.134 68.866 51 65 51C61.134 51 58 54.134 58 58C58 61.866 61.134 65 65 65ZM65 67C69.9706 67 74 62.9706 74 58C74 53.0294 69.9706 49 65 49C60.0294 49 56 53.0294 56 58C56 62.9706 60.0294 67 65 67Z" fill="#006BCA"/>
<path fill-rule="evenodd" clip-rule="evenodd" d="M91 65C94.866 65 98 61.866 98 58C98 54.134 94.866 51 91 51C87.134 51 84 54.134 84 58C84 61.866 87.134 65 91 65ZM91 67C95.9706 67 100 62.9706 100 58C100 53.0294 95.9706 49 91 49C86.0294 49 82 53.0294 82 58C82 62.9706 86.0294 67 91 67Z" fill="#006BCA"/>
<path fill-rule="evenodd" clip-rule="evenodd" d="M90.9998 67C82.7155 67 75.9998 73.7157 75.9998 82H106C106 73.7157 99.2841 67 90.9998 67ZM108 84H73.9996C73.9696 83.6562 73.9814 83.0674 73.9914 82.5707C73.9953 82.3796 73.9988 82.2022 73.9996 82.0576C73.9997 82.0377 73.9998 82.0185 73.9998 82C73.9998 72.6112 81.611 65 90.9998 65C100.389 65 108 72.6112 108 82C108 82.1536 108.004 82.3529 108.008 82.5698C108.018 83.0667 108.03 83.6559 108 84Z" fill="#006BCA"/>
<path fill-rule="evenodd" clip-rule="evenodd" d="M64.9496 67C56.6735 67 50 73.5658 50 81.6216C50 81.7481 50.0016 81.8743 50.0049 82H68.7025C69.2548 82 69.7025 82.4477 69.7025 83C69.7025 83.5523 69.2548 84 68.7025 84H48.1465L48.0652 83.0889C48.022 82.6052 48 82.1158 48 81.6216C48 72.4223 55.6083 65 64.9496 65C68.5151 65 71.8275 66.0807 74.5601 67.9283C75.0176 68.2377 75.1378 68.8594 74.8284 69.3169C74.5191 69.7744 73.8974 69.8945 73.4399 69.5852C71.0298 67.9556 68.106 67 64.9496 67Z" fill="#006BCA"/>
<path fill-rule="evenodd" clip-rule="evenodd" d="M49.6308 44.7777L40.872 52.6145C40.081 53.3223 38.8748 53.2889 38.1242 52.5383L31.086 45.5001L8.72098 45.5001L2.7058 63.5456L7.50796 66.3469C8.1224 66.7053 8.50022 67.3631 8.50022 68.0745V81.0001H30.5002V59.9087C30.5002 58.2953 32.3122 57.346 33.6386 58.2643L37.9062 61.2187L52.7045 47.3751C52.8813 47.0377 53.0457 46.5381 53.0379 46.0512C53.0305 45.5919 52.8768 45.1575 52.4002 44.8001C51.3266 43.9949 50.1356 44.4176 49.6308 44.7777ZM48.4002 43.2001C49.2477 42.5644 51.4962 41.6221 53.6002 43.2001C54.6505 43.9878 55.022 45.0478 55.0376 46.019C55.0526 46.9489 54.7477 47.8016 54.4488 48.3545C54.3431 48.5502 54.2103 48.7052 54.0811 48.8261L39.2725 62.6793C38.5849 63.3225 37.5419 63.399 36.7677 62.8631L32.5002 59.9087V81.0001C32.5002 82.1047 31.6048 83.0001 30.5002 83.0001H8.50022C7.39565 83.0001 6.50022 82.1047 6.50022 81.0001V68.0745L1.69805 65.2732C0.880353 64.7962 0.509072 63.8113 0.80843 62.9132L6.82361 44.8676C7.09584 44.0509 7.86012 43.5001 8.72098 43.5001H31.086C31.6164 43.5001 32.1251 43.7108 32.5002 44.0859L39.5384 51.1241L48.3656 43.226L48.4002 43.2001Z" fill="#006BCA"/>
<path fill-rule="evenodd" clip-rule="evenodd" d="M10.1548 58.9659C10.4497 58.4989 11.0673 58.3595 11.5342 58.6544L21.1285 64.7139L21.2074 64.7928C21.7542 65.3396 22.2976 66.0125 22.4808 66.9288C22.6655 67.8523 22.4498 68.8368 21.8947 69.9471C21.2326 71.2713 20.2462 71.9789 19.1943 72.2186C18.201 72.445 17.2443 72.2336 16.5769 71.9061L4.09751 66.4152C3.592 66.1928 3.36251 65.6027 3.58494 65.0971C3.80736 64.5916 4.39748 64.3621 4.90299 64.5846L17.4255 70.0945L17.4475 70.1055C17.7791 70.2713 18.2739 70.3771 18.75 70.2686C19.1793 70.1708 19.6929 69.8784 20.1058 69.0527C20.5507 68.163 20.585 67.6475 20.5197 67.321C20.4567 67.0064 20.2696 66.6977 19.8687 66.2838L10.4663 60.3454C9.99931 60.0505 9.85985 59.4328 10.1548 58.9659Z" fill="#006BCA"/>
<path fill-rule="evenodd" clip-rule="evenodd" d="M40 10C40.5523 10 41 10.4477 41 11V42C41 42.5523 40.5523 43 40 43C39.4477 43 39 42.5523 39 42V11C39 10.4477 39.4477 10 40 10Z" fill="#006BCA"/>
<path fill-rule="evenodd" clip-rule="evenodd" d="M103 10C103.552 10 104 10.4477 104 11V47C104 47.5523 103.552 48 103 48C102.448 48 102 47.5523 102 47V11C102 10.4477 102.448 10 103 10Z" fill="#006BCA"/>
<path fill-rule="evenodd" clip-rule="evenodd" d="M62 21C62 20.4477 62.4477 20 63 20H88C88.5523 20 89 20.4477 89 21C89 21.5523 88.5523 22 88 22H63C62.4477 22 62 21.5523 62 21Z" fill="#006BCA"/>
<path fill-rule="evenodd" clip-rule="evenodd" d="M56 21C56 20.4477 56.4477 20 57 20H59C59.5523 20 60 20.4477 60 21C60 21.5523 59.5523 22 59 22H57C56.4477 22 56 21.5523 56 21Z" fill="#006BCA"/>
<path fill-rule="evenodd" clip-rule="evenodd" d="M62 29C62 28.4477 62.4477 28 63 28H88C88.5523 28 89 28.4477 89 29C89 29.5523 88.5523 30 88 30H63C62.4477 30 62 29.5523 62 29Z" fill="#006BCA"/>
<path fill-rule="evenodd" clip-rule="evenodd" d="M56 29C56 28.4477 56.4477 28 57 28H59C59.5523 28 60 28.4477 60 29C60 29.5523 59.5523 30 59 30H57C56.4477 30 56 29.5523 56 29Z" fill="#006BCA"/>
</svg>
