<svg width="107" height="109" viewBox="0 0 107 109" fill="none" xmlns="http://www.w3.org/2000/svg">
<path fill-rule="evenodd" clip-rule="evenodd" d="M70.4671 34.5C64.6859 34.5 59.9924 29.8028 59.9924 24C59.9924 18.1972 64.6859 13.5 70.4671 13.5C76.2484 13.5 80.9419 18.1972 80.9419 24C80.9419 29.8028 76.2484 34.5 70.4671 34.5ZM70.4671 36.5C63.5775 36.5 57.9924 30.9036 57.9924 24C57.9924 17.0964 63.5775 11.5 70.4671 11.5C77.3568 11.5 82.9419 17.0964 82.9419 24C82.9419 30.9036 77.3568 36.5 70.4671 36.5Z" fill="#006BCA"/>
<path fill-rule="evenodd" clip-rule="evenodd" d="M37.5 34.5C43.299 34.5 48 29.799 48 24C48 18.201 43.299 13.5 37.5 13.5C31.701 13.5 27 18.201 27 24C27 29.799 31.701 34.5 37.5 34.5ZM37.5 36.5C44.4036 36.5 50 30.9036 50 24C50 17.0964 44.4036 11.5 37.5 11.5C30.5964 11.5 25 17.0964 25 24C25 30.9036 30.5964 36.5 37.5 36.5Z" fill="#006BCA"/>
<path fill-rule="evenodd" clip-rule="evenodd" d="M37.5 26.5C38.8807 26.5 40 25.3807 40 24C40 22.6193 38.8807 21.5 37.5 21.5C36.1193 21.5 35 22.6193 35 24C35 25.3807 36.1193 26.5 37.5 26.5ZM37.5 28.5C39.9853 28.5 42 26.4853 42 24C42 21.5147 39.9853 19.5 37.5 19.5C35.0147 19.5 33 21.5147 33 24C33 26.4853 35.0147 28.5 37.5 28.5Z" fill="#006BCA"/>
<path fill-rule="evenodd" clip-rule="evenodd" d="M21.9699 0.152072C22.2622 -0.0306801 22.628 -0.0499758 22.938 0.101012C26.2137 1.69687 31.3224 4.41463 36.0227 7.39279C38.3727 8.88171 40.6358 10.4453 42.522 11.9748C44.3903 13.4898 45.9606 15.028 46.8517 16.4759C50.1176 21.783 53.6142 31.1803 54.9487 35.1838C55.1233 35.7077 54.8402 36.274 54.3162 36.4487C53.7923 36.6233 53.226 36.3402 53.0513 35.8162C51.7191 31.8197 48.2824 22.617 45.1483 17.5241C44.4394 16.372 43.0847 15.006 41.2623 13.5283C39.4579 12.0651 37.2648 10.5475 34.9523 9.08222C30.968 6.55778 26.6745 4.21736 23.5 2.61315V8.73444L25.3682 12.0039C25.6423 12.4834 25.4757 13.0942 24.9961 13.3682C24.5166 13.6423 23.9058 13.4757 23.6318 12.9961L21.6318 9.49614C21.5454 9.34504 21.5 9.17403 21.5 9V1C21.5 0.655257 21.6776 0.334824 21.9699 0.152072Z" fill="#006BCA"/>
<path fill-rule="evenodd" clip-rule="evenodd" d="M25.503 26.6215C25.9881 26.8854 26.1675 27.4926 25.9036 27.9778L23.0336 33.2543V44.4999C23.0336 44.5195 23.033 44.539 23.0318 44.5585C22.8714 47.2931 23.2331 54.2788 25.9318 60.078C28.0062 64.5357 30.9713 67.7471 32.9999 69.4862V46.4999C32.9999 46.2507 32.8866 45.8558 32.5863 45.3104C32.2966 44.7842 31.8851 44.2107 31.4147 43.6285C30.7837 42.8476 30.1366 42.1531 29.5788 41.5544C29.2729 41.2261 28.9939 40.9266 28.759 40.6574C28.3959 40.2413 28.4389 39.6096 28.855 39.2465C29.2712 38.8833 29.9029 38.9263 30.266 39.3425C30.4261 39.526 30.6609 39.7787 30.938 40.077C31.5267 40.7107 32.3068 41.5504 32.9702 42.3714C33.4762 42.9975 33.9684 43.674 34.3383 44.3457C34.6976 44.9983 34.9999 45.7492 34.9999 46.4999V71.4999C34.9999 71.8652 34.8008 72.2013 34.4805 72.3769C34.1603 72.5524 33.7698 72.5394 33.4619 72.3429C31.4887 71.0837 26.9983 67.1103 24.1185 60.9219C21.2427 54.742 20.8658 47.4228 21.0336 44.4711V32.9999C21.0336 32.833 21.0753 32.6688 21.1551 32.5221L24.1467 27.0221C24.4106 26.537 25.0178 26.3576 25.503 26.6215Z" fill="#006BCA"/>
<path d="M43 43.5C43 44.6046 42.1046 45.5 41 45.5C39.8954 45.5 39 44.6046 39 43.5C39 42.3954 39.8954 41.5 41 41.5C42.1046 41.5 43 42.3954 43 43.5Z" fill="#006BCA"/>
<path d="M51 47.5C51 48.6046 50.1046 49.5 49 49.5C47.8954 49.5 47 48.6046 47 47.5C47 46.3954 47.8954 45.5 49 45.5C50.1046 45.5 51 46.3954 51 47.5Z" fill="#006BCA"/>
<path fill-rule="evenodd" clip-rule="evenodd" d="M70.4671 26.5C69.0952 26.5 67.9762 25.3845 67.9762 24C67.9762 22.6155 69.0952 21.5 70.4671 21.5C71.839 21.5 72.958 22.6155 72.958 24C72.958 25.3845 71.839 26.5 70.4671 26.5ZM70.4671 28.5C67.9868 28.5 65.9762 26.4853 65.9762 24C65.9762 21.5147 67.9868 19.5 70.4671 19.5C72.9474 19.5 74.958 21.5147 74.958 24C74.958 26.4853 72.9474 28.5 70.4671 28.5Z" fill="#006BCA"/>
<path fill-rule="evenodd" clip-rule="evenodd" d="M85.9663 0.151861C85.6738 -0.0308497 85.3078 -0.0499356 84.9978 0.101361C81.7287 1.69726 76.6302 4.41506 71.9393 7.39327C69.594 8.88223 67.3353 10.4459 65.4529 11.9755C63.5883 13.4905 62.0211 15.0288 61.1319 16.4767C57.8726 21.7837 54.3831 31.1809 53.0513 35.1843C52.8769 35.7084 53.1604 36.2745 53.6845 36.4489C54.2085 36.6232 54.7747 36.3397 54.949 35.8157C56.2785 31.8191 59.7083 22.6163 62.8361 17.5233C63.5437 16.3712 64.8955 15.0053 66.7141 13.5277C68.5148 12.0645 70.7034 10.5469 73.0112 9.08173C76.9859 6.5583 81.2689 4.21876 84.4365 2.61463V8.7349L82.5719 12.0046C82.2983 12.4844 82.4654 13.0951 82.9452 13.3687C83.4249 13.6423 84.0356 13.4751 84.3092 12.9954L86.3052 9.49538C86.3913 9.34447 86.4365 9.17373 86.4365 9V1C86.4365 0.655116 86.2588 0.334571 85.9663 0.151861Z" fill="#006BCA"/>
<path fill-rule="evenodd" clip-rule="evenodd" d="M82.497 26.6215C82.0119 26.8854 81.8325 27.4926 82.0964 27.9778L84.9664 33.2543V44.4999C84.9664 44.5195 84.967 44.539 84.9682 44.5585C85.1286 47.2931 84.7669 54.2788 82.0682 60.078C79.9938 64.5357 77.0287 67.7471 75.0001 69.4862V46.4999C75.0001 46.2507 75.1134 45.8558 75.4137 45.3104C75.7034 44.7842 76.1149 44.2107 76.5853 43.6285C77.2163 42.8476 77.8634 42.1531 78.4212 41.5544C78.7271 41.2261 79.0061 40.9266 79.241 40.6574C79.6041 40.2413 79.5611 39.6096 79.145 39.2465C78.7288 38.8833 78.0971 38.9263 77.734 39.3425C77.5739 39.526 77.3391 39.7787 77.062 40.077C76.4733 40.7107 75.6932 41.5504 75.0298 42.3714C74.5238 42.9975 74.0316 43.674 73.6617 44.3457C73.3024 44.9983 73.0001 45.7492 73.0001 46.4999V71.4999C73.0001 71.8652 73.1992 72.2013 73.5195 72.3769C73.8397 72.5524 74.2302 72.5394 74.5381 72.3429C76.5113 71.0837 81.0017 67.1103 83.8815 60.9219C86.7573 54.742 87.1342 47.4228 86.9664 44.4711V32.9999C86.9664 32.833 86.9247 32.6688 86.8449 32.5221L83.8533 27.0221C83.5894 26.537 82.9822 26.3576 82.497 26.6215Z" fill="#006BCA"/>
<path d="M64.9783 43.5C64.9783 44.6046 65.8719 45.5 66.9743 45.5C68.0766 45.5 68.9702 44.6046 68.9702 43.5C68.9702 42.3954 68.0766 41.5 66.9743 41.5C65.8719 41.5 64.9783 42.3954 64.9783 43.5Z" fill="#006BCA"/>
<path d="M56.9939 47.5C56.9939 48.6046 57.8875 49.5 58.9899 49.5C60.0922 49.5 60.9858 48.6046 60.9858 47.5C60.9858 46.3954 60.0922 45.5 58.9899 45.5C57.8875 45.5 56.9939 46.3954 56.9939 47.5Z" fill="#006BCA"/>
<path fill-rule="evenodd" clip-rule="evenodd" d="M53.7633 6.43737C49.013 6.49988 44.321 6.74999 42.6416 6.98991C40.0741 7.35669 37.1963 9.01733 36.0814 9.81369L34.9189 8.18622C36.1374 7.31592 39.3262 5.44323 42.3588 5.01001C44.1793 4.74993 48.9873 4.50004 53.737 4.43754C56.1227 4.40615 58.5178 4.42167 60.5431 4.50869C62.5304 4.59408 64.2698 4.75127 65.2749 5.03843C68.1818 5.86898 71.2929 7.44407 72.4963 8.13172L71.504 9.8682C70.3741 9.22251 67.4186 7.73094 64.7255 6.96148C63.9805 6.74865 62.47 6.59333 60.4573 6.50685C58.4825 6.422 56.1277 6.40626 53.7633 6.43737Z" fill="#006BCA"/>
<path fill-rule="evenodd" clip-rule="evenodd" d="M41 70.8911L54 77.3078L67 70.8911V79.4999C67 80.0522 66.5523 80.4999 66 80.4999C65.4477 80.4999 65 80.0522 65 79.4999V74.1087L54 79.5381L43 74.1087V79.4999C43 80.0522 42.5523 80.4999 42 80.4999C41.4477 80.4999 41 80.0522 41 79.4999V70.8911Z" fill="#006BCA"/>
<path fill-rule="evenodd" clip-rule="evenodd" d="M7 48.5C7 47.9477 7.44772 47.5 8 47.5H17.5C18.0523 47.5 18.5 47.9477 18.5 48.5C18.5 49.0523 18.0523 49.5 17.5 49.5H9V98.5H46C48.0544 98.5 50.6538 98.7396 52.7071 100.793C53.5061 101.592 54.0184 102.945 54.3497 104.115C54.6963 105.339 54.9056 106.595 54.9939 107.39C55.0549 107.938 54.6593 108.433 54.1104 108.494C53.5615 108.555 53.0671 108.159 53.0061 107.61C52.9278 106.905 52.737 105.761 52.4253 104.66C52.0983 103.505 51.6939 102.608 51.2929 102.207C49.8334 100.748 47.9456 100.5 46 100.5H8C7.44772 100.5 7 100.052 7 99.5V48.5Z" fill="#006BCA"/>
<path fill-rule="evenodd" clip-rule="evenodd" d="M100 47.5C100 46.9477 99.5523 46.5 99 46.5H90.5934C90.0411 46.5 89.5934 46.9477 89.5934 47.5C89.5934 48.0523 90.0411 48.5 90.5934 48.5H98V98.4328H61.9121C59.8761 98.4328 57.298 98.6756 55.2641 100.749C54.475 101.554 53.9694 102.916 53.6422 104.094C53.2998 105.327 53.0931 106.591 53.0059 107.392C52.9461 107.941 53.3426 108.434 53.8917 108.494C54.4407 108.554 54.9343 108.157 54.9941 107.608C55.0717 106.896 55.2606 105.74 55.5693 104.629C55.8932 103.463 56.2943 102.555 56.692 102.15C58.1323 100.681 59.992 100.433 61.9121 100.433H99C99.5523 100.433 100 99.9851 100 99.4328V47.5Z" fill="#006BCA"/>
<path fill-rule="evenodd" clip-rule="evenodd" d="M54 86.5C54.5523 86.5 55 86.9477 55 87.5V106.5C55 107.052 54.5523 107.5 54 107.5C53.4477 107.5 53 107.052 53 106.5V87.5C53 86.9477 53.4477 86.5 54 86.5Z" fill="#006BCA"/>
<path fill-rule="evenodd" clip-rule="evenodd" d="M14 89.5C14 88.9477 14.4477 88.5 15 88.5H46C46.5523 88.5 47 88.9477 47 89.5C47 90.0523 46.5523 90.5 46 90.5H15C14.4477 90.5 14 90.0523 14 89.5Z" fill="#006BCA"/>
<path fill-rule="evenodd" clip-rule="evenodd" d="M60 89.5C60 88.9477 60.4477 88.5 61 88.5H92C92.5523 88.5 93 88.9477 93 89.5C93 90.0523 92.5523 90.5 92 90.5H61C60.4477 90.5 60 90.0523 60 89.5Z" fill="#006BCA"/>
<path fill-rule="evenodd" clip-rule="evenodd" d="M14 81.5C14 80.9477 14.4477 80.5 15 80.5H35.5C36.0523 80.5 36.5 80.9477 36.5 81.5C36.5 82.0523 36.0523 82.5 35.5 82.5H15C14.4477 82.5 14 82.0523 14 81.5Z" fill="#006BCA"/>
<path fill-rule="evenodd" clip-rule="evenodd" d="M71 81.5C71 80.9477 71.4477 80.5 72 80.5H92.5C93.0523 80.5 93.5 80.9477 93.5 81.5C93.5 82.0523 93.0523 82.5 92.5 82.5H72C71.4477 82.5 71 82.0523 71 81.5Z" fill="#006BCA"/>
<path fill-rule="evenodd" clip-rule="evenodd" d="M14 74.5C14 73.9477 14.4477 73.5 15 73.5H27.5C28.0523 73.5 28.5 73.9477 28.5 74.5C28.5 75.0523 28.0523 75.5 27.5 75.5H15C14.4477 75.5 14 75.0523 14 74.5Z" fill="#006BCA"/>
<path fill-rule="evenodd" clip-rule="evenodd" d="M79 74.5C79 73.9477 79.4477 73.5 80 73.5H92.5C93.0523 73.5 93.5 73.9477 93.5 74.5C93.5 75.0523 93.0523 75.5 92.5 75.5H80C79.4477 75.5 79 75.0523 79 74.5Z" fill="#006BCA"/>
<path fill-rule="evenodd" clip-rule="evenodd" d="M14 67.5C14 66.9477 14.4477 66.5 15 66.5H20.5C21.0523 66.5 21.5 66.9477 21.5 67.5C21.5 68.0523 21.0523 68.5 20.5 68.5H15C14.4477 68.5 14 68.0523 14 67.5Z" fill="#006BCA"/>
<path fill-rule="evenodd" clip-rule="evenodd" d="M86 67.5C86 66.9477 86.4477 66.5 87 66.5H92.5C93.0523 66.5 93.5 66.9477 93.5 67.5C93.5 68.0523 93.0523 68.5 92.5 68.5H87C86.4477 68.5 86 68.0523 86 67.5Z" fill="#006BCA"/>
<path fill-rule="evenodd" clip-rule="evenodd" d="M14 60.5C14 59.9477 14.4477 59.5 15 59.5H17.5C18.0523 59.5 18.5 59.9477 18.5 60.5C18.5 61.0523 18.0523 61.5 17.5 61.5H15C14.4477 61.5 14 61.0523 14 60.5Z" fill="#006BCA"/>
<path fill-rule="evenodd" clip-rule="evenodd" d="M89 60.5C89 59.9477 89.4477 59.5 90 59.5H92.5C93.0523 59.5 93.5 59.9477 93.5 60.5C93.5 61.0523 93.0523 61.5 92.5 61.5H90C89.4477 61.5 89 61.0523 89 60.5Z" fill="#006BCA"/>
<path fill-rule="evenodd" clip-rule="evenodd" d="M0 54.5C0 52.8431 1.34315 51.5 3 51.5H7.57143C8.12371 51.5 8.57143 51.9477 8.57143 52.5C8.57143 53.0523 8.12371 53.5 7.57143 53.5H3C2.44772 53.5 2 53.9477 2 54.5V105.5C2 106.052 2.44772 106.5 3 106.5H47C47.5523 106.5 48 106.948 48 107.5C48 108.052 47.5523 108.5 47 108.5H3C1.34314 108.5 0 107.157 0 105.5V54.5Z" fill="#006BCA"/>
<path fill-rule="evenodd" clip-rule="evenodd" d="M107 55.5C107 53.8431 105.657 52.5 104 52.5H99.5714C99.0191 52.5 98.5714 52.9477 98.5714 53.5C98.5714 54.0523 99.0191 54.5 99.5714 54.5H104C104.552 54.5 105 54.9477 105 55.5V105.5C105 106.052 104.552 106.5 104 106.5H61C60.4477 106.5 60 106.948 60 107.5C60 108.052 60.4477 108.5 61 108.5H104C105.657 108.5 107 107.157 107 105.5V55.5Z" fill="#006BCA"/>
</svg>
