<svg width="103" height="119" viewBox="0 0 103 119" fill="none" xmlns="http://www.w3.org/2000/svg">
<path fill-rule="evenodd" clip-rule="evenodd" d="M51 29C58.7923 29 65 22.8965 65 15.5C65 8.10353 58.7923 2 51 2C43.2077 2 37 8.10353 37 15.5C37 22.8965 43.2077 29 51 29ZM51 31C59.8366 31 67 24.0604 67 15.5C67 6.93959 59.8366 0 51 0C42.1634 0 35 6.93959 35 15.5C35 24.0604 42.1634 31 51 31Z" fill="#006BCA"/>
<path fill-rule="evenodd" clip-rule="evenodd" d="M57.0149 31.7812L57.7027 32.0854C61.3518 33.6986 69.1934 37.1917 71.1726 38.176C72.6794 38.9254 73.8722 40.5209 74.6727 42.1133C75.4813 43.722 76 45.5474 76 46.9642V67H74V46.9642C74 45.9525 73.6031 44.4387 72.8858 43.0116C72.1603 41.5683 71.2167 40.4316 70.282 39.9668C68.4679 39.0645 61.4634 35.938 57.5818 34.2189L51.2303 41.8002L44.2155 34.1878C41.9244 35.1394 37.5004 37.1509 34.0218 39.3135C30.316 41.6173 29 44.371 29 46.3571C29 46.3571 29 46.3571 29 46.3571L29.0004 66.9999L27.0004 67L27 46.3571C27 43.4861 28.8588 40.1683 32.9659 37.615C36.943 35.1425 42.0494 32.8911 44.1111 32.0708L44.7501 31.8166L51.1588 38.7712L57.0149 31.7812Z" fill="#006BCA"/>
<path fill-rule="evenodd" clip-rule="evenodd" d="M44 34H46V41.7985L51.5 40.7831L57 41.7985V34H59V44.2015L51.5 42.8169L44 44.2015V34Z" fill="#006BCA"/>
<path fill-rule="evenodd" clip-rule="evenodd" d="M37 66V52H39V66H37Z" fill="#006BCA"/>
<path fill-rule="evenodd" clip-rule="evenodd" d="M64 66V52H66V66H64Z" fill="#006BCA"/>
<path fill-rule="evenodd" clip-rule="evenodd" d="M13.3618 103.132C16.1596 103.132 18.4277 100.864 18.4277 98.0659C18.4277 95.2681 16.1596 93 13.3618 93C10.564 93 8.2959 95.2681 8.2959 98.0659C8.2959 100.864 10.564 103.132 13.3618 103.132ZM13.3618 105.132C17.2642 105.132 20.4277 101.968 20.4277 98.0659C20.4277 94.1635 17.2642 91 13.3618 91C9.45941 91 6.2959 94.1635 6.2959 98.0659C6.2959 101.968 9.45941 105.132 13.3618 105.132Z" fill="#006BCA"/>
<path fill-rule="evenodd" clip-rule="evenodd" d="M52.5893 102.893C55.3872 102.893 57.6552 100.624 57.6552 97.8266C57.6552 95.0288 55.3872 92.7607 52.5893 92.7607C49.7915 92.7607 47.5234 95.0288 47.5234 97.8266C47.5234 100.624 49.7915 102.893 52.5893 102.893ZM52.5893 104.893C56.4917 104.893 59.6552 101.729 59.6552 97.8266C59.6552 93.9243 56.4917 90.7607 52.5893 90.7607C48.6869 90.7607 45.5234 93.9243 45.5234 97.8266C45.5234 101.729 48.6869 104.893 52.5893 104.893Z" fill="#006BCA"/>
<path fill-rule="evenodd" clip-rule="evenodd" d="M39.2426 116.714C39.2419 116.828 39.2391 116.967 39.2361 117.117C39.2283 117.507 39.219 117.969 39.2426 118.239H65.9361C65.9597 117.969 65.9505 117.507 65.9427 117.116C65.9392 116.946 65.9361 116.79 65.9361 116.669C65.9361 116.525 65.9338 116.382 65.9293 116.239C65.7024 109.067 59.8168 103.322 52.5894 103.322C45.362 103.322 39.4764 109.067 39.2495 116.239C39.245 116.382 39.2427 116.525 39.2427 116.669C39.2427 116.684 39.2427 116.699 39.2426 116.714ZM41.2507 116.239H63.9281C63.7022 110.172 58.7121 105.322 52.5894 105.322C46.4667 105.322 41.4767 110.172 41.2507 116.239Z" fill="#006BCA"/>
<path fill-rule="evenodd" clip-rule="evenodd" d="M0.0150426 116.954C0.0144108 117.067 0.0116077 117.206 0.00858935 117.356C0.000743358 117.746 -0.00855726 118.209 0.0150426 118.479H26.7086C26.7322 118.208 26.7229 117.746 26.7151 117.356C26.7117 117.185 26.7086 117.029 26.7086 116.908C26.7086 116.765 26.7063 116.621 26.7018 116.479C26.4749 109.306 20.5892 103.562 13.3619 103.562C6.13451 103.562 0.248867 109.306 0.0219643 116.479C0.0174495 116.621 0.015175 116.765 0.015175 116.908C0.015175 116.923 0.0151292 116.938 0.0150426 116.954ZM2.02316 116.479H24.7006C24.4746 110.411 19.4846 105.562 13.3619 105.562C7.23917 105.562 2.24912 110.411 2.02316 116.479Z" fill="#006BCA"/>
<path fill-rule="evenodd" clip-rule="evenodd" d="M89.3618 102.893C92.1596 102.893 94.4277 100.624 94.4277 97.8266C94.4277 95.0288 92.1596 92.7607 89.3618 92.7607C86.564 92.7607 84.2959 95.0288 84.2959 97.8266C84.2959 100.624 86.564 102.893 89.3618 102.893ZM89.3618 104.893C93.2642 104.893 96.4277 101.729 96.4277 97.8266C96.4277 93.9243 93.2642 90.7607 89.3618 90.7607C85.4594 90.7607 82.2959 93.9243 82.2959 97.8266C82.2959 101.729 85.4594 104.893 89.3618 104.893Z" fill="#006BCA"/>
<path fill-rule="evenodd" clip-rule="evenodd" d="M76.015 116.714C76.0144 116.828 76.0116 116.967 76.0086 117.117C76.0007 117.507 75.9914 117.969 76.015 118.239H102.709C102.732 117.969 102.723 117.507 102.715 117.116C102.712 116.946 102.709 116.79 102.709 116.669C102.709 116.525 102.706 116.382 102.702 116.239C102.475 109.067 96.5892 103.322 89.3619 103.322C82.1345 103.322 76.2489 109.067 76.022 116.239C76.0174 116.382 76.0152 116.525 76.0152 116.669C76.0152 116.684 76.0151 116.699 76.015 116.714ZM78.0232 116.239H100.701C100.475 110.172 95.4846 105.322 89.3619 105.322C83.2392 105.322 78.2491 110.172 78.0232 116.239Z" fill="#006BCA"/>
<path d="M12.1345 85.0052L8.36898 78.501C7.98302 77.8344 8.46407 77 9.23441 77H16.7655C17.5358 77 18.0169 77.8344 17.6309 78.501L13.8654 85.0052C13.4802 85.6705 12.5197 85.6705 12.1345 85.0052Z" fill="#006BCA"/>
<path d="M51.1055 85.2111L47.7236 78.4472C47.3911 77.7823 47.8746 77 48.618 77H55.3819C56.1253 77 56.6088 77.7823 56.2763 78.4472L52.8944 85.2111C52.5259 85.9482 51.4741 85.9482 51.1055 85.2111Z" fill="#006BCA"/>
<path d="M87.6345 85.0052L83.869 78.501C83.483 77.8344 83.9641 77 84.7344 77H92.2655C93.0358 77 93.5169 77.8344 93.1309 78.501L89.3654 85.0052C88.9802 85.6705 88.0197 85.6705 87.6345 85.0052Z" fill="#006BCA"/>
<path fill-rule="evenodd" clip-rule="evenodd" d="M20.5 67.5C19.9885 67.5 17.9638 67.9504 15.7071 70.2071C14.6959 71.2183 14.0895 72.6759 13.7648 74.1743C13.4419 75.6641 13.4211 77.0868 13.4959 77.9095L11.5041 78.0905C11.4122 77.0799 11.4413 75.4526 11.8102 73.7507C12.1771 72.0574 12.904 70.1817 14.2929 68.7929C16.8361 66.2496 19.3448 65.5 20.5 65.5H80.5554L80.6104 65.5061C81.4394 65.5982 82.7493 65.8672 84.0736 66.38C85.3825 66.8868 86.8215 67.6761 87.7809 68.8753C88.7446 70.08 89.2783 71.9161 89.5834 73.5685C89.8959 75.2614 90 76.9479 90 78H88C88 77.0521 87.9041 75.4886 87.6166 73.9315C87.3216 72.3339 86.8553 70.92 86.2191 70.1247C85.5785 69.3239 84.5175 68.6966 83.3514 68.245C82.2305 67.811 81.1197 67.5806 80.4427 67.5H20.5Z" fill="#006BCA"/>
<path fill-rule="evenodd" clip-rule="evenodd" d="M51 79V69H53V79H51Z" fill="#006BCA"/>
</svg>
