<svg width="115" height="116" viewBox="0 0 115 116" fill="none" xmlns="http://www.w3.org/2000/svg">
<path fill-rule="evenodd" clip-rule="evenodd" d="M57 72C64.7923 72 71 65.8965 71 58.5C71 51.1035 64.7923 45 57 45C49.2077 45 43 51.1035 43 58.5C43 65.8965 49.2077 72 57 72ZM57 74C65.8366 74 73 67.0604 73 58.5C73 49.9396 65.8366 43 57 43C48.1634 43 41 49.9396 41 58.5C41 67.0604 48.1634 74 57 74Z" fill="#006BCA"/>
<path fill-rule="evenodd" clip-rule="evenodd" d="M93 60C99.6274 60 105 54.6274 105 48C105 41.3726 99.6274 36 93 36C86.3726 36 81 41.3726 81 48C81 54.6274 86.3726 60 93 60ZM93 62C100.732 62 107 55.732 107 48C107 40.268 100.732 34 93 34C85.268 34 79 40.268 79 48C79 55.732 85.268 62 93 62Z" fill="#006BCA"/>
<path fill-rule="evenodd" clip-rule="evenodd" d="M22 60C28.6274 60 34 54.6274 34 48C34 41.3726 28.6274 36 22 36C15.3726 36 10 41.3726 10 48C10 54.6274 15.3726 60 22 60ZM22 62C29.732 62 36 55.732 36 48C36 40.268 29.732 34 22 34C14.268 34 8 40.268 8 48C8 55.732 14.268 62 22 62Z" fill="#006BCA"/>
<path fill-rule="evenodd" clip-rule="evenodd" d="M63.0149 74.7812L63.7027 75.0854C67.3518 76.6986 75.1934 80.1917 77.1726 81.176C78.6794 81.9254 79.8722 83.5209 80.6727 85.1133C81.4813 86.722 82 88.5474 82 89.9642V110H80V89.9642C80 88.9525 79.6031 87.4387 78.8858 86.0116C78.1603 84.5683 77.2167 83.4316 76.282 82.9668C74.4679 82.0645 67.4634 78.938 63.5818 77.2189L57.2303 84.8002L50.2155 77.1878C47.9244 78.1394 43.5004 80.1509 40.0218 82.3135C36.316 84.6173 35 87.371 35 89.3571C35 89.3571 35 89.3571 35 89.3571L35.0004 110L33.0004 110L33 89.3571C33 86.4861 34.8588 83.1683 38.9659 80.615C42.943 78.1425 48.0494 75.8911 50.1111 75.0708L50.7501 74.8166L57.1588 81.7712L63.0149 74.7812Z" fill="#006BCA"/>
<path fill-rule="evenodd" clip-rule="evenodd" d="M98.275 61.782L98.9618 62.085C102.143 63.4887 108.988 66.5313 110.717 67.3899C112.068 68.0604 113.125 69.4788 113.828 70.8751C114.539 72.2873 115 73.897 115 75.1571V101H85.0588V98.9999H113V75.1571C113 74.3029 112.662 73.0054 112.042 71.7748C111.414 70.5282 110.607 69.568 109.828 69.1814C108.262 68.4041 102.245 65.7229 98.8412 64.2181L93.2693 70.8556L87.1124 64.1876C85.0958 65.0276 81.3058 66.7541 78.3197 68.6068C75.1126 70.5966 74.0002 72.9572 74 74.628L74.0003 75.3328L72.0003 75.3338L72 74.629C72 72.0713 73.6572 69.1459 77.2653 66.9073C80.7437 64.7493 85.2059 62.786 87.0078 62.0705L87.6458 61.8172L93.1978 67.83L98.275 61.782Z" fill="#006BCA"/>
<path fill-rule="evenodd" clip-rule="evenodd" d="M16.725 61.782L16.0382 62.085C12.8566 63.4887 6.01246 66.5313 4.28264 67.3899C2.93174 68.0604 1.8751 69.4788 1.17182 70.8751C0.460503 72.2873 0 73.897 0 75.1571V101H29.9412V98.9999H2V75.1571C2 74.3029 2.33819 73.0054 2.95803 71.7748C3.5859 70.5282 4.39289 69.568 5.17183 69.1814C6.73792 68.4041 12.7553 65.7229 16.1588 64.2181L21.7307 70.8556L27.8876 64.1876C29.9042 65.0276 33.6942 66.7541 36.6803 68.6068C39.8874 70.5966 40.9998 72.9572 41 74.628L40.9997 75.3328L42.9997 75.3338L43 74.629C43 72.0713 41.3428 69.1459 37.7347 66.9073C34.2563 64.7493 29.7941 62.786 27.9922 62.0705L27.3542 61.8172L21.8022 67.83L16.725 61.782Z" fill="#006BCA"/>
<path fill-rule="evenodd" clip-rule="evenodd" d="M103 99V80H105V99H103Z" fill="#006BCA"/>
<path fill-rule="evenodd" clip-rule="evenodd" d="M10 99V80H12V99H10Z" fill="#006BCA"/>
<path fill-rule="evenodd" clip-rule="evenodd" d="M50 76H52V83.7985L57.5 82.7831L63 83.7985V76H65V86.2015L57.5 84.8169L50 86.2015V76Z" fill="#006BCA"/>
<path fill-rule="evenodd" clip-rule="evenodd" d="M54.2552 86.8958L56.2444 87.1041L54.0377 108.168L57.5443 112.471L60.9595 108.746L58.7549 87.1013L60.7446 86.8986L63.0401 109.436L57.4553 115.528L51.9619 108.787L54.2552 86.8958Z" fill="#006BCA"/>
<path fill-rule="evenodd" clip-rule="evenodd" d="M43 109V95H45V109H43Z" fill="#006BCA"/>
<path fill-rule="evenodd" clip-rule="evenodd" d="M70 109V95H72V109H70Z" fill="#006BCA"/>
<path fill-rule="evenodd" clip-rule="evenodd" d="M69.6617 16.4491L69.36 15.3966C69.1061 14.5112 68.7571 13.6559 68.3188 12.8455L67.8072 11.8995L69.964 7.86597L68.2118 6.10818L64.1843 8.2585L63.2297 7.72345C62.4107 7.26437 61.5433 6.8972 60.6434 6.62865L59.6124 6.32097L58.3058 2.00019H55.827L54.5111 6.33855L53.4754 6.64343C52.5678 6.91059 51.6929 7.27784 50.8668 7.73838L49.9087 8.27248L45.9372 6.12993L44.1589 7.86255L46.2926 11.8099L45.7549 12.7701C45.2947 13.5917 44.9273 14.4617 44.6592 15.3643L44.3522 16.3979L40 17.7115V20.1605L44.3675 21.4707L44.6801 22.4947C44.9511 23.382 45.3185 24.2371 45.7757 25.0447L46.312 25.992L44.1439 30.1389L45.8999 31.8932L49.9613 29.7266L50.9054 30.2355C51.7067 30.6675 52.552 31.0127 53.4269 31.2651L54.4782 31.5684L55.7945 36H58.2419L59.5566 31.5606L60.6032 31.2545C61.4703 31.0008 62.308 30.6558 63.1021 30.2252L64.0475 29.7126L68.1371 31.8933L69.8863 30.1458L67.7023 26.0712L68.2218 25.1211C68.6572 24.325 69.0062 23.4846 69.2627 22.6145L69.5702 21.5716L73.9991 20.2587V17.7426L69.6617 16.4491ZM75.53 16.1121C75.6752 16.174 75.798 16.2787 75.8818 16.4123C75.9657 16.5459 76.0066 16.7019 75.9991 16.8594V21.1788C75.9984 21.3432 75.9451 21.5032 75.847 21.6353C75.749 21.7675 75.6113 21.8649 75.4539 21.9134L71.1811 23.1801C70.8842 24.1871 70.4804 25.1595 69.9766 26.0807L72.0813 30.0074C72.1593 30.1542 72.1879 30.3222 72.1628 30.4865C72.1377 30.6507 72.0602 30.8026 71.9418 30.9194L68.9115 33.9467C68.7946 34.0649 68.6426 34.1423 68.4782 34.1674C68.3137 34.1925 68.1456 34.164 67.9986 34.086L64.0555 31.9834C63.1368 32.4815 62.1678 32.8806 61.1646 33.174L59.8967 37.4553C59.8481 37.6125 59.7506 37.7501 59.6184 37.848C59.4861 37.946 59.326 37.9992 59.1613 38H54.8758C54.7112 37.9992 54.5511 37.946 54.4188 37.848C54.2865 37.7501 54.189 37.6125 54.1404 37.4553L52.8725 33.1867C51.8608 32.8948 50.8831 32.4956 49.9564 31.996L46.0385 34.086C45.8916 34.164 45.7234 34.1925 45.559 34.1674C45.3945 34.1423 45.2426 34.0649 45.1256 33.9467L42.0953 30.9194C41.977 30.8026 41.8995 30.6507 41.8744 30.4865C41.8493 30.3222 41.8778 30.1542 41.9559 30.0074L44.0352 26.0301C43.5061 25.0954 43.0809 24.1058 42.7673 23.0787L38.5452 21.8121C38.3879 21.7635 38.2502 21.6661 38.1521 21.534C38.0541 21.4019 38.0008 21.2419 38 21.0774V16.7961C38.0008 16.6316 38.0541 16.4717 38.1521 16.3395C38.2502 16.2074 38.3879 16.11 38.5452 16.0614L42.742 14.7948C43.0522 13.7504 43.4774 12.7435 44.0099 11.7928L41.9559 7.99282C41.8778 7.84604 41.8493 7.67803 41.8744 7.51374C41.8995 7.34946 41.977 7.19764 42.0953 7.08082L45.1763 4.07884C45.2933 3.96062 45.4452 3.88322 45.6097 3.85812C45.7741 3.83302 45.9423 3.86156 46.0892 3.93951L49.893 5.9915C50.8487 5.45871 51.8608 5.03387 52.9106 4.72484L54.1785 0.544858C54.2271 0.387695 54.3246 0.250121 54.4568 0.152159C54.5891 0.0541975 54.7492 0.000959802 54.9139 0.000194013H59.1994C59.363 -0.00346969 59.5236 0.044837 59.6581 0.138161C59.7925 0.231485 59.8938 0.365013 59.9474 0.519525L61.2154 4.71217C62.2565 5.02286 63.26 5.44767 64.2076 5.97883L68.0747 3.91417C68.2217 3.83623 68.3898 3.80769 68.5543 3.83279C68.7187 3.85788 68.8707 3.93529 68.9876 4.05351L72.0179 7.09349C72.1362 7.2103 72.2137 7.36212 72.2388 7.52641C72.264 7.6907 72.2354 7.8587 72.1574 8.00549L70.078 11.8941C70.585 12.8316 70.9889 13.8211 71.2825 14.8455L75.53 16.1121ZM67.5657 5.45995L67.5711 5.46546L67.5657 5.45995ZM57.0566 27.9667C55.2823 27.9667 53.5476 27.4411 52.072 26.4561C50.5963 25.4711 49.4459 24.0708 48.7665 22.4321C48.087 20.7934 47.9092 18.9902 48.2556 17.2504C48.602 15.5107 49.457 13.9129 50.7121 12.659C51.9672 11.4052 53.566 10.5515 55.3064 10.2057C57.0466 9.85986 58.8505 10.0373 60.49 10.7157C62.1295 11.3942 63.531 12.5432 64.5173 14.0177C65.5036 15.4924 66.0301 17.2262 66.0301 19.0001C66.0301 21.3788 65.0842 23.6597 63.4011 25.3412C61.7181 27.0225 59.4359 27.9667 57.0566 27.9667ZM53.1824 24.7926C54.3291 25.5581 55.6774 25.9667 57.0566 25.9667C58.9061 25.9667 60.6798 25.2327 61.9876 23.9262C63.2954 22.6198 64.0301 20.8478 64.0301 19.0001C64.0301 17.6222 63.6211 16.2753 62.8549 15.1296C62.0886 13.984 60.9995 13.0911 59.7253 12.5638C58.451 12.0365 57.0489 11.8985 55.6962 12.1673C54.3434 12.4361 53.1009 13.0996 52.1256 14.0739C51.1504 15.0482 50.4862 16.2896 50.2171 17.641C49.9481 18.9924 50.0862 20.3931 50.614 21.6661C51.1418 22.9391 52.0356 24.0271 53.1824 24.7926Z" fill="#006BCA"/>
</svg>
