<svg width="31" height="31" viewBox="0 0 31 31" fill="none" xmlns="http://www.w3.org/2000/svg">
<ellipse rx="15.5" ry="15.2155" transform="matrix(1 0 0 -1 15.5 15.7845)" fill="#F2911F"/>
<g clip-path="url(#clip0)">
<path d="M17.6204 19.6675C18.5958 19.4497 19.5266 19.0715 20.3735 18.5489C20.6784 18.3532 20.8927 18.0479 20.9704 17.6985C21.048 17.3492 20.9828 16.984 20.7887 16.6814C20.5947 16.3789 20.2873 16.1632 19.9328 16.081C19.5784 15.9988 19.2052 16.0566 18.8937 16.2419C17.9374 16.8288 16.8324 17.14 15.7046 17.14C14.5768 17.14 13.4718 16.8288 12.5155 16.2419C12.2046 16.0496 11.8286 15.9863 11.4702 16.0658C11.1117 16.1453 10.8 16.3612 10.6036 16.6661C10.6036 16.6676 10.6036 16.6691 10.6021 16.6698C10.5049 16.821 10.4391 16.9895 10.4083 17.1656C10.3775 17.3418 10.3824 17.5221 10.4227 17.6964C10.463 17.8707 10.5378 18.0355 10.643 18.1814C10.7482 18.3273 10.8816 18.4514 11.0357 18.5467L11.0372 18.5482C11.8823 19.0699 12.813 19.449 13.7873 19.6652L11.1374 22.2665C10.8776 22.5165 10.7295 22.8574 10.7255 23.2145C10.7215 23.5716 10.8619 23.9156 11.116 24.1711L11.1389 24.1937C11.402 24.4594 11.7584 24.5916 12.1132 24.5916C12.4689 24.5916 12.8245 24.4594 13.0883 24.1937L15.7046 21.6382L18.3079 24.1952C18.5707 24.4374 18.9192 24.5697 19.2797 24.5641C19.6401 24.5586 19.9842 24.4156 20.2392 24.1654C20.4942 23.9152 20.64 23.5775 20.6458 23.2236C20.6516 22.8698 20.5169 22.5276 20.2703 22.2695L17.6204 19.6675ZM15.7046 15.8748C16.9604 15.8734 18.1644 15.3832 19.0526 14.5116C19.9407 13.64 20.4405 12.4583 20.4424 11.2255C20.4424 8.66175 18.3163 6.57471 15.7046 6.57471C13.0929 6.57471 10.9668 8.66175 10.9668 11.227C10.9685 12.4598 11.4682 13.6416 12.3564 14.5131C13.2446 15.3845 14.4488 15.8745 15.7046 15.8755V15.8748ZM15.7046 9.30062C16.2154 9.31462 16.7004 9.52364 17.0567 9.88324C17.4129 10.2428 17.6122 10.7247 17.6122 11.2263C17.6122 11.7278 17.4129 12.2097 17.0567 12.5693C16.7004 12.9289 16.2154 13.1379 15.7046 13.1519C15.1847 13.1511 14.6864 12.9481 14.3187 12.5873C13.951 12.2265 13.744 11.7373 13.743 11.227C13.7436 10.7163 13.9504 10.2267 14.3181 9.8655C14.6858 9.50427 15.1844 9.30086 15.7046 9.29987V9.30062Z" fill="white"/>
</g>
<defs>
<clipPath id="clip0">
<rect width="18.3545" height="18.0176" fill="white" transform="translate(6.52734 6.57471)"/>
</clipPath>
</defs>
</svg>
