<svg width="42" height="42" viewBox="0 0 42 42" fill="none" xmlns="http://www.w3.org/2000/svg">
<path fill-rule="evenodd" clip-rule="evenodd" d="M10 9.99995C10 9.02749 10.3863 8.09486 11.0739 7.40723C11.7616 6.7196 12.6942 6.33329 13.6667 6.33329H22.0743C23.0467 6.33349 23.9792 6.71994 24.6667 7.40762L30.9257 13.6666C31.6133 14.3541 31.9998 15.2866 32 16.259V31.9999C32 32.9724 31.6137 33.905 30.9261 34.5927C30.2384 35.2803 29.3058 35.6666 28.3333 35.6666H13.6667C12.6942 35.6666 11.7616 35.2803 11.0739 34.5927C10.3863 33.905 10 32.9724 10 31.9999V9.99995Z" fill="black"/>
<path d="M24 6V14H32" stroke="white" stroke-width="2" stroke-linecap="round" stroke-linejoin="round"/>
<path d="M17.8276 26.1479C17.8276 27.0431 17.6235 27.7611 17.2153 28.3018C16.8107 28.8389 16.2629 29.1074 15.5718 29.1074C14.9845 29.1074 14.5101 28.9033 14.1484 28.4951V31.2344H12.5962V23.1885H14.0356L14.0894 23.7578C14.4653 23.3066 14.9559 23.0811 15.561 23.0811C16.2772 23.0811 16.834 23.346 17.2314 23.876C17.6289 24.4059 17.8276 25.1364 17.8276 26.0674V26.1479ZM16.2754 26.0352C16.2754 25.4945 16.1787 25.0773 15.9854 24.7837C15.7956 24.4901 15.5181 24.3433 15.1528 24.3433C14.6659 24.3433 14.3311 24.5295 14.1484 24.9019V27.2812C14.3382 27.6644 14.6766 27.856 15.1636 27.856C15.9048 27.856 16.2754 27.249 16.2754 26.0352ZM19.1027 26.0513C19.1027 25.1453 19.305 24.4238 19.7097 23.8867C20.1179 23.3496 20.6747 23.0811 21.3801 23.0811C21.9458 23.0811 22.4131 23.2923 22.7819 23.7148V20.75H24.3396V29H22.9377L22.8625 28.3823C22.4758 28.8657 21.9781 29.1074 21.3693 29.1074C20.6854 29.1074 20.1358 28.8389 19.7204 28.3018C19.3086 27.7611 19.1027 27.0109 19.1027 26.0513ZM20.655 26.1641C20.655 26.7083 20.7499 27.1255 20.9396 27.4155C21.1294 27.7056 21.4051 27.8506 21.7668 27.8506C22.2466 27.8506 22.585 27.6483 22.7819 27.2437V24.9502C22.5886 24.5456 22.2538 24.3433 21.7775 24.3433C21.0292 24.3433 20.655 24.9502 20.655 26.1641ZM26.517 29V24.3271H25.6522V23.1885H26.517V22.6943C26.517 22.0426 26.7032 21.5378 27.0756 21.1797C27.4516 20.818 27.9761 20.6372 28.6493 20.6372C28.8642 20.6372 29.1273 20.673 29.4389 20.7446L29.4228 21.9478C29.2938 21.9155 29.1363 21.8994 28.9501 21.8994C28.3664 21.8994 28.0746 22.1733 28.0746 22.7212V23.1885H29.2294V24.3271H28.0746V29H26.517Z" fill="white"/>
</svg>
