<svg width="23" height="31" viewBox="0 0 23 31" fill="none" xmlns="http://www.w3.org/2000/svg">
<path fill-rule="evenodd" clip-rule="evenodd" d="M0 4.99995C0 4.02749 0.386308 3.09486 1.07394 2.40722C1.76157 1.71959 2.69421 1.33328 3.66667 1.33328H12.0743C13.0467 1.33349 13.9792 1.71993 14.6667 2.40762L20.9257 8.66661C21.6133 9.35409 21.9998 10.2866 22 11.2589V26.9999C22 27.9724 21.6137 28.905 20.9261 29.5927C20.2384 30.2803 19.3058 30.6666 18.3333 30.6666H3.66667C2.69421 30.6666 1.76157 30.2803 1.07394 29.5927C0.386308 28.905 0 27.9724 0 26.9999V4.99995Z" fill="black"/>
<path d="M14 1V9H22" stroke="white" stroke-width="2" stroke-linecap="round" stroke-linejoin="round"/>
<path d="M7.82764 21.1479C7.82764 22.0431 7.62354 22.7611 7.21533 23.3018C6.81071 23.8389 6.26286 24.1074 5.57178 24.1074C4.98454 24.1074 4.51009 23.9033 4.14844 23.4951V26.2344H2.59619V18.1885H4.03564L4.08936 18.7578C4.46533 18.3066 4.95589 18.0811 5.56104 18.0811C6.27718 18.0811 6.83398 18.346 7.23145 18.876C7.62891 19.4059 7.82764 20.1364 7.82764 21.0674V21.1479ZM6.27539 21.0352C6.27539 20.4945 6.17871 20.0773 5.98535 19.7837C5.79557 19.4901 5.51807 19.3433 5.15283 19.3433C4.66585 19.3433 4.33105 19.5295 4.14844 19.9019V22.2812C4.33822 22.6644 4.6766 22.856 5.16357 22.856C5.90479 22.856 6.27539 22.249 6.27539 21.0352ZM9.10273 21.0513C9.10273 20.1453 9.30505 19.4238 9.70967 18.8867C10.1179 18.3496 10.6747 18.0811 11.3801 18.0811C11.9458 18.0811 12.4131 18.2923 12.7819 18.7148V15.75H14.3396V24H12.9377L12.8625 23.3823C12.4758 23.8657 11.9781 24.1074 11.3693 24.1074C10.6854 24.1074 10.1358 23.8389 9.72041 23.3018C9.30863 22.7611 9.10273 22.0109 9.10273 21.0513ZM10.655 21.1641C10.655 21.7083 10.7499 22.1255 10.9396 22.4155C11.1294 22.7056 11.4051 22.8506 11.7668 22.8506C12.2466 22.8506 12.585 22.6483 12.7819 22.2437V19.9502C12.5886 19.5456 12.2538 19.3433 11.7775 19.3433C11.0292 19.3433 10.655 19.9502 10.655 21.1641ZM16.517 24V19.3271H15.6522V18.1885H16.517V17.6943C16.517 17.0426 16.7032 16.5378 17.0756 16.1797C17.4516 15.818 17.9761 15.6372 18.6493 15.6372C18.8642 15.6372 19.1273 15.673 19.4389 15.7446L19.4228 16.9478C19.2938 16.9155 19.1363 16.8994 18.9501 16.8994C18.3664 16.8994 18.0746 17.1733 18.0746 17.7212V18.1885H19.2294V19.3271H18.0746V24H16.517Z" fill="white"/>
</svg>
