<svg width="18" height="18" viewBox="0 0 18 18" fill="none" xmlns="http://www.w3.org/2000/svg">
<path d="M15.7181 14.5812C16.6157 13.5013 17.24 12.221 17.5381 10.8488C17.8363 9.47658 17.7996 8.05273 17.4311 6.69771C17.0625 5.34268 16.3731 4.09634 15.421 3.06412C14.469 2.0319 13.2823 1.24417 11.9614 0.767561C10.6405 0.290955 9.22428 0.139495 7.83248 0.325995C6.44067 0.512495 5.11426 1.03147 3.96545 1.83901C2.81664 2.64655 1.87922 3.71891 1.2325 4.96537C0.585773 6.21182 0.248773 7.5957 0.250003 8.99995C0.250475 11.0413 0.969844 13.0173 2.28188 14.5812L2.26938 14.5918C2.31313 14.6443 2.36313 14.6893 2.40813 14.7412C2.46438 14.8056 2.525 14.8662 2.58313 14.9287C2.75813 15.1187 2.93813 15.3012 3.12688 15.4724C3.18438 15.5249 3.24375 15.5737 3.30188 15.6237C3.50188 15.7962 3.7075 15.9599 3.92063 16.1124C3.94813 16.1312 3.97313 16.1556 4.00063 16.1749V16.1674C5.46444 17.1975 7.21069 17.7504 9.00063 17.7504C10.7906 17.7504 12.5368 17.1975 14.0006 16.1674V16.1749C14.0281 16.1556 14.0525 16.1312 14.0806 16.1124C14.2931 15.9593 14.4994 15.7962 14.6994 15.6237C14.7575 15.5737 14.8169 15.5243 14.8744 15.4724C15.0631 15.3006 15.2431 15.1187 15.4181 14.9287C15.4763 14.8662 15.5363 14.8056 15.5931 14.7412C15.6375 14.6893 15.6881 14.6443 15.7319 14.5912L15.7181 14.5812ZM9 3.99995C9.55626 3.99995 10.1 4.1649 10.5625 4.47394C11.0251 4.78298 11.3855 5.22223 11.5984 5.73615C11.8113 6.25007 11.867 6.81557 11.7585 7.36114C11.6499 7.90671 11.3821 8.40785 10.9887 8.80118C10.5954 9.19452 10.0943 9.46238 9.54869 9.5709C9.00312 9.67943 8.43762 9.62373 7.92371 9.41086C7.40979 9.19798 6.97054 8.8375 6.66149 8.37499C6.35245 7.91247 6.1875 7.36871 6.1875 6.81245C6.1875 6.06652 6.48382 5.35115 7.01127 4.82371C7.53871 4.29626 8.25408 3.99995 9 3.99995ZM4.00438 14.5812C4.01522 13.7606 4.34872 12.9772 4.93273 12.4005C5.51673 11.8239 6.30429 11.5004 7.125 11.4999H10.875C11.6957 11.5004 12.4833 11.8239 13.0673 12.4005C13.6513 12.9772 13.9848 13.7606 13.9956 14.5812C12.6249 15.8164 10.8452 16.5 9 16.5C7.15484 16.5 5.3751 15.8164 4.00438 14.5812Z" fill="#006BCA"/>
</svg>
