<svg width="23" height="31" viewBox="0 0 23 31" fill="none" xmlns="http://www.w3.org/2000/svg">
<path fill-rule="evenodd" clip-rule="evenodd" d="M0 4.99995C0 4.02749 0.386308 3.09486 1.07394 2.40722C1.76157 1.71959 2.69421 1.33328 3.66667 1.33328H12.0743C13.0467 1.33349 13.9792 1.71993 14.6667 2.40762L20.9257 8.66661C21.6133 9.35409 21.9998 10.2866 22 11.2589V26.9999C22 27.9724 21.6137 28.905 20.9261 29.5927C20.2384 30.2803 19.3058 30.6666 18.3333 30.6666H3.66667C2.69421 30.6666 1.76157 30.2803 1.07394 29.5927C0.386308 28.905 0 27.9724 0 26.9999V4.99995Z" fill="black"/>
<path d="M14 1V9H22" stroke="white" stroke-width="2" stroke-linecap="round" stroke-linejoin="round"/>
<path d="M7.29785 19.4072C7.29785 20.221 7.1123 20.8737 6.74121 21.3652C6.37337 21.8535 5.87533 22.0977 5.24707 22.0977C4.71322 22.0977 4.2819 21.9121 3.95312 21.541V24.0312H2.54199V16.7168H3.85059L3.89941 17.2344C4.24121 16.8242 4.68717 16.6191 5.2373 16.6191C5.88835 16.6191 6.39453 16.86 6.75586 17.3418C7.11719 17.8236 7.29785 18.4876 7.29785 19.334V19.4072ZM5.88672 19.3047C5.88672 18.8132 5.79883 18.4339 5.62305 18.167C5.45052 17.9001 5.19824 17.7666 4.86621 17.7666C4.4235 17.7666 4.11914 17.9359 3.95312 18.2744V20.4375C4.12565 20.7858 4.43327 20.96 4.87598 20.96C5.5498 20.96 5.88672 20.4082 5.88672 19.3047ZM9.97559 16.7168L10.0195 17.3271C10.3971 16.8551 10.9033 16.6191 11.5381 16.6191C12.098 16.6191 12.5146 16.7835 12.7881 17.1123C13.0615 17.4411 13.2015 17.9326 13.208 18.5869V22H11.7969V18.6211C11.7969 18.3216 11.7318 18.1051 11.6016 17.9717C11.4714 17.835 11.2549 17.7666 10.9521 17.7666C10.555 17.7666 10.2572 17.9359 10.0586 18.2744V22H8.64746V16.7168H9.97559ZM14.5771 19.3193C14.5771 18.5088 14.7692 17.8561 15.1533 17.3613C15.5407 16.8665 16.0615 16.6191 16.7158 16.6191C17.2952 16.6191 17.7461 16.8177 18.0684 17.2148L18.127 16.7168H19.4062V21.8242C19.4062 22.2865 19.3005 22.6885 19.0889 23.0303C18.8805 23.3721 18.5859 23.6325 18.2051 23.8115C17.8242 23.9906 17.3783 24.0801 16.8672 24.0801C16.4798 24.0801 16.1022 24.002 15.7344 23.8457C15.3665 23.6927 15.0882 23.4941 14.8994 23.25L15.5244 22.3906C15.876 22.7845 16.3024 22.9814 16.8037 22.9814C17.1781 22.9814 17.4694 22.8805 17.6777 22.6787C17.8861 22.4801 17.9902 22.1969 17.9902 21.8291V21.5459C17.6647 21.9137 17.2367 22.0977 16.7061 22.0977C16.0713 22.0977 15.557 21.8503 15.1631 21.3555C14.7725 20.8574 14.5771 20.1982 14.5771 19.3779V19.3193ZM15.9883 19.4219C15.9883 19.9004 16.0843 20.2764 16.2764 20.5498C16.4684 20.82 16.7321 20.9551 17.0674 20.9551C17.4971 20.9551 17.8047 20.7939 17.9902 20.4717V18.25C17.8014 17.9277 17.4971 17.7666 17.0771 17.7666C16.7386 17.7666 16.4717 17.9049 16.2764 18.1816C16.0843 18.4583 15.9883 18.8717 15.9883 19.4219Z" fill="white"/>
</svg>
