<svg width="190" height="185" viewBox="0 0 190 185" fill="none" xmlns="http://www.w3.org/2000/svg">
<circle cx="92.801" cy="92.2607" r="92.2607" fill="#B1C6D8" fill-opacity="0.5"/>
<path fill-rule="evenodd" clip-rule="evenodd" d="M7.5 73.5C7.5 71.8431 8.84315 70.5 10.5 70.5H25.5V72.5H10.5C9.94772 72.5 9.5 72.9477 9.5 73.5V84.5H7.5V73.5Z" fill="#006BCA"/>
<path d="M8.5 114L81 133.5C81 133.5 96.0201 132.148 104 132.479C104 132.479 160.5 129.5 162 129.5C163.2 129.5 162.5 100.167 162 85.5H6.5C6.5 85.5 4.16667 86.8333 3 88V111.5L5.5 114H8.5Z" fill="#ECF4FB"/>
<path fill-rule="evenodd" clip-rule="evenodd" d="M60.5 84V44H62.5V84H60.5Z" fill="#006BCA"/>
<path d="M189 70.5L161.5 85H83V56L73 43.5H12C10.6667 43.5 8 42.7 8 39.5C8 36.3 10.6667 35.1667 12 35H89.5L105.5 51H189V70.5Z" fill="white"/>
<path fill-rule="evenodd" clip-rule="evenodd" d="M11.9377 34H89.9142L105.914 50H190V71.1032L161.747 86H82V56.3508L72.5194 44.5H12C11.1733 44.5 9.95553 44.2602 8.9157 43.5115C7.82487 42.7261 7 41.4259 7 39.5C7 37.5816 7.81543 36.2268 8.85457 35.3487C9.85964 34.4994 11.0504 34.1109 11.876 34.0077L11.9377 34ZM12.0674 36C11.5576 36.0752 10.7829 36.3376 10.1454 36.8763C9.51791 37.4066 9 38.2184 9 39.5C9 40.7741 9.50847 41.4739 10.0843 41.8885C10.7111 42.3398 11.4934 42.5 12 42.5H73.4806L84 55.6492V84H161.253L188 69.8968V52H105.086L89.0858 36H12.0674Z" fill="#006BCA"/>
<path fill-rule="evenodd" clip-rule="evenodd" d="M46.3015 43.2844L47.6985 44.7156L27 64.9213V84H25V64.0787L46.3015 43.2844Z" fill="#006BCA"/>
<path d="M178 38C178.833 41.5 180.6 49 181 51H138V21L145.5 12.5L171 24.5L169 33L178 38Z" fill="#ECF4FB"/>
<path fill-rule="evenodd" clip-rule="evenodd" d="M145.247 11.2756L172.159 23.9402L170.147 32.493L178.871 37.3398L178.973 37.7684C179.804 41.2575 181.576 48.7811 181.981 50.8039L182.22 52H137V20.6219L145.247 11.2756ZM145.753 13.7244L139 21.3781V50H179.764C179.156 47.2418 177.866 41.7589 177.129 38.6601L167.853 33.507L169.841 25.0598L145.753 13.7244Z" fill="#006BCA"/>
<path d="M99 25.5L89.5 35L105.5 51H159V39L151 36V23L138 21.5L133 12.5H121.5L112 23L99 25.5Z" fill="#ECF4FB"/>
<path fill-rule="evenodd" clip-rule="evenodd" d="M121.056 11.5H133.588L138.625 20.5655L152 22.1087V35.307L160 38.307V52H105.086L88.0858 35L98.5098 24.5759L111.483 22.0811L121.056 11.5ZM121.944 13.5L112.517 23.9189L99.4901 26.4241L90.9142 35L105.914 50H158V39.693L150 36.693V23.8913L137.375 22.4345L132.412 13.5H121.944Z" fill="#006BCA"/>
<path fill-rule="evenodd" clip-rule="evenodd" d="M151.447 36.8944L143.447 40.8944L142.553 39.1056L150.553 35.1056L151.447 36.8944Z" fill="#006BCA"/>
<path fill-rule="evenodd" clip-rule="evenodd" d="M112.618 22.7137L120.171 28.6485L117.449 36.8162L115.551 36.1838L117.829 29.3515L111.382 24.2863L112.618 22.7137Z" fill="#006BCA"/>
<path fill-rule="evenodd" clip-rule="evenodd" d="M2 89C2 86.2386 4.23858 84 7 84H163V100H161V86H7C5.34315 86 4 87.3431 4 89V110C4 111.657 5.34315 113 7 113H10.5V115H7C4.23858 115 2 112.761 2 110V89Z" fill="#006BCA"/>
<path fill-rule="evenodd" clip-rule="evenodd" d="M104 134H81V132H104V134Z" fill="#006BCA"/>
<path fill-rule="evenodd" clip-rule="evenodd" d="M100 112H86V110H100V112Z" fill="#006BCA"/>
<path fill-rule="evenodd" clip-rule="evenodd" d="M100 123H86V121H100V123Z" fill="#006BCA"/>
<path d="M183 133.5C183 155.315 165.315 173 143.5 173C121.685 173 104 155.315 104 133.5C104 111.685 121.685 94 143.5 94C165.315 94 183 111.685 183 133.5Z" fill="#ECF4FB"/>
<path fill-rule="evenodd" clip-rule="evenodd" d="M182.895 136.409C182.964 135.448 183 134.478 183 133.5C183 132.522 182.964 131.552 182.895 130.591L180.9 130.736C180.966 131.649 181 132.57 181 133.5C181 134.43 180.966 135.351 180.9 136.264L182.895 136.409ZM182.707 138.338L180.721 138.096C180.496 139.945 180.135 141.752 179.651 143.507L181.578 144.039C182.089 142.19 182.469 140.286 182.707 138.338ZM181.016 145.895L179.117 145.268C178.536 147.027 177.828 148.729 177.004 150.363L178.79 151.264C179.658 149.542 180.404 147.749 181.016 145.895ZM177.875 152.973L176.135 151.985C175.224 153.591 174.197 155.124 173.065 156.571L174.641 157.802C175.832 156.278 176.914 154.664 177.875 152.973ZM173.41 159.301L171.897 157.994C170.693 159.388 169.388 160.693 167.994 161.897L169.301 163.41C170.769 162.143 172.143 160.769 173.41 159.301ZM167.802 164.641L166.571 163.065C165.124 164.197 163.591 165.224 161.985 166.135L162.973 167.875C164.664 166.914 166.278 165.832 167.802 164.641ZM161.264 168.79L160.363 167.004C158.729 167.828 157.027 168.536 155.268 169.117L155.895 171.016C157.749 170.404 159.542 169.658 161.264 168.79ZM154.039 171.578L153.507 169.651C151.752 170.135 149.945 170.496 148.096 170.721L148.338 172.707C150.286 172.469 152.19 172.089 154.039 171.578ZM146.409 172.895L146.264 170.9C145.351 170.966 144.43 171 143.5 171C142.57 171 141.649 170.966 140.736 170.9L140.591 172.895C141.552 172.964 142.522 173 143.5 173C144.478 173 145.448 172.964 146.409 172.895ZM138.662 172.707L138.904 170.721C137.055 170.496 135.248 170.135 133.493 169.651L132.961 171.578C134.81 172.089 136.714 172.469 138.662 172.707ZM131.105 171.016L131.732 169.117C129.973 168.536 128.271 167.828 126.637 167.004L125.736 168.79C127.458 169.658 129.251 170.404 131.105 171.016ZM124.027 167.875L125.015 166.135C123.409 165.224 121.876 164.197 120.429 163.065L119.198 164.641C120.722 165.832 122.336 166.914 124.027 167.875ZM117.699 163.41L119.006 161.897C117.612 160.693 116.307 159.388 115.103 157.994L113.59 159.301C114.857 160.769 116.231 162.143 117.699 163.41ZM112.359 157.802L113.935 156.571C112.803 155.124 111.776 153.591 110.865 151.985L109.125 152.973C110.086 154.664 111.168 156.278 112.359 157.802ZM108.21 151.264L109.996 150.363C109.172 148.729 108.464 147.027 107.883 145.268L105.984 145.895C106.596 147.749 107.342 149.542 108.21 151.264ZM105.422 144.039L107.349 143.507C106.865 141.752 106.504 139.945 106.279 138.096L104.293 138.338C104.531 140.286 104.911 142.19 105.422 144.039ZM104.105 136.409C104.036 135.448 104 134.478 104 133.5C104 132.522 104.036 131.552 104.105 130.591L106.1 130.736C106.034 131.649 106 132.57 106 133.5C106 134.43 106.034 135.351 106.1 136.264L104.105 136.409ZM104.293 128.662L106.279 128.904C106.504 127.055 106.865 125.248 107.349 123.493L105.422 122.961C104.911 124.81 104.531 126.714 104.293 128.662ZM105.984 121.105L107.883 121.732C108.464 119.973 109.172 118.271 109.996 116.637L108.21 115.736C107.342 117.458 106.596 119.251 105.984 121.105ZM109.125 114.027L110.865 115.015C111.776 113.409 112.803 111.876 113.935 110.429L112.359 109.198C111.168 110.722 110.086 112.336 109.125 114.027ZM113.59 107.699L115.103 109.006C116.307 107.612 117.612 106.307 119.006 105.103L117.699 103.59C116.231 104.857 114.857 106.231 113.59 107.699ZM119.198 102.359L120.429 103.935C121.876 102.803 123.409 101.776 125.015 100.865L124.027 99.1255C122.336 100.086 120.722 101.168 119.198 102.359ZM125.736 98.21L126.637 99.9958C128.271 99.1718 129.973 98.464 131.732 97.883L131.105 95.9839C129.251 96.5961 127.458 97.342 125.736 98.21ZM132.961 95.4217L133.493 97.3495C135.248 96.8648 137.055 96.5045 138.904 96.2786L138.662 94.2934C136.714 94.5312 134.81 94.9109 132.961 95.4217ZM140.591 94.1055L140.736 96.1002C141.649 96.0338 142.57 96 143.5 96C144.43 96 145.351 96.0338 146.264 96.1002L146.409 94.1055C145.448 94.0356 144.478 94 143.5 94C142.522 94 141.552 94.0356 140.591 94.1055ZM148.338 94.2934L148.096 96.2786C149.945 96.5045 151.752 96.8648 153.507 97.3495L154.039 95.4217C152.19 94.9109 150.286 94.5312 148.338 94.2934ZM155.895 95.9839L155.268 97.883C157.027 98.464 158.729 99.1718 160.363 99.9958L161.264 98.21C159.542 97.342 157.749 96.5961 155.895 95.9839ZM162.973 99.1255L161.985 100.865C163.591 101.776 165.124 102.803 166.571 103.935L167.802 102.359C166.278 101.168 164.664 100.086 162.973 99.1255ZM169.301 103.59L167.994 105.103C169.388 106.307 170.693 107.612 171.897 109.006L173.41 107.699C172.143 106.231 170.769 104.857 169.301 103.59ZM174.641 109.198L173.065 110.429C174.197 111.876 175.224 113.409 176.135 115.015L177.875 114.027C176.914 112.336 175.832 110.722 174.641 109.198ZM178.79 115.736L177.004 116.637C177.828 118.271 178.536 119.973 179.117 121.732L181.016 121.105C180.404 119.251 179.658 117.458 178.79 115.736ZM181.578 122.961L179.651 123.493C180.135 125.248 180.496 127.055 180.721 128.904L182.707 128.662C182.469 126.714 182.089 124.81 181.578 122.961Z" fill="#006BCA"/>
<path d="M170 133.5C170 148.136 158.136 160 143.5 160C128.864 160 117 148.136 117 133.5C117 118.864 128.864 107 143.5 107C158.136 107 170 118.864 170 133.5Z" fill="white"/>
<path fill-rule="evenodd" clip-rule="evenodd" d="M143.5 158C157.031 158 168 147.031 168 133.5C168 119.969 157.031 109 143.5 109C129.969 109 119 119.969 119 133.5C119 147.031 129.969 158 143.5 158ZM143.5 160C158.136 160 170 148.136 170 133.5C170 118.864 158.136 107 143.5 107C128.864 107 117 118.864 117 133.5C117 148.136 128.864 160 143.5 160Z" fill="#006BCA"/>
<path d="M82 133.5C82 155.315 64.3152 173 42.5 173C20.6848 173 3 155.315 3 133.5C3 111.685 20.6848 94 42.5 94C64.3152 94 82 111.685 82 133.5Z" fill="#ECF4FB"/>
<path fill-rule="evenodd" clip-rule="evenodd" d="M81.8945 136.409C81.9644 135.448 82 134.478 82 133.5C82 132.522 81.9644 131.552 81.8945 130.591L79.8998 130.736C79.9662 131.649 80 132.57 80 133.5C80 134.43 79.9662 135.351 79.8998 136.264L81.8945 136.409ZM81.7066 138.338L79.7214 138.096C79.4956 139.945 79.1352 141.752 78.6505 143.507L80.5783 144.039C81.0891 142.19 81.4688 140.286 81.7066 138.338ZM80.0161 145.895L78.117 145.268C77.536 147.027 76.8282 148.729 76.0042 150.363L77.79 151.264C78.658 149.542 79.4039 147.749 80.0161 145.895ZM76.8745 152.973L75.1352 151.985C74.2235 153.591 73.1965 155.124 72.0654 156.571L73.6413 157.802C74.8324 156.278 75.9141 154.664 76.8745 152.973ZM72.4104 159.301L70.8965 157.994C69.6927 159.388 68.3879 160.693 66.9936 161.897L68.3006 163.41C69.7688 162.143 71.1427 160.769 72.4104 159.301ZM66.8025 164.641L65.5709 163.065C64.1236 164.197 62.5913 165.224 60.9853 166.135L61.9727 167.875C63.6645 166.914 65.2783 165.832 66.8025 164.641ZM60.2636 168.79L59.3629 167.004C57.7292 167.828 56.0273 168.536 54.2678 169.117L54.8949 171.016C56.7491 170.404 58.5424 169.658 60.2636 168.79ZM53.0394 171.578L52.507 169.651C50.752 170.135 48.945 170.496 47.0959 170.721L47.3384 172.707C49.286 172.469 51.1899 172.089 53.0394 171.578ZM45.4088 172.895L45.2636 170.9C44.3514 170.966 43.4298 171 42.5 171C41.5702 171 40.6486 170.966 39.7364 170.9L39.5912 172.895C40.5517 172.964 41.5217 173 42.5 173C43.4783 173 44.4483 172.964 45.4088 172.895ZM37.6616 172.707L37.9041 170.721C36.055 170.496 34.248 170.135 32.493 169.651L31.9606 171.578C33.8101 172.089 35.714 172.469 37.6616 172.707ZM30.1051 171.016L30.7322 169.117C28.9727 168.536 27.2708 167.828 25.6371 167.004L24.7364 168.79C26.4576 169.658 28.2509 170.404 30.1051 171.016ZM23.0273 167.875L24.0147 166.135C22.4087 165.224 20.8764 164.197 19.4291 163.065L18.1975 164.641C19.7217 165.832 21.3356 166.914 23.0273 167.875ZM16.6994 163.41L18.0064 161.897C16.6121 160.693 15.3073 159.388 14.1035 157.994L12.5896 159.301C13.8572 160.769 15.2312 162.143 16.6994 163.41ZM11.3587 157.802L12.9346 156.571C11.8035 155.124 10.7765 153.591 9.86477 151.985L8.1255 152.973C9.0859 154.664 10.1676 156.278 11.3587 157.802ZM7.21003 151.264L8.99577 150.363C8.17182 148.729 7.46398 147.027 6.88299 145.268L4.98385 145.895C5.5961 147.749 6.34196 149.542 7.21003 151.264ZM4.42165 144.039L6.34948 143.507C5.8648 141.752 5.50445 139.945 5.27862 138.096L3.29337 138.338C3.53124 140.286 3.91088 142.19 4.42165 144.039ZM3.10548 136.409C3.03557 135.448 3 134.478 3 133.5C3 132.522 3.03557 131.552 3.10548 130.591L5.1002 130.736C5.0338 131.649 5 132.57 5 133.5C5 134.43 5.0338 135.351 5.1002 136.264L3.10548 136.409ZM3.29337 128.662L5.27862 128.904C5.50445 127.055 5.8648 125.248 6.34948 123.493L4.42165 122.961C3.91088 124.81 3.53124 126.714 3.29337 128.662ZM4.98385 121.105L6.88299 121.732C7.46398 119.973 8.17182 118.271 8.99577 116.637L7.21003 115.736C6.34196 117.458 5.5961 119.251 4.98385 121.105ZM8.1255 114.027L9.86477 115.015C10.7765 113.409 11.8035 111.876 12.9346 110.429L11.3587 109.198C10.1676 110.722 9.0859 112.336 8.1255 114.027ZM12.5896 107.699L14.1035 109.006C15.3073 107.612 16.6121 106.307 18.0064 105.103L16.6994 103.59C15.2312 104.857 13.8572 106.231 12.5896 107.699ZM18.1975 102.359L19.4291 103.935C20.8764 102.803 22.4087 101.776 24.0147 100.865L23.0273 99.1255C21.3355 100.086 19.7217 101.168 18.1975 102.359ZM24.7364 98.21L25.6371 99.9958C27.2708 99.1718 28.9727 98.464 30.7322 97.883L30.1051 95.9839C28.2509 96.5961 26.4576 97.342 24.7364 98.21ZM31.9606 95.4217L32.493 97.3495C34.248 96.8648 36.055 96.5045 37.9041 96.2786L37.6616 94.2934C35.714 94.5312 33.8101 94.9109 31.9606 95.4217ZM39.5912 94.1055L39.7364 96.1002C40.6486 96.0338 41.5702 96 42.5 96C43.4298 96 44.3514 96.0338 45.2636 96.1002L45.4088 94.1055C44.4483 94.0356 43.4783 94 42.5 94C41.5217 94 40.5517 94.0356 39.5912 94.1055ZM47.3384 94.2934L47.0959 96.2786C48.945 96.5045 50.752 96.8648 52.507 97.3495L53.0394 95.4217C51.1899 94.9109 49.286 94.5312 47.3384 94.2934ZM54.8949 95.9839L54.2678 97.883C56.0273 98.464 57.7292 99.1718 59.3629 99.9958L60.2636 98.21C58.5424 97.342 56.7491 96.5961 54.8949 95.9839ZM61.9727 99.1255L60.9853 100.865C62.5913 101.776 64.1236 102.803 65.5709 103.935L66.8025 102.359C65.2783 101.168 63.6645 100.086 61.9727 99.1255ZM68.3006 103.59L66.9936 105.103C68.3879 106.307 69.6927 107.612 70.8965 109.006L72.4104 107.699C71.1428 106.231 69.7688 104.857 68.3006 103.59ZM73.6413 109.198L72.0654 110.429C73.1965 111.876 74.2235 113.409 75.1352 115.015L76.8745 114.027C75.9141 112.336 74.8324 110.722 73.6413 109.198ZM77.79 115.736L76.0042 116.637C76.8282 118.271 77.536 119.973 78.117 121.732L80.0161 121.105C79.4039 119.251 78.658 117.458 77.79 115.736ZM80.5783 122.961L78.6505 123.493C79.1352 125.248 79.4956 127.055 79.7214 128.904L81.7066 128.662C81.4688 126.714 81.0891 124.81 80.5783 122.961Z" fill="#006BCA"/>
<path d="M69 133.5C69 148.136 57.1355 160 42.5 160C27.8645 160 16 148.136 16 133.5C16 118.864 27.8645 107 42.5 107C57.1355 107 69 118.864 69 133.5Z" fill="white"/>
<path fill-rule="evenodd" clip-rule="evenodd" d="M42.5 158C56.031 158 67 147.031 67 133.5C67 119.969 56.031 109 42.5 109C28.969 109 18 119.969 18 133.5C18 147.031 28.969 158 42.5 158ZM42.5 160C57.1355 160 69 148.136 69 133.5C69 118.864 57.1355 107 42.5 107C27.8645 107 16 118.864 16 133.5C16 148.136 27.8645 160 42.5 160Z" fill="#006BCA"/>
<path fill-rule="evenodd" clip-rule="evenodd" d="M57 133.5C57 125.492 50.5081 119 42.5 119V117C51.6127 117 59 124.387 59 133.5C59 142.613 51.6127 150 42.5 150C33.3873 150 26 142.613 26 133.5H28C28 141.508 34.4919 148 42.5 148C50.5081 148 57 141.508 57 133.5Z" fill="#006BCA"/>
<path fill-rule="evenodd" clip-rule="evenodd" d="M158 133.5C158 125.492 151.508 119 143.5 119V117C152.613 117 160 124.387 160 133.5C160 142.613 152.613 150 143.5 150C134.387 150 127 142.613 127 133.5H129C129 141.508 135.492 148 143.5 148C151.508 148 158 141.508 158 133.5Z" fill="#006BCA"/>
</svg>
