<svg width="186" height="185" viewBox="0 0 186 185" fill="none" xmlns="http://www.w3.org/2000/svg">
<circle cx="92.801" cy="92.2607" r="92.2607" fill="#B1C6D8" fill-opacity="0.5"/>
<path d="M141.726 84.6723L130.213 81.239C129.417 78.4625 128.322 75.7803 126.948 73.2394L132.584 62.6991C132.796 62.3012 132.873 61.8458 132.805 61.4005C132.737 60.9552 132.527 60.5437 132.206 60.2271L123.993 51.9871C123.676 51.6667 123.264 51.4569 122.818 51.3889C122.372 51.3208 121.917 51.3982 121.518 51.6095L111.036 57.2058C108.468 55.766 105.748 54.6146 102.926 53.7725L99.4891 42.4082C99.3438 41.9894 99.0691 41.6274 98.7048 41.3745C98.3404 41.1215 97.9051 40.9906 97.4615 41.0005H85.8455C85.3992 41.0026 84.9652 41.1469 84.6067 41.4124C84.2482 41.678 83.9839 42.0509 83.8522 42.4769L80.4155 53.8068C77.57 54.6444 74.8266 55.796 72.2362 57.2401L61.9261 51.6781C61.5278 51.4669 61.072 51.3895 60.6263 51.4575C60.1805 51.5256 59.7686 51.7354 59.4517 52.0558L51.1005 60.1928C50.7798 60.5094 50.5698 60.9209 50.5017 61.3662C50.4336 61.8115 50.511 62.2669 50.7225 62.6647L56.2899 72.9647C54.8467 75.5417 53.6941 78.2707 52.8532 81.1017L41.4778 84.535C41.0514 84.6665 40.6781 84.9306 40.4123 85.2888C40.1465 85.6469 40.0021 86.0805 40 86.5263V98.1309C40.0021 98.5767 40.1465 99.0103 40.4123 99.3684C40.6781 99.7266 41.0514 99.9907 41.4778 100.122L52.922 103.556C53.772 106.339 54.9244 109.022 56.3587 111.555L50.7225 122.336C50.511 122.734 50.4336 123.189 50.5017 123.634C50.5698 124.08 50.7798 124.491 51.1005 124.808L59.3142 133.013C59.6311 133.334 60.0431 133.544 60.4888 133.612C60.9345 133.68 61.3904 133.602 61.7886 133.391L72.408 127.726C74.9201 129.08 77.57 130.162 80.3124 130.953L83.7491 142.524C83.8808 142.95 84.1451 143.323 84.5036 143.588C84.8621 143.854 85.2961 143.998 85.7424 144H97.3584C97.8047 143.998 98.2386 143.854 98.5971 143.588C98.9557 143.323 99.22 142.95 99.3517 142.524L102.788 130.919C105.507 130.124 108.134 129.042 110.624 127.692L121.312 133.391C121.71 133.602 122.166 133.68 122.612 133.612C123.058 133.544 123.47 133.334 123.787 133.013L132 124.808C132.321 124.491 132.531 124.08 132.599 123.634C132.667 123.189 132.59 122.734 132.378 122.336L126.673 111.692C128.039 109.195 129.133 106.56 129.938 103.83L141.52 100.397C141.946 100.265 142.32 100.001 142.585 99.6431C142.851 99.2849 142.996 98.8514 142.998 98.4056V86.698C143.018 86.271 142.907 85.8481 142.68 85.486C142.452 85.1239 142.12 84.84 141.726 84.6723ZM91.6535 111.383C87.9151 111.383 84.2606 110.276 81.1522 108.201C78.0438 106.126 75.6211 103.177 74.1905 99.7266C72.7599 96.2761 72.3855 92.4793 73.1149 88.8163C73.8442 85.1533 75.6444 81.7887 78.2879 79.1478C80.9313 76.5069 84.2993 74.7085 87.9659 73.9799C91.6325 73.2513 95.433 73.6252 98.8869 75.0544C102.341 76.4837 105.293 78.904 107.37 82.0093C109.447 85.1146 110.555 88.7655 110.555 92.5003C110.555 97.5084 108.564 102.311 105.019 105.853C101.474 109.394 96.6665 111.383 91.6535 111.383Z" fill="#ECF4FB"/>
<path fill-rule="evenodd" clip-rule="evenodd" d="M128.592 82.8427L128.291 81.7902C127.534 79.1526 126.495 76.6046 125.189 74.1908L124.677 73.2447L130.818 61.7603C130.819 61.76 130.819 61.7597 130.819 61.7594C130.828 61.7419 130.831 61.7221 130.828 61.7029C130.825 61.6833 130.816 61.6648 130.801 61.6504L130.796 61.6448L122.571 53.3936C122.556 53.379 122.537 53.3692 122.516 53.366C122.496 53.3628 122.475 53.3663 122.456 53.3758C122.456 53.376 122.457 53.3757 122.456 53.3758L111.013 59.4854L110.059 58.9504C107.619 57.5828 105.035 56.4889 102.354 55.6889L101.323 55.3813L97.5941 43.0511C97.5871 43.0379 97.577 43.0262 97.5642 43.0174C97.5474 43.0057 97.5271 42.9996 97.5063 43L97.4839 43.0005H85.8531C85.8327 43.001 85.8131 43.0077 85.7971 43.0196C85.7811 43.0314 85.7696 43.0476 85.7635 43.0657C85.7634 43.0663 85.7632 43.0669 85.763 43.0675L82.016 55.4205L80.9803 55.7254C78.277 56.5212 75.6709 57.6151 73.21 58.987L72.252 59.5211L60.9866 53.4438C60.9686 53.4348 60.9481 53.4316 60.928 53.4346C60.9071 53.4378 60.8881 53.4476 60.8736 53.4622L60.8606 53.4754L52.5039 61.6177C52.4903 61.6319 52.4816 61.6497 52.4787 61.6685C52.4758 61.6873 52.4788 61.7066 52.4874 61.7238L58.5726 72.9818L58.0349 73.9419C56.664 76.3899 55.5692 78.9821 54.7704 81.6711L54.4634 82.7048L42.0674 86.4461C42.0667 86.4463 42.066 86.4465 42.0653 86.4468C42.0463 86.4531 42.0299 86.465 42.0184 86.4806C42.0067 86.4963 42.0004 86.515 42 86.534V98.1232C42.0004 98.1422 42.0067 98.1609 42.0184 98.1766C42.0298 98.192 42.046 98.2039 42.0648 98.2103L54.5221 101.948L54.8348 102.971C55.6422 105.616 56.7368 108.164 58.0991 110.57L58.6354 111.517L52.4885 123.275C52.4791 123.292 52.4757 123.312 52.4787 123.332C52.4817 123.352 52.491 123.37 52.5055 123.384L52.5141 123.393L60.7362 131.607C60.7506 131.622 60.7696 131.631 60.7906 131.635C60.8111 131.638 60.8321 131.634 60.8504 131.625C60.8507 131.625 60.851 131.624 60.8513 131.624L72.4129 125.457L73.357 125.966C75.7437 127.252 78.2613 128.28 80.8668 129.032L81.9181 129.335L85.6611 141.937C85.6673 141.954 85.6786 141.97 85.694 141.981C85.7101 141.993 85.7298 142 85.7503 142H97.3504C97.371 142 97.3907 141.993 97.4068 141.981C97.4221 141.97 97.4334 141.954 97.4396 141.937L101.18 129.306L102.227 128.999C104.81 128.244 107.305 127.216 109.671 125.934L110.616 125.421L122.249 131.624C122.25 131.624 122.25 131.625 122.25 131.625C122.269 131.634 122.29 131.638 122.31 131.635C122.331 131.631 122.35 131.622 122.365 131.607L122.373 131.598L130.595 123.384C130.61 123.37 130.619 123.352 130.622 123.332C130.625 123.313 130.622 123.293 130.613 123.276C130.613 123.275 130.613 123.275 130.612 123.275L124.399 111.683L124.919 110.733C126.216 108.361 127.255 105.857 128.02 103.265L128.327 102.222L140.934 98.4845C140.952 98.4781 140.968 98.4664 140.979 98.4512C140.991 98.4356 140.997 98.4169 140.998 98.3979V86.6505L141 86.6031C141.001 86.5843 140.996 86.5656 140.986 86.5494C140.983 86.5444 140.979 86.5397 140.975 86.5354L128.592 82.8427ZM141.726 84.6723C142.12 84.84 142.452 85.1239 142.68 85.486C142.907 85.8481 143.018 86.271 142.998 86.698V98.4056C142.996 98.8514 142.851 99.2849 142.585 99.6431C142.32 100.001 141.946 100.265 141.52 100.397L129.938 103.83C129.133 106.56 128.039 109.195 126.673 111.692L132.378 122.336C132.59 122.734 132.667 123.189 132.599 123.634C132.531 124.08 132.321 124.491 132 124.808L123.787 133.013C123.47 133.334 123.058 133.544 122.612 133.612C122.166 133.68 121.71 133.602 121.312 133.391L110.624 127.692C108.134 129.042 105.507 130.124 102.788 130.919L99.3517 142.524C99.22 142.95 98.9557 143.323 98.5971 143.588C98.2386 143.854 97.8047 143.998 97.3584 144H85.7424C85.2961 143.998 84.8621 143.854 84.5036 143.588C84.1451 143.323 83.8808 142.95 83.7491 142.524L80.3124 130.953C77.57 130.162 74.9201 129.08 72.408 127.726L61.7886 133.391C61.3904 133.602 60.9345 133.68 60.4888 133.612C60.0431 133.544 59.6311 133.334 59.3142 133.013L51.1005 124.808C50.7798 124.491 50.5698 124.08 50.5017 123.634C50.4336 123.189 50.511 122.734 50.7225 122.336L56.3587 111.555C54.9244 109.022 53.772 106.339 52.922 103.556L41.4778 100.122C41.0514 99.9907 40.6781 99.7266 40.4123 99.3684C40.1465 99.0103 40.0021 98.5767 40 98.1309V86.5263C40.0021 86.0805 40.1465 85.6469 40.4123 85.2888C40.6781 84.9306 41.0514 84.6665 41.4778 84.535L52.8532 81.1017C53.6941 78.2707 54.8467 75.5417 56.2899 72.9647L50.7225 62.6647C50.511 62.2669 50.4336 61.8115 50.5017 61.3662C50.5698 60.9209 50.7798 60.5094 51.1005 60.1928L59.4517 52.0558C59.7686 51.7354 60.1805 51.5256 60.6263 51.4575C61.072 51.3895 61.5278 51.4669 61.9261 51.6781L72.2362 57.2401C74.8266 55.796 77.57 54.6444 80.4155 53.8068L83.8522 42.4769C83.9839 42.0509 84.2482 41.678 84.6067 41.4124C84.9652 41.1469 85.3992 41.0026 85.8455 41.0005H97.4615C97.9051 40.9906 98.3404 41.1215 98.7048 41.3745C99.0691 41.6274 99.3438 41.9894 99.4891 42.4082L102.926 53.7725C105.748 54.6146 108.468 55.766 111.036 57.2058L121.518 51.6095C121.917 51.3982 122.372 51.3208 122.818 51.3889C123.264 51.4569 123.676 51.6667 123.993 51.9871L132.206 60.2271C132.527 60.5437 132.737 60.9552 132.805 61.4005C132.873 61.8458 132.796 62.3012 132.584 62.6991L126.948 73.2394C128.322 75.7803 129.417 78.4625 130.213 81.239L141.726 84.6723ZM91.6535 113.383C87.5199 113.383 83.479 112.159 80.0418 109.865C76.6046 107.57 73.9252 104.309 72.343 100.493C70.7607 96.6764 70.3467 92.4771 71.1534 88.4258C71.96 84.3745 73.951 80.6533 76.8744 77.7329C79.7977 74.8125 83.5219 72.8239 87.5761 72.0182C91.6303 71.2126 95.8326 71.6261 99.6516 73.2064C103.471 74.7868 106.735 77.4631 109.032 80.8974C111.329 84.3317 112.555 88.3695 112.555 92.5003C112.555 98.0395 110.353 103.351 106.433 107.268C102.513 111.184 97.1963 113.383 91.6535 113.383ZM81.1522 108.201C84.2606 110.276 87.9151 111.383 91.6535 111.383C96.6665 111.383 101.474 109.394 105.019 105.853C108.564 102.311 110.555 97.5084 110.555 92.5003C110.555 88.7655 109.447 85.1146 107.37 82.0093C105.293 78.904 102.341 76.4837 98.8869 75.0544C95.433 73.6252 91.6325 73.2513 87.9659 73.9799C84.2993 74.7085 80.9313 76.5069 78.2879 79.1478C75.6444 81.7887 73.8442 85.1533 73.1149 88.8163C72.3855 92.4793 72.7599 96.2761 74.1905 99.7266C75.6211 103.177 78.0438 106.126 81.1522 108.201Z" fill="#006BCA"/>
<path d="M105 171.5C105 178.956 98.9558 185 91.5 185C84.0442 185 78 178.956 78 171.5C78 164.044 84.0442 158 91.5 158C98.9558 158 105 164.044 105 171.5Z" fill="white"/>
<path fill-rule="evenodd" clip-rule="evenodd" d="M91.5 183C97.8513 183 103 177.851 103 171.5C103 165.149 97.8513 160 91.5 160C85.1487 160 80 165.149 80 171.5C80 177.851 85.1487 183 91.5 183ZM91.5 185C98.9558 185 105 178.956 105 171.5C105 164.044 98.9558 158 91.5 158C84.0442 158 78 164.044 78 171.5C78 178.956 84.0442 185 91.5 185Z" fill="#006BCA"/>
<path d="M170.5 79C177.956 79 184 85.0442 184 92.5C184 99.9558 177.956 106 170.5 106C163.044 106 157 99.9558 157 92.5C157 85.0442 163.044 79 170.5 79Z" fill="white"/>
<path fill-rule="evenodd" clip-rule="evenodd" d="M182 92.5C182 86.1487 176.851 81 170.5 81C164.149 81 159 86.1487 159 92.5C159 98.8513 164.149 104 170.5 104C176.851 104 182 98.8513 182 92.5ZM184 92.5C184 85.0442 177.956 79 170.5 79C163.044 79 157 85.0442 157 92.5C157 99.9558 163.044 106 170.5 106C177.956 106 184 99.9558 184 92.5Z" fill="#006BCA"/>
<path fill-rule="evenodd" clip-rule="evenodd" d="M61.9459 24.5725C43.1487 32.6991 29.4696 47.7326 22.5922 65.4234L20.7281 64.6988C27.7914 46.5297 41.8442 31.0841 61.1523 22.7368L61.9459 24.5725ZM120.3 159.551C139.098 151.424 152.777 136.391 159.654 118.7L161.518 119.424C154.455 137.593 140.402 153.039 121.094 161.386L120.3 159.551Z" fill="#006BCA"/>
<path fill-rule="evenodd" clip-rule="evenodd" d="M160.25 67.01C153.272 47.7566 139.092 33.1953 121.848 25.263L122.684 23.446C140.394 31.5927 154.963 46.5519 162.13 66.3285L160.25 67.01ZM21.9965 117.113C28.974 136.367 43.1547 150.928 60.3983 158.86L59.5625 160.677C41.8528 152.531 27.2833 137.571 20.1162 117.795L21.9965 117.113Z" fill="#006BCA"/>
<path d="M105 13.5C105 20.9558 98.9558 27 91.5 27C84.0442 27 78 20.9558 78 13.5C78 6.04416 84.0442 0 91.5 0C98.9558 0 105 6.04416 105 13.5Z" fill="white"/>
<path fill-rule="evenodd" clip-rule="evenodd" d="M91.5 25C97.8513 25 103 19.8513 103 13.5C103 7.14873 97.8513 2 91.5 2C85.1487 2 80 7.14873 80 13.5C80 19.8513 85.1487 25 91.5 25ZM91.5 27C98.9558 27 105 20.9558 105 13.5C105 6.04416 98.9558 0 91.5 0C84.0442 0 78 6.04416 78 13.5C78 20.9558 84.0442 27 91.5 27Z" fill="#006BCA"/>
<path d="M13.5 79C20.9558 79 27 85.0442 27 92.5C27 99.9558 20.9558 106 13.5 106C6.04416 106 -2.64198e-07 99.9558 -5.90104e-07 92.5C-9.16009e-07 85.0442 6.04415 79 13.5 79Z" fill="white"/>
<path fill-rule="evenodd" clip-rule="evenodd" d="M25 92.5C25 86.1487 19.8513 81 13.5 81C7.14872 81 2 86.1487 2 92.5C2 98.8513 7.14873 104 13.5 104C19.8513 104 25 98.8513 25 92.5ZM27 92.5C27 85.0442 20.9558 79 13.5 79C6.04415 79 -9.16009e-07 85.0442 -5.90104e-07 92.5C-2.64198e-07 99.9558 6.04416 106 13.5 106C20.9558 106 27 99.9558 27 92.5Z" fill="#006BCA"/>
<path fill-rule="evenodd" clip-rule="evenodd" d="M20.1102 114.985L29.7503 118.742L29.0239 120.606L21.2474 117.575L18.2164 125.351L16.3529 124.625L20.1102 114.985Z" fill="#006BCA"/>
<path fill-rule="evenodd" clip-rule="evenodd" d="M64.0482 23.5963L58.875 32.5565L57.1429 31.5565L61.3161 24.3283L54.0879 20.1551L55.0879 18.4231L64.0482 23.5963Z" fill="#006BCA"/>
<path fill-rule="evenodd" clip-rule="evenodd" d="M161.835 69.3704L152.874 64.1972L153.874 62.4652L161.103 66.6384L165.276 59.4102L167.008 60.4102L161.835 69.3704Z" fill="#006BCA"/>
<path fill-rule="evenodd" clip-rule="evenodd" d="M118.832 161.418L121.51 151.424L123.442 151.941L121.282 160.003L129.344 162.164L128.826 164.095L118.832 161.418Z" fill="#006BCA"/>
</svg>
