<svg width="186" height="185" viewBox="0 0 186 185" fill="none" xmlns="http://www.w3.org/2000/svg">
<circle cx="92.801" cy="92.2607" r="92.2607" fill="#B1C6D8" fill-opacity="0.5"/>
<path d="M34.1315 63.484C33.069 68.4287 38.7059 72.9025 41.6571 74.5213C41.6571 74.5213 59.8072 86 90.3525 86C101.567 86 128.26 82.3839 138.163 74.5213C160.297 61.7181 138.163 57.7447 138.163 57.7447C136.834 50.2394 132.053 32.7564 123.554 22.867C115.054 12.9777 102.6 9.32801 97.4355 8.73936C96.6977 6.82624 94.2482 3 90.3525 3C86.4569 3 84.3025 7.4149 83.7122 9.62234C81.0561 8.73937 72.5566 9.88724 59.8072 21.5426C47.0579 33.1979 43.8706 50.5337 43.8706 57.7447C40.7718 58.6277 34.9852 59.5106 34.1315 63.484Z" fill="white"/>
<path fill-rule="evenodd" clip-rule="evenodd" d="M83 9.5C83 5.35786 86.3579 2 90.5 2C94.6421 2 98 5.35786 98 9.5V52C98 52.5523 97.5523 53 97 53C96.4477 53 96 52.5523 96 52V9.5C96 6.46243 93.5376 4 90.5 4C87.4624 4 85 6.46243 85 9.5V52C85 52.5523 84.5523 53 84 53C83.4477 53 83 52.5523 83 52V9.5Z" fill="#006BCA"/>
<path fill-rule="evenodd" clip-rule="evenodd" d="M96.4271 8.84795C96.5111 8.30209 97.0217 7.92765 97.5676 8.01163C121.094 11.6311 139 33.1659 139 63C139 63.5523 138.552 64 138 64C137.448 64 137 63.5523 137 63C137 33.975 119.648 13.4322 97.2635 9.98838C96.7176 9.9044 96.3432 9.39381 96.4271 8.84795ZM84.5299 8.84878C84.6134 9.39471 84.2386 9.90498 83.6926 9.9885C61.3283 13.41 44 33.7217 44 63C44 63.5523 43.5523 64 43 64C42.4477 64 42 63.5523 42 63C42 32.9101 59.8849 11.6075 83.3902 8.0115C83.9361 7.92798 84.4464 8.30284 84.5299 8.84878Z" fill="#006BCA"/>
<path fill-rule="evenodd" clip-rule="evenodd" d="M144.903 61.323C143.382 60.2942 140.961 59.5854 137.39 58.9862L137.72 57.0138C141.311 57.616 144.113 58.3747 146.023 59.6661C147 60.3266 147.76 61.1358 148.268 62.1397C148.773 63.1394 149 64.2745 149 65.5467C149 66.7677 148.489 68.0085 147.666 69.2044C146.837 70.4083 145.643 71.6382 144.155 72.8589C141.176 75.3013 136.914 77.7913 131.699 80.0253C121.263 84.496 106.88 88 91 88C75.1272 88 60.7452 84.6499 50.3068 80.2544C45.0911 78.058 40.8236 75.5855 37.8407 73.1101C36.3494 71.8725 35.1539 70.6134 34.3248 69.3638C33.4982 68.118 33 66.8267 33 65.5467C33 62.7136 34.865 60.8604 37.0517 59.624C39.231 58.3918 41.9648 57.6303 44.1858 57.0342L44.7042 58.9658C42.4488 59.5711 39.9601 60.2771 38.036 61.365C36.1193 62.4488 35 63.7682 35 65.5467C35 66.3063 35.2993 67.2151 35.9913 68.258C36.6807 69.297 37.7249 70.415 39.118 71.5711C41.9038 73.883 45.9838 76.2639 51.083 78.4111C61.2745 82.7027 75.3925 86 91 86C106.601 86 120.717 82.5543 130.911 78.1869C136.012 76.0019 140.096 73.6006 142.887 71.3124C144.282 70.1678 145.328 69.0724 146.018 68.0703C146.714 67.0603 147 66.2143 147 65.5467C147 64.5132 146.817 63.7022 146.483 63.0423C146.151 62.3865 145.642 61.8226 144.903 61.323Z" fill="#006BCA"/>
<path fill-rule="evenodd" clip-rule="evenodd" d="M73.9169 16.0034C74.4673 15.9576 74.9507 16.3666 74.9965 16.9169L76.9965 40.917C77.0424 41.4673 76.6334 41.9507 76.083 41.9965C75.5327 42.0424 75.0493 41.6334 75.0034 41.083L73.0034 17.083C72.9576 16.5327 73.3666 16.0493 73.9169 16.0034Z" fill="#006BCA"/>
<path fill-rule="evenodd" clip-rule="evenodd" d="M107.124 16.0077C107.672 16.0762 108.061 16.576 107.992 17.124L104.992 41.124C104.924 41.6721 104.424 42.0608 103.876 41.9923C103.328 41.9238 102.939 41.424 103.008 40.876L106.008 16.876C106.076 16.3279 106.576 15.9392 107.124 16.0077Z" fill="#006BCA"/>
<path fill-rule="evenodd" clip-rule="evenodd" d="M42.2955 62.2903C42.6874 61.9012 43.3206 61.9035 43.7097 62.2955C45.3648 63.9628 49.6464 66.6501 57.0346 68.9191C64.3905 71.1781 74.7553 73 88.5 73C102.273 73 112.668 71.7508 120.053 70.199C127.474 68.6397 131.777 66.7911 133.433 65.6503C133.887 65.3369 134.51 65.4515 134.823 65.9062C135.137 66.3609 135.022 66.9836 134.567 67.2971C132.583 68.665 127.968 70.5796 120.465 72.1563C112.926 73.7404 102.391 75 88.5 75C74.5807 75 64.0156 73.1552 56.4474 70.8309C48.9116 68.5166 44.2752 65.7039 42.2903 63.7045C41.9012 63.3126 41.9035 62.6794 42.2955 62.2903Z" fill="#006BCA"/>
<path d="M165 166C165 172 160.333 174.167 158 174.5C152.333 177.833 131.7 184.5 94.5 184.5C57.3 184.5 35.3333 177.833 29 174.5C26.5 174.5 21.5 171 21.5 166C21.5 156.8 50.8333 147.5 65.5 144C70 151 80.9 158.5 94.5 158.5C108.1 158.5 117.167 148.833 120 144C137.5 147 165 157 165 166Z" fill="#ECF4FB"/>
<path fill-rule="evenodd" clip-rule="evenodd" d="M65.9577 142.863L66.3412 143.459C70.6606 150.178 81.2466 157.5 94.5 157.5C107.618 157.5 116.408 148.15 119.137 143.494L119.487 142.897L120.169 143.014C128.995 144.527 140.325 147.8 149.466 151.835C154.033 153.851 158.104 156.078 161.049 158.402C163.937 160.681 166 163.255 166 166C166 169.293 164.706 171.598 163.05 173.113C161.424 174.6 159.48 175.299 158.141 175.49C157.595 175.568 157.088 175.188 157.01 174.641C156.932 174.095 157.312 173.588 157.859 173.51C158.854 173.368 160.41 172.817 161.7 171.637C162.96 170.485 164 168.707 164 166C164 164.245 162.625 162.194 159.81 159.973C157.053 157.797 153.154 155.649 148.659 153.665C139.904 149.801 129.071 146.637 120.497 145.102C117.203 150.267 108.043 159.5 94.5 159.5C80.9329 159.5 69.9517 152.234 65.0553 145.136C57.7675 146.909 47.2133 150.017 38.3926 153.782C33.8381 155.726 29.7965 157.824 26.9101 159.975C23.957 162.176 22.5 164.219 22.5 166C22.5 168.154 23.5782 170.034 25.005 171.404C25.715 172.085 26.491 172.619 27.2172 172.979C27.958 173.346 28.5831 173.5 29 173.5C29.5523 173.5 30 173.948 30 174.5C30 175.052 29.5523 175.5 29 175.5C28.1669 175.5 27.2295 175.217 26.3296 174.771C25.4153 174.318 24.4725 173.665 23.62 172.846C21.9218 171.216 20.5 168.846 20.5 166C20.5 163.181 22.7097 160.611 25.7149 158.372C28.7869 156.082 32.9952 153.911 37.6074 151.943C46.843 148.001 57.9012 144.785 65.2679 143.027L65.9577 142.863Z" fill="#006BCA"/>
<path fill-rule="evenodd" clip-rule="evenodd" d="M47.5 148.5C48.0523 148.5 48.5 148.948 48.5 149.5V179C48.5 179.552 48.0523 180 47.5 180C46.9477 180 46.5 179.552 46.5 179V149.5C46.5 148.948 46.9477 148.5 47.5 148.5Z" fill="#006BCA"/>
<path fill-rule="evenodd" clip-rule="evenodd" d="M139 148.5C139.552 148.5 140 148.948 140 149.5V179C140 179.552 139.552 180 139 180C138.448 180 138 179.552 138 179V149.5C138 148.948 138.448 148.5 139 148.5Z" fill="#006BCA"/>
<path fill-rule="evenodd" clip-rule="evenodd" d="M50 84C50.5523 84 51 84.4477 51 85C51 101.104 55.7586 115.642 63.4026 126.13C71.0472 136.619 81.5237 143 93 143C104.476 143 114.953 136.619 122.597 126.13C130.241 115.642 135 101.104 135 85C135 84.4477 135.448 84 136 84C136.552 84 137 84.4477 137 85C137 101.481 132.133 116.443 124.214 127.308C116.295 138.173 105.272 145 93 145C80.7281 145 69.7046 138.173 61.7863 127.308C53.8673 116.443 49 101.481 49 85C49 84.4477 49.4477 84 50 84Z" fill="#006BCA"/>
<path d="M103 62.5C103 69.4036 97.4036 75 90.5 75C83.5964 75 78 69.4036 78 62.5C78 55.5964 83.5964 50 90.5 50C97.4036 50 103 55.5964 103 62.5Z" fill="white"/>
<path fill-rule="evenodd" clip-rule="evenodd" d="M90.5 73C96.299 73 101 68.299 101 62.5C101 56.701 96.299 52 90.5 52C84.701 52 80 56.701 80 62.5C80 68.299 84.701 73 90.5 73ZM90.5 75C97.4036 75 103 69.4036 103 62.5C103 55.5964 97.4036 50 90.5 50C83.5964 50 78 55.5964 78 62.5C78 69.4036 83.5964 75 90.5 75Z" fill="#006BCA"/>
<path d="M98 62.5C98 66.6421 94.6421 70 90.5 70C86.3579 70 83 66.6421 83 62.5C83 58.3579 86.3579 55 90.5 55C94.6421 55 98 58.3579 98 62.5Z" fill="white"/>
<path fill-rule="evenodd" clip-rule="evenodd" d="M90.5 68C93.5376 68 96 65.5376 96 62.5C96 59.4624 93.5376 57 90.5 57C87.4624 57 85 59.4624 85 62.5C85 65.5376 87.4624 68 90.5 68ZM90.5 70C94.6421 70 98 66.6421 98 62.5C98 58.3579 94.6421 55 90.5 55C86.3579 55 83 58.3579 83 62.5C83 66.6421 86.3579 70 90.5 70Z" fill="#006BCA"/>
</svg>
