<svg width="186" height="185" viewBox="0 0 186 185" fill="none" xmlns="http://www.w3.org/2000/svg">
<circle cx="92.2607" cy="92.2607" r="92.2607" fill="#B1C6D8" fill-opacity="0.5"/>
<path d="M66.9597 80.5C62.1597 80.5 51.9597 84.1667 47.4597 86L35.4597 128.5C40.2931 132.667 53.6597 144.7 68.4597 159.5C86.9597 178 90.4597 172 92.9597 170.5C94.9597 169.3 95.1264 165 95.4597 163C99.6264 165.167 105.96 170.5 112.96 166.5C116.433 164.515 115.293 159.5 114.46 157.5L121.46 159.5C122.626 159.5 125.96 160.5 128.96 157.5C130.999 155.46 131.293 150.833 130.96 148.5C133.126 148.333 137.46 148.5 140.46 145.5C142.669 143.291 143.46 139 143.46 137L84.9597 80.5H66.9597Z" fill="#ECF4FB"/>
<path fill-rule="evenodd" clip-rule="evenodd" d="M47.8744 86.3714L36.0274 128.33C41.061 132.685 54.2435 144.577 68.8133 159.146C78.0583 168.392 83.4629 171.412 86.7976 172.008C89.3993 172.472 90.7301 171.489 91.8631 170.653C92.1498 170.441 92.4238 170.238 92.7025 170.071C93.0922 169.837 93.4225 169.434 93.7002 168.879C93.977 168.326 94.1849 167.657 94.347 166.94C94.5622 165.987 94.6836 165.031 94.7911 164.183C94.8494 163.723 94.9036 163.295 94.9665 162.918L95.0797 162.239L95.6904 162.556C96.3772 162.914 97.1311 163.361 97.9229 163.83C98.345 164.081 98.7778 164.337 99.217 164.59C100.498 165.328 101.871 166.056 103.321 166.594C106.209 167.664 109.379 167.97 112.712 166.066C114.237 165.194 114.782 163.651 114.825 161.993C114.868 160.33 114.396 158.647 113.998 157.692L113.599 156.734L121.533 159.001C121.748 159.006 122.003 159.032 122.29 159.062C123.822 159.218 126.282 159.47 128.606 157.146C129.515 156.238 130.075 154.697 130.357 153.027C130.635 151.372 130.624 149.684 130.465 148.571L130.389 148.042L130.921 148.001C131.198 147.98 131.503 147.964 131.829 147.946C134.164 147.821 137.617 147.635 140.106 145.146C141.126 144.126 141.846 142.592 142.309 141.03C142.738 139.583 142.932 138.164 142.957 137.209L84.7577 81H66.9597C64.6444 81 60.961 81.8933 57.2447 83.0403C53.6703 84.1435 50.1287 85.4608 47.8744 86.3714ZM56.9498 82.0847C60.6584 80.9401 64.4751 80 66.9597 80H85.1617L143.96 136.788V137C143.96 138.052 143.754 139.673 143.268 141.314C142.783 142.949 142.002 144.665 140.813 145.854C138.028 148.639 134.147 148.834 131.842 148.949C131.73 148.955 131.622 148.961 131.517 148.966C131.626 150.144 131.597 151.683 131.343 153.193C131.05 154.93 130.444 156.723 129.313 157.854C126.607 160.56 123.564 160.219 122.089 160.053C121.826 160.024 121.612 160 121.46 160H121.39L115.26 158.249C115.583 159.286 115.86 160.648 115.824 162.019C115.777 163.864 115.155 165.821 113.208 166.934C109.541 169.03 106.044 168.669 102.973 167.531C101.445 166.965 100.015 166.204 98.718 165.457C98.2501 165.187 97.8038 164.923 97.3767 164.669C96.8401 164.351 96.3337 164.05 95.8521 163.781C95.8339 163.92 95.8153 164.065 95.7959 164.217C95.6834 165.097 95.546 166.171 95.3224 167.16C95.1512 167.918 94.9216 168.674 94.5943 169.327C94.2678 169.979 93.8273 170.563 93.217 170.929C93.0157 171.049 92.7946 171.215 92.5454 171.402C91.4087 172.253 89.6896 173.54 86.6218 172.992C82.9565 172.338 77.3611 169.108 68.1062 159.854C53.315 145.062 39.9574 133.037 35.1332 128.879L34.892 128.671L47.0449 85.6291L47.2711 85.537C49.5322 84.6158 53.221 83.2356 56.9498 82.0847Z" fill="black"/>
<path d="M128.762 88.5313L137.115 86.8672C136.558 85.5729 135.778 82.7625 137.115 81.875C138.785 80.7656 166.626 74.664 168.297 75.7734C169.967 76.8828 185.001 132.906 184.445 134.57C183.888 136.234 157.16 144 155.49 144C154.153 144 153.96 141 152.819 137.898H146.581C144.353 137.898 141.198 135.68 139.899 134.57L98.6936 101.289L87.5571 104.062C84.773 109.424 76.7547 118.928 66.9546 114.047C54.7045 107.945 77.5343 81.3203 90.8981 77.4375C101.589 74.3313 120.595 83.5391 128.762 88.5313Z" fill="white"/>
<path d="M3.47662 131.242C2.91979 129.578 16.2836 75.7734 19.6245 73C21.8518 73 48.0226 79.1016 48.5794 81.875C49.1363 84.6484 32.4315 137.898 30.7611 139.563C29.0906 141.227 4.03344 132.906 3.47662 131.242Z" fill="white"/>
<path fill-rule="evenodd" clip-rule="evenodd" d="M19.2636 72H19.6245C20.0138 72 20.765 72.1171 21.6675 72.2843C22.6126 72.4594 23.8319 72.7112 25.2265 73.0204C28.0165 73.639 31.5293 74.4921 34.9906 75.4324C38.4468 76.3714 41.8747 77.4036 44.4845 78.3818C45.7848 78.8692 46.9162 79.3558 47.7547 79.8245C48.1719 80.0577 48.5513 80.3055 48.8494 80.5692C49.1218 80.8101 49.4596 81.1789 49.5599 81.6781C49.6069 81.9126 49.5949 82.1688 49.5785 82.3636C49.5599 82.5846 49.5239 82.8432 49.4753 83.129C49.378 83.7021 49.2208 84.4405 49.0155 85.3113C48.6041 87.0559 47.9864 89.3853 47.2281 92.0942C45.7107 97.515 43.6196 104.493 41.4603 111.432C39.3009 118.371 37.0709 125.279 35.2749 130.559C34.3774 133.198 33.5857 135.438 32.964 137.075C32.6537 137.892 32.3814 138.57 32.1566 139.077C32.0446 139.329 31.9387 139.551 31.8412 139.733C31.7604 139.883 31.6341 140.104 31.4668 140.271C31.1047 140.632 30.6052 140.722 30.294 140.756C29.9274 140.796 29.5003 140.786 29.0477 140.747C28.1364 140.67 26.9683 140.465 25.656 140.175C23.0223 139.594 19.6845 138.648 16.3982 137.603C13.1102 136.558 9.84899 135.406 7.36626 134.406C6.12796 133.907 5.06363 133.439 4.28104 133.034C3.89252 132.833 3.54757 132.635 3.27844 132.444C3.14435 132.349 3.00754 132.241 2.88816 132.12C2.78249 132.014 2.61708 131.825 2.5283 131.56C2.47361 131.396 2.46441 131.243 2.46138 131.165C2.45763 131.069 2.46063 130.97 2.46627 130.877C2.4776 130.688 2.50352 130.46 2.53917 130.206C2.61092 129.693 2.73146 129.009 2.89202 128.184C3.21384 126.532 3.70613 124.271 4.32055 121.605C5.54997 116.272 7.27519 109.294 9.12189 102.282C10.9681 95.2728 12.9389 88.2183 14.6596 82.7369C15.5192 79.9983 16.3213 77.6368 17.018 75.8647C17.3657 74.9801 17.6942 74.2245 17.9972 73.6355C18.2769 73.0917 18.6034 72.548 18.9858 72.2306L19.2636 72ZM20.0607 74.0438C19.9778 74.1748 19.8826 74.3425 19.7758 74.5502C19.5162 75.0548 19.2156 75.7412 18.8793 76.5965C18.2078 78.3043 17.4221 80.6143 16.5678 83.3359C14.8604 88.7748 12.8986 95.7956 11.0559 102.792C9.21366 109.786 7.49353 116.744 6.26944 122.054C5.65711 124.711 5.17061 126.947 4.85512 128.567C4.69703 129.378 4.58429 130.023 4.51983 130.483C4.49988 130.625 4.48542 130.744 4.47567 130.841C4.6364 130.95 4.87545 131.09 5.19965 131.257C5.90049 131.62 6.89815 132.061 8.11336 132.551C10.5376 133.527 13.7496 134.663 17.0042 135.697C20.2606 136.733 23.5351 137.659 26.0869 138.222C27.3673 138.504 28.4352 138.689 29.2161 138.755C29.6096 138.788 29.8927 138.788 30.077 138.767C30.0814 138.767 30.0858 138.766 30.0901 138.766C30.1523 138.649 30.2317 138.483 30.3285 138.265C30.5317 137.808 30.789 137.168 31.0943 136.365C31.7037 134.76 32.4867 132.545 33.3815 129.915C35.1701 124.656 37.3946 117.766 39.5506 110.838C41.7068 103.909 43.7918 96.9508 45.3022 91.5551C46.0577 88.8558 46.6668 86.5571 47.0689 84.8522C47.2703 83.9983 47.4165 83.3066 47.5036 82.7942C47.5472 82.5372 47.5735 82.3392 47.5856 82.1959C47.5877 82.1704 47.5892 82.1483 47.5903 82.1295C47.5738 82.1126 47.5523 82.0919 47.5245 82.0674C47.377 81.9369 47.1348 81.7693 46.7788 81.5702C46.0708 81.1744 45.0488 80.7292 43.7826 80.2546C41.2591 79.3088 37.9007 78.2956 34.4662 77.3625C31.0368 76.4308 27.5545 75.5851 24.7936 74.973C23.4128 74.6668 22.2177 74.4203 21.3032 74.2509C20.7604 74.1503 20.3472 74.0831 20.0607 74.0438ZM4.31011 130.714C4.30424 130.708 4.30587 130.709 4.31244 130.716C4.3115 130.715 4.31073 130.715 4.31011 130.714ZM4.45973 131.084C4.46049 131.093 4.46015 131.095 4.45986 131.087C4.45982 131.087 4.45976 131.085 4.45973 131.084ZM168.267 74.7107C168.418 74.7419 168.641 74.8018 168.85 74.9404C169.019 75.0527 169.13 75.1919 169.187 75.2685C169.255 75.3592 169.314 75.4562 169.365 75.5473C169.467 75.7299 169.572 75.9551 169.679 76.205C169.894 76.7087 170.15 77.3938 170.438 78.2221C171.014 79.8832 171.741 82.1848 172.56 84.9062C174.2 90.3525 176.221 97.521 178.171 104.702C180.121 111.883 182.003 119.085 183.362 124.598C184.042 127.353 184.593 129.694 184.957 131.403C185.139 132.256 185.277 132.963 185.361 133.491C185.403 133.753 185.434 133.987 185.449 134.18C185.457 134.276 185.461 134.378 185.459 134.476C185.457 134.553 185.451 134.715 185.393 134.888C185.298 135.17 185.116 135.365 185.005 135.469C184.879 135.589 184.734 135.695 184.593 135.787C184.31 135.972 183.946 136.164 183.536 136.358C182.709 136.748 181.58 137.2 180.266 137.684C177.632 138.655 174.167 139.788 170.68 140.865C167.19 141.942 163.665 142.968 160.905 143.725C159.525 144.103 158.331 144.416 157.426 144.635C156.974 144.744 156.586 144.832 156.279 144.893C156.007 144.947 155.709 145 155.49 145C154.701 145 154.17 144.527 153.842 144.045C153.53 143.586 153.31 142.993 153.127 142.412C152.991 141.981 152.857 141.49 152.72 140.986C152.669 140.801 152.618 140.614 152.566 140.428C152.428 139.929 152.279 139.416 152.108 138.898H146.581C145.195 138.898 143.658 138.231 142.4 137.521C141.114 136.796 139.953 135.93 139.26 135.34L98.4524 102.38L88.2305 104.925C86.7332 107.668 84.0239 111.289 80.4497 113.722C76.6593 116.303 71.8164 117.586 66.5088 114.942C64.7761 114.079 63.6088 112.818 62.9883 111.249C62.3767 109.703 62.3297 107.945 62.6649 106.118C63.3316 102.484 65.5575 98.3168 68.5172 94.3155C71.4914 90.2945 75.2729 86.3522 79.1625 83.1643C83.0368 79.9891 87.0916 77.5021 90.6191 76.4772C93.4828 75.6452 96.8345 75.6537 100.322 76.1692C103.82 76.6861 107.519 77.7228 111.113 79.0057C118.107 81.5024 124.788 84.9634 128.949 87.4745L135.781 86.1133C135.614 85.5591 135.471 84.9352 135.41 84.318C135.309 83.3093 135.38 81.8266 136.561 81.042C136.782 80.8956 137.099 80.7715 137.386 80.6693C137.708 80.555 138.113 80.4271 138.584 80.2891C139.528 80.0126 140.774 79.6838 142.216 79.3269C145.102 78.6125 148.804 77.7777 152.503 77.0129C156.2 76.2485 159.909 75.5511 162.805 75.114C164.251 74.8958 165.513 74.7395 166.478 74.6739C166.958 74.6413 167.389 74.6293 167.743 74.6484C167.92 74.6579 168.099 74.6763 168.267 74.7107ZM138.057 82.5536C137.814 82.64 137.704 82.6915 137.675 82.7051C137.668 82.7086 137.665 82.7096 137.668 82.708C137.513 82.8109 137.306 83.1771 137.4 84.1191C137.484 84.963 137.781 85.8871 138.033 86.472L138.521 87.6066L128.574 89.5884L128.241 89.3845C124.204 86.9172 117.473 83.3997 110.441 80.8893C106.925 79.6344 103.358 78.6396 100.03 78.1477C96.6921 77.6544 93.6589 77.6767 91.1771 78.3978C88.0226 79.3143 84.2123 81.6115 80.4303 84.7112C76.6636 87.7982 72.9975 91.6215 70.1251 95.5048C67.2381 99.4078 65.2182 103.284 64.6321 106.479C64.3408 108.067 64.4156 109.42 64.8481 110.513C65.2716 111.584 66.0706 112.489 67.4005 113.152C71.893 115.389 75.9593 114.36 79.3241 112.069C82.7275 109.752 85.3299 106.182 86.6696 103.602L86.8776 103.201L98.9349 100.198L140.538 133.801L140.548 133.81C141.156 134.329 142.217 135.122 143.383 135.779C144.584 136.457 145.739 136.898 146.581 136.898H153.517L153.758 137.553C154.057 138.367 154.292 139.167 154.493 139.892C154.552 140.103 154.607 140.304 154.659 140.497C154.793 140.985 154.911 141.42 155.035 141.812C155.21 142.369 155.36 142.721 155.496 142.921C155.518 142.953 155.535 142.976 155.549 142.992C155.609 142.983 155.717 142.966 155.889 142.932C156.158 142.878 156.516 142.797 156.956 142.691C157.834 142.479 159.006 142.172 160.376 141.796C163.114 141.045 166.619 140.026 170.09 138.954C173.563 137.881 176.989 136.76 179.575 135.807C180.871 135.33 181.935 134.902 182.682 134.549C183.016 134.392 183.265 134.259 183.436 134.153C183.424 134.058 183.408 133.942 183.386 133.805C183.31 133.329 183.18 132.661 183.001 131.82C182.643 130.142 182.098 127.825 181.42 125.077C180.066 119.583 178.188 112.397 176.241 105.226C174.293 98.0542 172.277 90.9048 170.645 85.4827C169.829 82.7698 169.111 80.4996 168.548 78.8781C168.266 78.0651 168.028 77.4312 167.84 76.9915C167.779 76.8499 167.728 76.7365 167.684 76.6485C167.669 76.6474 167.653 76.6464 167.636 76.6455C167.398 76.6326 167.058 76.6391 166.614 76.6693C165.73 76.7294 164.53 76.8764 163.104 77.0916C160.258 77.5211 156.589 78.2105 152.908 78.9715C149.229 79.7321 145.553 80.5613 142.697 81.2683C141.268 81.6221 140.052 81.9433 139.147 82.2085C138.693 82.3413 138.328 82.4572 138.057 82.5536ZM183.46 134.43C183.46 134.438 183.459 134.436 183.46 134.426C183.46 134.428 183.46 134.429 183.46 134.43ZM183.626 134.021C183.633 134.013 183.635 134.012 183.629 134.018C183.628 134.019 183.628 134.02 183.626 134.021ZM155.583 143.027C155.583 143.027 155.581 143.026 155.577 143.022C155.581 143.024 155.583 143.027 155.583 143.027Z" fill="#006BCA"/>
<path fill-rule="evenodd" clip-rule="evenodd" d="M110.646 110.919C110.967 110.469 111.592 110.365 112.041 110.686C114.245 112.261 118.387 114.076 122.202 115.03C124.055 115.493 126.559 115.542 128.788 115.439C130.999 115.336 132.835 115.09 133.295 115.014C133.84 114.923 134.355 115.291 134.446 115.836C134.537 116.38 134.169 116.896 133.624 116.986C133.085 117.076 131.17 117.33 128.881 117.436C126.611 117.542 123.865 117.507 121.717 116.97C117.732 115.974 113.341 114.072 110.878 112.314C110.429 111.993 110.325 111.368 110.646 110.919Z" fill="#006BCA"/>
<path d="M3.47662 131.242C2.91979 129.578 16.2836 75.7734 19.6245 73C21.8518 73 48.0226 79.1016 48.5794 81.875C49.1363 84.6484 32.4315 137.898 30.7611 139.563C29.0906 141.227 4.03344 132.906 3.47662 131.242Z" fill="#ECF4FB"/>
<path fill-rule="evenodd" clip-rule="evenodd" d="M19.2636 72H19.6245C20.0138 72 20.765 72.1171 21.6675 72.2843C22.6126 72.4594 23.8319 72.7112 25.2265 73.0204C28.0165 73.639 31.5293 74.4921 34.9906 75.4324C38.4468 76.3714 41.8747 77.4036 44.4845 78.3818C45.7848 78.8692 46.9162 79.3558 47.7547 79.8245C48.1719 80.0577 48.5513 80.3055 48.8494 80.5692C49.1218 80.8101 49.4596 81.1789 49.5599 81.6781C49.6069 81.9126 49.5949 82.1688 49.5785 82.3636C49.5599 82.5846 49.5239 82.8432 49.4753 83.129C49.378 83.7021 49.2208 84.4405 49.0155 85.3113C48.6041 87.0559 47.9864 89.3853 47.2281 92.0942C45.7107 97.515 43.6196 104.493 41.4603 111.432C39.3009 118.371 37.0709 125.279 35.2749 130.559C34.3774 133.198 33.5857 135.438 32.964 137.075C32.6537 137.892 32.3814 138.57 32.1566 139.077C32.0446 139.329 31.9387 139.551 31.8412 139.733C31.7604 139.883 31.6341 140.104 31.4668 140.271C31.1047 140.632 30.6052 140.722 30.294 140.756C29.9274 140.796 29.5003 140.786 29.0477 140.747C28.1364 140.67 26.9683 140.465 25.656 140.175C23.0223 139.594 19.6845 138.648 16.3982 137.603C13.1102 136.558 9.84899 135.406 7.36626 134.406C6.12796 133.907 5.06363 133.439 4.28104 133.034C3.89252 132.833 3.54757 132.635 3.27844 132.444C3.14435 132.349 3.00754 132.241 2.88816 132.12C2.78249 132.014 2.61708 131.825 2.5283 131.56C2.47361 131.396 2.46441 131.243 2.46138 131.165C2.45763 131.069 2.46063 130.97 2.46627 130.877C2.4776 130.688 2.50352 130.46 2.53917 130.206C2.61092 129.693 2.73146 129.009 2.89202 128.184C3.21384 126.532 3.70613 124.271 4.32055 121.605C5.54997 116.272 7.27519 109.294 9.12189 102.282C10.9681 95.2728 12.9389 88.2183 14.6596 82.7369C15.5192 79.9983 16.3213 77.6368 17.018 75.8647C17.3657 74.9801 17.6942 74.2245 17.9972 73.6355C18.2769 73.0917 18.6034 72.548 18.9858 72.2306L19.2636 72ZM20.0607 74.0438C19.9778 74.1748 19.8826 74.3425 19.7758 74.5502C19.5162 75.0548 19.2156 75.7412 18.8793 76.5965C18.2078 78.3043 17.4221 80.6143 16.5678 83.3359C14.8604 88.7748 12.8986 95.7956 11.0559 102.792C9.21366 109.786 7.49353 116.744 6.26944 122.054C5.65711 124.711 5.17061 126.947 4.85512 128.567C4.69703 129.378 4.58429 130.023 4.51983 130.483C4.49988 130.625 4.48542 130.744 4.47567 130.841C4.6364 130.95 4.87545 131.09 5.19965 131.257C5.90049 131.62 6.89815 132.061 8.11336 132.551C10.5376 133.527 13.7496 134.663 17.0042 135.697C20.2606 136.733 23.5351 137.659 26.0869 138.222C27.3673 138.504 28.4352 138.689 29.2161 138.755C29.6096 138.788 29.8927 138.788 30.077 138.767C30.0814 138.767 30.0858 138.766 30.0901 138.766C30.1523 138.649 30.2317 138.483 30.3285 138.265C30.5317 137.808 30.789 137.168 31.0943 136.365C31.7037 134.76 32.4867 132.545 33.3815 129.915C35.1701 124.656 37.3946 117.766 39.5506 110.838C41.7068 103.909 43.7918 96.9508 45.3022 91.5551C46.0577 88.8558 46.6668 86.5571 47.0689 84.8522C47.2703 83.9983 47.4165 83.3066 47.5036 82.7942C47.5472 82.5372 47.5735 82.3392 47.5856 82.1959C47.5877 82.1704 47.5892 82.1483 47.5903 82.1295C47.5738 82.1126 47.5523 82.0919 47.5245 82.0674C47.377 81.9369 47.1348 81.7693 46.7788 81.5702C46.0708 81.1744 45.0488 80.7292 43.7826 80.2546C41.2591 79.3088 37.9007 78.2956 34.4662 77.3625C31.0368 76.4308 27.5545 75.5851 24.7936 74.973C23.4128 74.6668 22.2177 74.4203 21.3032 74.2509C20.7604 74.1503 20.3472 74.0831 20.0607 74.0438ZM30.2173 138.742C30.2174 138.743 30.2153 138.743 30.2107 138.745C30.2149 138.743 30.2172 138.742 30.2173 138.742ZM4.31011 130.714C4.30424 130.708 4.30587 130.709 4.31244 130.716C4.3115 130.715 4.31073 130.715 4.31011 130.714ZM4.45973 131.084C4.46049 131.093 4.46015 131.095 4.45986 131.087C4.45982 131.087 4.45976 131.085 4.45973 131.084Z" fill="#006BCA"/>
<path fill-rule="evenodd" clip-rule="evenodd" d="M152.004 138.293L136.504 87.7934L138.416 87.2066L153.916 137.707L152.004 138.293Z" fill="#006BCA"/>
<path fill-rule="evenodd" clip-rule="evenodd" d="M84.901 81.2191C82.091 81.0538 74.8678 80.8223 68.5221 81.2189C62.3032 81.6076 52.8378 84.98 48.8444 86.6439L48.0751 84.7978C52.0817 83.1284 61.8163 79.6341 68.3974 79.2228C74.8517 78.8194 82.1618 79.0546 85.0185 79.2226L84.901 81.2191ZM76.07 167.837C71.3177 163.92 45.9722 140.61 34.7385 128.914L36.181 127.528C47.3676 139.175 72.6565 162.432 77.3421 166.294C80.3928 168.809 83.3005 170.367 85.7912 171.043C88.2917 171.722 90.2605 171.489 91.5912 170.609C92.6152 169.931 93.3545 168.573 93.8295 166.949C94.2948 165.359 94.4509 163.704 94.4509 162.689V160.505L96.1042 161.932C98.1518 163.699 100.986 165.571 103.914 166.585C106.851 167.602 109.707 167.702 112 166.225C113.809 165.06 114.324 163.213 114.284 161.418C114.264 160.522 114.104 159.678 113.916 159.017C113.822 158.688 113.724 158.413 113.639 158.209C113.565 158.031 113.516 157.943 113.503 157.92C113.499 157.913 113.498 157.912 113.501 157.915L114.763 156.427C116.249 157.207 118.629 158.143 121.062 158.531C123.529 158.925 125.821 158.722 127.365 157.522C129.062 156.205 129.726 154.3 129.924 152.443C130.101 150.788 129.898 149.284 129.782 148.429C129.767 148.321 129.754 148.223 129.743 148.136L129.589 146.913L130.818 147.015C130.851 147.017 130.884 147.02 130.918 147.023C132.036 147.116 133.69 147.253 135.378 146.99C137.109 146.719 138.752 146.046 139.861 144.578C142.375 141.252 142.559 138.46 142.429 137.687L144.402 137.356C144.64 138.772 144.235 142.108 141.457 145.784C139.92 147.818 137.703 148.651 135.686 148.966C134.297 149.182 132.944 149.163 131.882 149.1C131.98 150.026 132.058 151.298 131.913 152.656C131.683 154.812 130.877 157.328 128.592 159.102C126.388 160.813 123.402 160.93 120.747 160.506C119.061 160.237 117.416 159.736 116.019 159.188C116.16 159.839 116.266 160.585 116.283 161.373C116.332 163.561 115.693 166.226 113.083 167.907C110.057 169.855 106.481 169.591 103.259 168.475C100.724 167.597 98.3008 166.159 96.3218 164.673C96.2146 165.557 96.0329 166.54 95.7491 167.511C95.2317 169.279 94.317 171.203 92.6947 172.277C90.7175 173.585 88.0947 173.741 85.2671 172.973C82.4298 172.203 79.273 170.478 76.07 167.837Z" fill="#006BCA"/>
<path fill-rule="evenodd" clip-rule="evenodd" d="M95.7427 139.303C96.1277 138.907 96.7608 138.898 97.1568 139.283L115.157 156.783C115.553 157.168 115.562 157.801 115.177 158.197C114.792 158.593 114.159 158.602 113.763 158.217L95.7626 140.717C95.3667 140.332 95.3577 139.699 95.7427 139.303Z" fill="#006BCA"/>
<path fill-rule="evenodd" clip-rule="evenodd" d="M110.707 130.341C111.071 129.926 111.703 129.884 112.118 130.247L132.118 147.747C132.534 148.111 132.576 148.743 132.212 149.159C131.849 149.574 131.217 149.616 130.801 149.253L110.801 131.753C110.386 131.389 110.343 130.757 110.707 130.341Z" fill="#006BCA"/>
<path fill-rule="evenodd" clip-rule="evenodd" d="M80.7394 148.306C81.1225 147.909 81.7555 147.897 82.1534 148.28L95.6534 161.28C96.0512 161.663 96.0631 162.296 95.68 162.694C95.297 163.091 94.6639 163.103 94.2661 162.72L80.7661 149.72C80.3683 149.337 80.3563 148.704 80.7394 148.306Z" fill="#006BCA"/>
<path fill-rule="evenodd" clip-rule="evenodd" d="M160.96 135C162.34 135 163.46 133.881 163.46 132.5C163.46 131.119 162.34 130 160.96 130C159.579 130 158.46 131.119 158.46 132.5C158.46 133.881 159.579 135 160.96 135ZM160.96 137C163.445 137 165.46 134.985 165.46 132.5C165.46 130.015 163.445 128 160.96 128C158.474 128 156.46 130.015 156.46 132.5C156.46 134.985 158.474 137 160.96 137Z" fill="#006BCA"/>
<path fill-rule="evenodd" clip-rule="evenodd" d="M24.9597 131C26.3404 131 27.4597 129.881 27.4597 128.5C27.4597 127.119 26.3404 126 24.9597 126C23.579 126 22.4597 127.119 22.4597 128.5C22.4597 129.881 23.579 131 24.9597 131ZM24.9597 133C27.445 133 29.4597 130.985 29.4597 128.5C29.4597 126.015 27.445 124 24.9597 124C22.4744 124 20.4597 126.015 20.4597 128.5C20.4597 130.985 22.4744 133 24.9597 133Z" fill="#006BCA"/>
<path fill-rule="evenodd" clip-rule="evenodd" d="M149.504 2.92339C150.099 3.50024 150.113 4.44988 149.536 5.04447L117.036 38.5445C116.542 39.0543 115.757 39.1473 115.157 38.7672L101.154 29.8985L72.0023 58.0785C71.5267 58.5382 70.8062 58.6321 70.2287 58.3098L49.6747 46.8378L32.4733 62.6057C31.8626 63.1655 30.9138 63.1243 30.354 62.5136C29.7942 61.9029 29.8355 60.9541 30.4461 60.3943L48.4461 43.8943C48.9229 43.4573 49.626 43.375 50.1908 43.6902L70.7181 55.1473L99.9172 26.9215C100.415 26.4403 101.177 26.3623 101.762 26.7328L115.732 35.5804L147.383 2.95553C147.96 2.36094 148.91 2.34655 149.504 2.92339Z" fill="#006BCA"/>
<path fill-rule="evenodd" clip-rule="evenodd" d="M147.96 4.5H135.46V1.5H150.96V17H147.96V4.5Z" fill="#006BCA"/>
</svg>
