<svg width="186" height="185" viewBox="0 0 186 185" fill="none" xmlns="http://www.w3.org/2000/svg">
<circle cx="92.801" cy="92.2607" r="92.2607" fill="#B1C6D8" fill-opacity="0.5"/>
<path d="M145.194 50.0861L78.9898 16.8887C77.8381 16.3072 76.5663 16.0029 75.276 16C73.9856 15.9971 72.7125 16.2958 71.5581 16.8721L4.90539 50.0695C2.43923 51.3144 0.736993 53.6963 0.388243 56.4351C0.280296 57.2401 -9.11934 137.279 71.309 180.992C72.5454 181.666 73.9336 182.013 75.3418 182C76.7501 181.987 78.1316 181.614 79.3552 180.917C156.637 137.271 150.052 59.9706 149.736 56.7007C149.6 55.3043 149.112 53.9651 148.318 52.8084C147.524 51.6516 146.449 50.715 145.194 50.0861Z" fill="white"/>
<path fill-rule="evenodd" clip-rule="evenodd" d="M78.0885 18.674C77.2149 18.233 76.2503 18.0022 75.2715 18C74.2927 17.9978 73.327 18.2244 72.4515 18.6615L5.80665 51.8549C5.8051 51.8557 5.80354 51.8565 5.80198 51.8573C3.92313 52.8076 2.63566 54.6189 2.37222 56.6877L2.37055 56.7009C2.3706 56.7005 2.37048 56.7011 2.37027 56.7028C2.36863 56.7163 2.3589 56.7963 2.34302 56.9477C2.32583 57.1117 2.30247 57.3495 2.27596 57.6577C2.22295 58.2741 2.15748 59.1706 2.10361 60.3191C1.99587 62.6163 1.93468 65.9191 2.11195 70.0029C2.46664 78.1735 3.77505 89.4505 7.5628 102.047C15.1275 127.204 32.588 157.671 72.2641 179.235L72.2663 179.236C73.2034 179.747 74.2557 180.01 75.3233 180C76.3908 179.99 77.438 179.707 78.3655 179.179L78.3717 179.176C154.536 136.16 148.047 60.0248 147.746 56.8945C147.642 55.8348 147.272 54.8185 146.669 53.9405C146.066 53.0625 145.251 52.3515 144.298 51.874L145.194 50.0861C146.449 50.715 147.524 51.6516 148.318 52.8084C149.112 53.9651 149.6 55.3043 149.736 56.7007C150.052 59.9706 156.637 137.271 79.3552 180.917C78.1316 181.614 76.7501 181.987 75.3418 182C73.9336 182.013 72.5454 181.666 71.309 180.992C-9.11935 137.279 0.280297 57.2401 0.388243 56.4351C0.736993 53.6963 2.43923 51.3144 4.90539 50.0695L71.5581 16.8721C72.7125 16.2958 73.9856 15.9971 75.276 16C76.5663 16.0029 77.8381 16.3072 78.9898 16.8887L145.194 50.0861L144.298 51.874L78.0885 18.674Z" fill="#006BCA"/>
<path d="M132.059 58.7206L77.7717 31.7227C76.8272 31.2498 75.7844 31.0024 74.7263 31C73.6682 30.9977 72.6242 31.2405 71.6777 31.7092L17.0224 58.7071C15.0002 59.7195 13.6043 61.6566 13.3184 63.8839C13.2298 64.5386 5.52214 129.631 71.4734 165.18C72.4872 165.728 73.6255 166.01 74.7803 166C75.935 165.989 77.0679 165.686 78.0713 165.119C141.442 129.624 136.042 66.7592 135.784 64.0999C135.672 62.9643 135.272 61.8753 134.621 60.9345C133.969 59.9938 133.088 59.2321 132.059 58.7206Z" fill="#ECF4FB"/>
<path fill-rule="evenodd" clip-rule="evenodd" d="M76.8763 33.5111C76.209 33.177 75.4711 33.0017 74.7219 33C73.9726 32.9984 73.2339 33.1704 72.5651 33.5015L72.5634 33.5024L17.9178 60.4955C17.9163 60.4962 17.9149 60.4969 17.9134 60.4977C16.476 61.2191 15.5012 62.5878 15.3021 64.1386L15.3004 64.1519L15.3002 64.1531C15.2978 64.1728 15.2666 64.4298 15.2248 64.9117C15.1818 65.4081 15.1285 66.1321 15.0845 67.0609C14.9967 68.9186 14.9466 71.5928 15.0914 74.9011C15.3812 81.5206 16.4501 90.6588 19.5449 100.866C25.7232 121.244 39.9839 145.934 72.4224 163.42L72.4246 163.421C73.1401 163.808 73.9448 164.007 74.7619 164C75.579 163.992 76.3797 163.778 77.0877 163.378L77.0939 163.374C139.358 128.499 134.035 66.7796 133.793 64.2936C133.715 63.4983 133.434 62.7343 132.976 62.073C132.518 61.4111 131.897 60.8733 131.169 60.5115L76.8763 33.5111ZM17.0224 58.7071L71.6777 31.7092C72.6242 31.2405 73.6682 30.9977 74.7263 31C75.7844 31.0024 76.8272 31.2498 77.7717 31.7227L132.059 58.7206C133.088 59.2321 133.969 59.9938 134.621 60.9345C135.272 61.8753 135.672 62.9643 135.784 64.0999C136.042 66.7592 141.442 129.624 78.0713 165.119C77.0679 165.686 75.935 165.989 74.7803 166C73.6255 166.01 72.4872 165.728 71.4734 165.18C5.52214 129.631 13.2298 64.5387 13.3184 63.8839C13.6043 61.6566 15.0002 59.7195 17.0224 58.7071Z" fill="#006BCA"/>
<path fill-rule="evenodd" clip-rule="evenodd" d="M101.476 64.1206C101.962 64.3835 102.142 64.9904 101.879 65.4761L74.8118 115.476C74.648 115.779 74.3402 115.976 73.9969 115.998C73.6536 116.02 73.323 115.864 73.1216 115.585L52.1893 86.6C51.866 86.1522 51.9668 85.5271 52.4146 85.2038C52.8623 84.8805 53.4874 84.9813 53.8107 85.429L73.8109 113.124L100.121 64.5239C100.384 64.0383 100.99 63.8577 101.476 64.1206Z" fill="#006BCA"/>
<path fill-rule="evenodd" clip-rule="evenodd" d="M72.8984 23.5609C73.1409 24.0571 72.9353 24.6559 72.4391 24.8984L61.7213 30.1363C61.2251 30.3788 60.6263 30.1731 60.3838 29.6769C60.1413 29.1807 60.347 28.5819 60.8432 28.3394L71.5609 23.1015C72.0571 22.8591 72.6559 23.0647 72.8984 23.5609ZM51.463 34.0367C51.7055 34.5329 51.4998 35.1317 51.0036 35.3742L10.6329 55.1038C10.6321 55.1041 10.6314 55.1045 10.6307 55.1049C8.63453 56.0944 7.27064 57.9791 6.99167 60.1287C6.9206 60.6764 6.41899 61.0628 5.87129 60.9917C5.3236 60.9206 4.93723 60.419 5.0083 59.8713C5.37607 57.0374 7.16845 54.5878 9.74515 53.3116L9.74991 53.3092L9.74992 53.3092L50.1254 33.5773C50.6216 33.3348 51.2205 33.5405 51.463 34.0367Z" fill="#006BCA"/>
<path d="M89.1073 164.553C88.2405 168.604 92.839 172.27 95.2466 173.596C95.2466 173.596 110.053 183 134.972 183C144.121 183 165.896 180.037 173.975 173.596C192.032 163.106 173.975 159.851 173.975 159.851C172.891 153.702 168.991 139.379 162.057 131.277C155.123 123.174 144.963 120.184 140.75 119.702C140.148 118.135 138.15 115 134.972 115C131.794 115 130.036 118.617 129.555 120.426C127.388 119.702 120.454 120.643 110.053 130.191C99.6525 139.74 97.0523 153.943 97.0523 159.851C94.5243 160.574 89.8037 161.298 89.1073 164.553Z" fill="white"/>
<path fill-rule="evenodd" clip-rule="evenodd" d="M128.629 120.086C128.629 116.525 131.516 113.639 135.076 113.639C138.637 113.639 141.523 116.525 141.523 120.086V154.583C141.523 155.135 141.075 155.583 140.523 155.583C139.971 155.583 139.523 155.135 139.523 154.583V120.086C139.523 117.63 137.532 115.639 135.076 115.639C132.62 115.639 130.629 117.63 130.629 120.086V154.583C130.629 155.135 130.182 155.583 129.629 155.583C129.077 155.583 128.629 155.135 128.629 154.583V120.086Z" fill="#006BCA"/>
<path fill-rule="evenodd" clip-rule="evenodd" d="M139.745 119.57C139.829 119.024 140.34 118.65 140.885 118.734C160.236 121.72 174.93 139.478 174.93 164.024C174.93 164.576 174.483 165.024 173.93 165.024C173.378 165.024 172.93 164.576 172.93 164.024C172.93 140.282 158.785 123.52 140.58 120.711C140.035 120.627 139.66 120.116 139.745 119.57ZM130.373 119.571C130.456 120.117 130.082 120.627 129.536 120.711C111.348 123.502 97.2217 140.075 97.2217 164.024C97.2217 164.576 96.774 165.024 96.2217 165.024C95.6695 165.024 95.2217 164.576 95.2217 164.024C95.2217 139.268 109.9 121.7 129.232 118.734C129.778 118.65 130.289 119.025 130.373 119.571Z" fill="#006BCA"/>
<path fill-rule="evenodd" clip-rule="evenodd" d="M179.284 162.5C178.067 161.698 176.109 161.133 173.174 160.653L173.497 158.679C176.448 159.162 178.782 159.774 180.385 160.83C181.208 161.373 181.858 162.044 182.294 162.885C182.728 163.722 182.919 164.667 182.919 165.714C182.919 166.755 182.474 167.791 181.785 168.768C181.089 169.752 180.094 170.75 178.863 171.735C176.398 173.706 172.879 175.709 168.585 177.503C159.989 181.094 148.147 183.906 135.076 183.906C122.012 183.906 110.172 181.218 101.573 177.687C97.2776 175.923 93.7542 173.934 91.2851 171.936C90.0508 170.937 89.0536 169.915 88.358 168.892C87.6653 167.874 87.233 166.798 87.233 165.714C87.233 163.326 88.8488 161.79 90.6626 160.79C92.4749 159.79 94.7416 159.176 96.5637 158.699L97.07 160.634C95.2133 161.12 93.1881 161.681 91.6282 162.541C90.0698 163.4 89.233 164.406 89.233 165.714C89.233 166.264 89.4562 166.951 90.0115 167.767C90.5639 168.579 91.4072 169.462 92.5433 170.381C94.8149 172.219 98.1516 174.12 102.333 175.837C110.688 179.268 122.27 181.906 135.076 181.906C147.876 181.906 159.456 179.149 167.814 175.658C171.996 173.91 175.337 171.993 177.614 170.173C178.752 169.262 179.598 168.397 180.151 167.614C180.71 166.822 180.919 166.187 180.919 165.714C180.919 164.913 180.774 164.299 180.518 163.806C180.264 163.316 179.871 162.887 179.284 162.5Z" fill="#006BCA"/>
<path fill-rule="evenodd" clip-rule="evenodd" d="M121.567 125.262C122.117 125.221 122.597 125.634 122.638 126.185L124.09 145.794C124.131 146.344 123.718 146.824 123.167 146.865C122.616 146.906 122.137 146.492 122.096 145.941L120.643 126.333C120.602 125.782 121.016 125.302 121.567 125.262Z" fill="#006BCA"/>
<path fill-rule="evenodd" clip-rule="evenodd" d="M148.622 125.265C149.171 125.326 149.567 125.82 149.506 126.369L147.327 145.978C147.266 146.527 146.772 146.922 146.223 146.861C145.674 146.8 145.278 146.306 145.339 145.757L147.518 126.148C147.579 125.599 148.073 125.204 148.622 125.265Z" fill="#006BCA"/>
<path fill-rule="evenodd" clip-rule="evenodd" d="M95.5077 163.324C95.8943 162.929 96.5274 162.923 96.9218 163.31C98.2374 164.6 101.691 166.718 107.694 168.513C113.664 170.297 122.086 171.739 133.26 171.739C144.463 171.739 152.914 170.75 158.913 169.523C164.948 168.289 168.424 166.829 169.742 165.945C170.201 165.638 170.822 165.76 171.13 166.219C171.437 166.677 171.315 167.299 170.856 167.606C169.211 168.71 165.428 170.232 159.314 171.482C153.165 172.74 144.578 173.739 133.26 173.739C121.916 173.739 113.299 172.275 107.121 170.429C100.976 168.592 97.1692 166.353 95.5217 164.738C95.1273 164.351 95.121 163.718 95.5077 163.324Z" fill="#006BCA"/>
</svg>
