<svg width="16" height="16" viewBox="0 0 16 16" fill="none" xmlns="http://www.w3.org/2000/svg">
<path d="M15.4186 0.768748L12.1686 0.0187484C11.8155 -0.0625016 11.453 0.121873 11.3092 0.453123L9.80921 3.95312C9.67796 4.25937 9.76546 4.61875 10.0248 4.82812L11.9186 6.37812C10.7936 8.775 8.82796 10.7687 6.38109 11.9156L4.83109 10.0219C4.61859 9.7625 4.26234 9.675 3.95609 9.80625L0.456087 11.3062C0.121712 11.4531 -0.0626628 11.8156 0.0185872 12.1687L0.768587 15.4187C0.846712 15.7562 1.14671 16 1.49984 16C9.50296 16 15.9998 9.51562 15.9998 1.5C15.9998 1.15 15.7592 0.846873 15.4186 0.768748Z" fill="#8BA0B2"/>
</svg>
