<svg width="23" height="31" viewBox="0 0 23 31" fill="none" xmlns="http://www.w3.org/2000/svg">
<path fill-rule="evenodd" clip-rule="evenodd" d="M0 4.99995C0 4.02749 0.386308 3.09486 1.07394 2.40722C1.76157 1.71959 2.69421 1.33328 3.66667 1.33328H12.0743C13.0467 1.33349 13.9792 1.71993 14.6667 2.40762L20.9257 8.66661C21.6133 9.35409 21.9998 10.2866 22 11.2589V26.9999C22 27.9724 21.6137 28.905 20.9261 29.5927C20.2384 30.2803 19.3058 30.6666 18.3333 30.6666H3.66667C2.69421 30.6666 1.76157 30.2803 1.07394 29.5927C0.386308 28.905 0 27.9724 0 26.9999V4.99995Z" fill="black"/>
<path d="M14 1V9H22" stroke="white" stroke-width="2" stroke-linecap="round" stroke-linejoin="round"/>
<path d="M5.45459 16.7598V18.1885H6.44824V19.3271H5.45459V22.2275C5.45459 22.4424 5.49577 22.5964 5.57812 22.6895C5.66048 22.7826 5.81803 22.8291 6.05078 22.8291C6.22266 22.8291 6.37484 22.8166 6.50732 22.7915V23.9678C6.20296 24.0609 5.88965 24.1074 5.56738 24.1074C4.47884 24.1074 3.92383 23.5578 3.90234 22.4585V19.3271H3.05371V18.1885H3.90234V16.7598H5.45459ZM10.0759 19.9233L11.0534 18.1885H12.7131L11.0588 21.0352L12.7829 24H11.1179L10.0813 22.1738L9.05 24H7.37959L9.10371 21.0352L7.45479 18.1885H9.11982L10.0759 19.9233ZM15.8681 16.7598V18.1885H16.8617V19.3271H15.8681V22.2275C15.8681 22.4424 15.9092 22.5964 15.9916 22.6895C16.074 22.7826 16.2315 22.8291 16.4643 22.8291C16.6361 22.8291 16.7883 22.8166 16.9208 22.7915V23.9678C16.6164 24.0609 16.3031 24.1074 15.9809 24.1074C14.8923 24.1074 14.3373 23.5578 14.3158 22.4585V19.3271H13.4672V18.1885H14.3158V16.7598H15.8681Z" fill="white"/>
</svg>
