<svg xmlns="http://www.w3.org/2000/svg" viewBox="0 0 585.7 456.3"><path d="M.6 214.9h584.5v34.3H.6zm0 241.3h35.8v-38.8h204.7v-134H.6v172.8zm35.8-138.5h168.9v65.4H36.4v-65.4zm239.7 99.7h135.5v38.8h37.3v-38.8h136.2v-134h-309v134zm172.8-99.7h100.4v65.4H448.9v-65.4zm-137 0h99.7v65.4h-99.7v-65.4zM536.4 33.4h39.2V-.1H408v180.3h111.3c47.5 0 67.1-23.9 67.1-56 0-31.8-18.2-55.2-66-55.2h-73V33.4h89zm-16 68.9c18.2 0 25.2 10.4 25.2 22.3s-7 22-25.2 22h-73v-44.4h73zm-225.9 44.4H209v33.6h89.2c52.8 0 88.8-36.6 88.8-90.2S351-.1 298.2-.1H209v33.6h85.6v.1c25.2 0 43.8 15.7 49.4 40.2H228.3v32.7H344c-5.7 24.4-24.2 40.2-49.5 40.2zM181.2 49.4c0-29.7-19.8-49.5-67.3-49.5H.8v180.4h120c47.5 0 67.1-21.9 67.1-52 0-19.8-8.5-34.4-28.6-41.9 15.1-7.5 21.9-20.1 21.9-37zm-141-16h75c18 0 25.2 10.8 25.2 22.3 0 11.3-7 20.3-25.2 20.3h-75V33.4zM122 146.9H40.2v-43.4H122c18.5 0 25.2 9.9 25.2 21.6 0 11.7-6.8 21.8-25.2 21.8z" fill="#30454F"/></svg>