<svg width="18" height="18" viewBox="0 0 18 18" fill="none" xmlns="http://www.w3.org/2000/svg">
<path fill-rule="evenodd" clip-rule="evenodd" d="M9 16C12.866 16 16 12.866 16 9C16 5.13401 12.866 2 9 2C5.13401 2 2 5.13401 2 9C2 12.866 5.13401 16 9 16ZM9 18C13.9706 18 18 13.9706 18 9C18 4.02944 13.9706 0 9 0C4.02944 0 0 4.02944 0 9C0 13.9706 4.02944 18 9 18Z" fill="#006BCA"/>
<path fill-rule="evenodd" clip-rule="evenodd" d="M7.55279 5.10558C7.89157 4.93619 8.29698 4.97274 8.6 5.20001L12.6 8.20001C12.8518 8.38886 13 8.68525 13 9.00001C13 9.31476 12.8518 9.61115 12.6 9.80001L8.6 12.8C8.29698 13.0273 7.89157 13.0638 7.55279 12.8944C7.214 12.725 7 12.3788 7 12V6.00001C7 5.62123 7.214 5.27497 7.55279 5.10558ZM9 8.00001V10L10.3333 9.00001L9 8.00001Z" fill="#006BCA"/>
</svg>
