<svg width="19" height="13" viewBox="0 0 19 13" fill="none" xmlns="http://www.w3.org/2000/svg">
<path d="M12 6.5C12 7.16304 11.7366 7.79893 11.2678 8.26777C10.7989 8.73661 10.163 9 9.5 9C8.83696 9 8.20107 8.73661 7.73223 8.26777C7.26339 7.79893 7 7.16304 7 6.5C7 5.83696 7.26339 5.20107 7.73223 4.73223C8.20107 4.26339 8.83696 4 9.5 4C10.163 4 10.7989 4.26339 11.2678 4.73223C11.7366 5.20107 12 5.83696 12 6.5Z" fill="#006BCA"/>
<path fill-rule="evenodd" clip-rule="evenodd" d="M0 6.5C0 6.5 3.5625 0 9.5 0C15.4375 0 19 6.5 19 6.5C19 6.5 15.4375 13 9.5 13C3.5625 13 0 6.5 0 6.5ZM9.5 10.6364C10.6023 10.6364 11.6595 10.2006 12.4389 9.42485C13.2184 8.64913 13.6562 7.59703 13.6562 6.5C13.6562 5.40297 13.2184 4.35087 12.4389 3.57515C11.6595 2.79943 10.6023 2.36364 9.5 2.36364C8.39769 2.36364 7.34054 2.79943 6.56109 3.57515C5.78164 4.35087 5.34375 5.40297 5.34375 6.5C5.34375 7.59703 5.78164 8.64913 6.56109 9.42485C7.34054 10.2006 8.39769 10.6364 9.5 10.6364Z" fill="#006BCA"/>
</svg>
