<svg width="31" height="31" viewBox="0 0 31 31" fill="none" xmlns="http://www.w3.org/2000/svg">
<circle r="15.5" transform="matrix(1 0 0 -1 15.5 15.5)" fill="#5382B6"/>
<path fill-rule="evenodd" clip-rule="evenodd" d="M14.8365 21.2302H15.9651C15.9651 21.2302 16.3037 21.172 16.473 20.9976C16.6423 20.8232 16.6423 20.4743 16.6423 20.4743C16.6423 20.4743 16.6423 18.9626 17.3195 18.73C17.9967 18.4975 18.8996 20.2417 19.8025 20.8813C20.4797 21.4046 20.9876 21.2883 20.9876 21.2883L23.4707 21.2302C23.4707 21.2302 24.7686 21.172 24.1479 20.0673C24.0914 20.0092 23.8093 19.3115 22.2856 17.8579C20.7055 16.3462 20.9312 16.6369 22.7935 14.0205C23.9221 12.4506 24.3736 11.5203 24.2607 11.0552C24.1479 10.6482 23.3014 10.7645 23.3014 10.7645H20.4797C20.4797 10.7645 20.254 10.7063 20.1411 10.8226C19.9718 10.9389 19.9154 11.1133 19.9154 11.1133C19.9154 11.1133 19.464 12.3343 18.8996 13.3809C17.6581 15.5322 17.1502 15.6485 16.9809 15.5322C16.5294 15.2415 16.6423 14.253 16.6423 13.6135C16.6423 11.5203 16.9809 10.6482 16.0216 10.4156C15.7394 10.3575 15.5137 10.2993 14.7236 10.2993C13.7078 10.2993 12.8613 10.2993 12.4099 10.5319C12.0713 10.7063 11.8455 11.0552 12.0148 11.0552C12.1841 11.0552 12.6356 11.1715 12.8613 11.4622C13.087 11.9855 13.087 12.8576 13.087 12.8576C13.087 12.8576 13.2563 15.3577 12.692 15.6485C12.297 15.881 11.7891 15.4159 10.6604 13.439C10.0961 12.4506 9.64465 11.2877 9.64465 11.2877C9.64465 11.2877 9.58821 11.0552 9.41892 10.9389C9.24962 10.8226 8.96745 10.7645 8.96745 10.7645H6.31511C6.31511 10.7645 5.92008 10.7645 5.75079 10.9389C5.63792 11.1133 5.75079 11.404 5.75079 11.404C5.75079 11.404 7.8388 16.4043 10.209 18.9626C12.4099 21.4046 14.8365 21.2302 14.8365 21.2302Z" fill="white"/>
</svg>
