<svg width="41" height="56" viewBox="0 0 41 56" fill="none" xmlns="http://www.w3.org/2000/svg">
<g clip-path="url(#clip0)">
<path fill-rule="evenodd" clip-rule="evenodd" d="M-0.19043 7.80942C-0.19043 5.98027 0.536198 4.22604 1.8296 2.93263C3.12301 1.63922 4.87724 0.912598 6.70639 0.912598H22.5208C24.3498 0.912988 26.1038 1.63987 27.3969 2.93337L39.1697 14.7062C40.4632 15.9993 41.1901 17.7533 41.1905 19.5823V49.1904C41.1905 51.0195 40.4639 52.7738 39.1705 54.0672C37.8771 55.3606 36.1228 56.0872 34.2937 56.0872H6.70639C4.87724 56.0872 3.12301 55.3606 1.8296 54.0672C0.536198 52.7738 -0.19043 51.0195 -0.19043 49.1904V7.80942Z" fill="black"/>
<path d="M26.1428 0.285767V15.3334H41.1904" stroke="white" stroke-width="2" stroke-linecap="round" stroke-linejoin="round"/>
<path d="M13.0343 32.5569L14.545 29.8757H17.1099L14.5533 34.2751L17.2179 38.8572H14.6446L13.0426 36.0349L11.4488 38.8572H8.86727L11.5318 34.2751L8.98348 29.8757H11.5567L13.0343 32.5569ZM21.6455 38.8572H19.2383V26.1072H21.6455V38.8572ZM29.3436 36.3752C29.3436 36.0819 29.197 35.8523 28.9037 35.6863C28.6159 35.5147 28.1511 35.3625 27.5092 35.2297C25.3731 34.7815 24.3051 33.8739 24.3051 32.5071C24.3051 31.7102 24.6343 31.0461 25.2929 30.5149C25.9569 29.9781 26.823 29.7097 27.891 29.7097C29.031 29.7097 29.9413 29.9781 30.622 30.5149C31.3082 31.0517 31.6513 31.7489 31.6513 32.6067H29.2523C29.2523 32.2636 29.1416 31.9814 28.9203 31.76C28.6989 31.5331 28.3531 31.4197 27.8827 31.4197C27.4787 31.4197 27.1661 31.511 26.9447 31.6936C26.7234 31.8762 26.6127 32.1086 26.6127 32.3909C26.6127 32.6565 26.7372 32.8723 26.9862 33.0383C27.2408 33.1988 27.6669 33.3399 28.2645 33.4617C28.8622 33.5779 29.3658 33.7107 29.7753 33.8601C31.0425 34.325 31.6762 35.1301 31.6762 36.2756C31.6762 37.0946 31.3248 37.7587 30.622 38.2678C29.9192 38.7714 29.0116 39.0232 27.8993 39.0232C27.1467 39.0232 26.4771 38.8904 25.8905 38.6248C25.3095 38.3536 24.8529 37.9856 24.5209 37.5208C24.1889 37.0504 24.0228 36.544 24.0228 36.0017H26.2972C26.3194 36.4278 26.4771 36.7543 26.7704 36.9812C27.0637 37.2081 27.4566 37.3215 27.9491 37.3215C28.4084 37.3215 28.7543 37.2358 28.9867 37.0642C29.2247 36.8871 29.3436 36.6575 29.3436 36.3752Z" fill="white"/>
</g>
<defs>
<clipPath id="clip0">
<rect width="41" height="56" fill="white"/>
</clipPath>
</defs>
</svg>
